<svg width="18" height="21" viewBox="0 0 18 21" fill="none" xmlns="http://www.w3.org/2000/svg">
<path d="M14.7471 11.0786C14.7373 9.41357 15.4917 8.15869 17.0151 7.2334C16.1631 6.0127 14.874 5.34131 13.1748 5.21191C11.5659 5.08496 9.80566 6.14941 9.16113 6.14941C8.47998 6.14941 6.92236 5.25586 5.69678 5.25586C3.16748 5.29492 0.479492 7.27246 0.479492 11.2959C0.479492 12.4849 0.696777 13.7129 1.13135 14.9775C1.7124 16.6426 3.80713 20.7222 5.99219 20.6562C7.13477 20.6294 7.94287 19.8457 9.42969 19.8457C10.8726 19.8457 11.6196 20.6562 12.894 20.6562C15.0986 20.6245 16.9932 16.916 17.5449 15.2461C14.5884 13.8521 14.7471 11.1641 14.7471 11.0786ZM12.1812 3.63232C13.4189 2.1626 13.3066 0.824707 13.27 0.34375C12.1763 0.407227 10.9116 1.08838 10.1914 1.92578C9.39795 2.82422 8.93164 3.93506 9.03174 5.1875C10.2134 5.27783 11.2925 4.66992 12.1812 3.63232Z" fill="white"/>
</svg>
