<svg width="469" height="221" viewBox="0 0 469 221" fill="none" xmlns="http://www.w3.org/2000/svg">
<g filter="url(#filter0_d_26_720)">
<mask id="path-1-inside-1_26_720" fill="white">
<path fill-rule="evenodd" clip-rule="evenodd" d="M25.6963 15C20.1734 15 15.6963 19.4772 15.6963 25V147C15.6963 152.523 20.1734 157 25.6963 157H370.696C376.219 157 380.696 152.523 380.696 147V141.166C400.258 143.333 423.685 151.986 423.685 175.848C424.937 151.656 417.439 105.972 380.696 96.0785V25C380.696 19.4772 376.219 15 370.696 15H25.6963Z"/>
</mask>
<path fill-rule="evenodd" clip-rule="evenodd" d="M25.6963 15C20.1734 15 15.6963 19.4772 15.6963 25V147C15.6963 152.523 20.1734 157 25.6963 157H370.696C376.219 157 380.696 152.523 380.696 147V141.166C400.258 143.333 423.685 151.986 423.685 175.848C424.937 151.656 417.439 105.972 380.696 96.0785V25C380.696 19.4772 376.219 15 370.696 15H25.6963Z" fill="white"/>
<path d="M380.696 141.166L380.806 140.172L379.696 140.049V141.166H380.696ZM423.685 175.848H422.685L424.683 175.899L423.685 175.848ZM380.696 96.0785H379.696V96.8449L380.436 97.0442L380.696 96.0785ZM16.6963 25C16.6963 20.0294 20.7257 16 25.6963 16V14C19.6212 14 14.6963 18.9249 14.6963 25H16.6963ZM16.6963 147V25H14.6963V147H16.6963ZM25.6963 156C20.7257 156 16.6963 151.971 16.6963 147H14.6963C14.6963 153.075 19.6212 158 25.6963 158V156ZM370.696 156H25.6963V158H370.696V156ZM379.696 147C379.696 151.971 375.667 156 370.696 156V158C376.771 158 381.696 153.075 381.696 147H379.696ZM379.696 141.166V147H381.696V141.166H379.696ZM424.685 175.848C424.685 163.52 418.603 155.1 410.072 149.534C401.586 143.997 390.665 141.264 380.806 140.172L380.586 142.16C390.29 143.235 400.862 145.912 408.98 151.209C417.052 156.476 422.685 164.314 422.685 175.848H424.685ZM380.436 97.0442C398.403 101.882 409.272 115.47 415.511 130.975C421.755 146.491 423.307 163.808 422.686 175.796L424.683 175.899C425.315 163.696 423.744 146.075 417.367 130.228C410.985 114.369 399.733 100.169 380.956 95.1129L380.436 97.0442ZM379.696 25V96.0785H381.696V25H379.696ZM370.696 16C375.667 16 379.696 20.0294 379.696 25H381.696C381.696 18.9249 376.771 14 370.696 14V16ZM25.6963 16H370.696V14H25.6963V16Z" fill="#EDEDED" mask="url(#path-1-inside-1_26_720)"/>
</g>
<defs>
<filter id="filter0_d_26_720" x="0.696289" y="0" width="468.116" height="220.848" filterUnits="userSpaceOnUse" color-interpolation-filters="sRGB">
<feFlood flood-opacity="0" result="BackgroundImageFix"/>
<feColorMatrix in="SourceAlpha" type="matrix" values="0 0 0 0 0 0 0 0 0 0 0 0 0 0 0 0 0 0 127 0" result="hardAlpha"/>
<feOffset dx="15" dy="15"/>
<feGaussianBlur stdDeviation="15"/>
<feComposite in2="hardAlpha" operator="out"/>
<feColorMatrix type="matrix" values="0 0 0 0 0 0 0 0 0 0 0 0 0 0 0 0 0 0 0.03 0"/>
<feBlend mode="normal" in2="BackgroundImageFix" result="effect1_dropShadow_26_720"/>
<feBlend mode="normal" in="SourceGraphic" in2="effect1_dropShadow_26_720" result="shape"/>
</filter>
</defs>
</svg>
