<svg width="46" height="46" viewBox="0 0 46 46" fill="none" xmlns="http://www.w3.org/2000/svg">
<circle cx="23" cy="22.7844" r="22.5" fill="#F2FDFC"/>
<path d="M17.792 29.3391C16.6462 29.3391 15.7191 30.2766 15.7191 31.4224C15.7191 32.5683 16.6462 33.5058 17.792 33.5058C18.9378 33.5058 19.8753 32.5683 19.8753 31.4224C19.8753 30.2766 18.9378 29.3391 17.792 29.3391ZM11.542 13.7141C11.542 14.287 12.0107 14.7558 12.5837 14.7558H13.6253L17.3753 22.662L15.9691 25.2037C15.2087 26.5995 16.2087 28.2974 17.792 28.2974H29.2503C29.8232 28.2974 30.292 27.8287 30.292 27.2558C30.292 26.6828 29.8232 26.2141 29.2503 26.2141H17.792L18.9378 24.1308H26.6982C27.4795 24.1308 28.167 23.7037 28.5212 23.0578L32.2503 16.2974C32.3381 16.1395 32.3832 15.9615 32.381 15.7808C32.3788 15.6002 32.3295 15.4232 32.238 15.2675C32.1464 15.1118 32.0158 14.9826 31.859 14.8929C31.7022 14.8031 31.5247 14.7558 31.3441 14.7558H15.9274L15.2295 13.2662C15.1458 13.0884 15.0131 12.9381 14.8471 12.8329C14.6811 12.7278 14.4885 12.6721 14.292 12.6724H12.5837C12.0107 12.6724 11.542 13.1412 11.542 13.7141ZM28.2087 29.3391C27.0628 29.3391 26.1357 30.2766 26.1357 31.4224C26.1357 32.5683 27.0628 33.5058 28.2087 33.5058C29.3545 33.5058 30.292 32.5683 30.292 31.4224C30.292 30.2766 29.3545 29.3391 28.2087 29.3391Z" fill="#3AAFA9"/>
</svg>
