<svg width="46" height="46" viewBox="0 0 46 46" fill="none" xmlns="http://www.w3.org/2000/svg">
<circle cx="23" cy="22.7844" r="22.5" fill="#F2F1FF"/>
<g clip-path="url(#clip0_72_958)">
<path d="M18.8338 21.7974H18.2296C17.4051 21.7676 16.5833 21.9076 15.8152 22.2086C15.0471 22.5096 14.349 22.9653 13.7643 23.5474L13.5977 23.7418V29.4918H16.431V26.2279L16.8129 25.7974L16.9865 25.596C17.8907 24.6672 19.0163 23.9837 20.2574 23.6099C19.636 23.1371 19.1459 22.5131 18.8338 21.7974Z" fill="#2E279D"/>
<path d="M32.2635 23.5266C31.6788 22.9446 30.9807 22.4889 30.2126 22.1878C29.4445 21.8868 28.6227 21.7468 27.7982 21.7766C27.5453 21.7774 27.2927 21.7913 27.0412 21.8183C26.7232 22.4898 26.2465 23.0737 25.6523 23.5197C26.9773 23.8863 28.1776 24.6064 29.1246 25.603L29.2982 25.7975L29.6732 26.228V29.4989H32.4093V23.7211L32.2635 23.5266Z" fill="#2E279D"/>
<path d="M18.2079 20.4433H18.4232C18.3232 19.5844 18.4739 18.715 18.8571 17.9399C19.2403 17.1648 19.8397 16.5172 20.5829 16.0752C20.3135 15.6637 19.9419 15.3291 19.5043 15.1044C19.0668 14.8796 18.5784 14.7723 18.0869 14.793C17.5954 14.8138 17.1178 14.9617 16.7007 15.2225C16.2836 15.4833 15.9414 15.8479 15.7076 16.2807C15.4738 16.7135 15.3564 17.1995 15.3669 17.6913C15.3773 18.1831 15.5154 18.6637 15.7674 19.0862C16.0194 19.5086 16.3769 19.8583 16.8047 20.1011C17.2325 20.3438 17.716 20.4713 18.2079 20.4711V20.4433Z" fill="#2E279D"/>
<path d="M27.4657 19.9224C27.4741 20.082 27.4741 20.242 27.4657 20.4016C27.599 20.4227 27.7336 20.4343 27.8685 20.4363H28.0004C28.4902 20.4102 28.9648 20.2577 29.3781 19.9937C29.7914 19.7297 30.1293 19.3632 30.3589 18.9298C30.5886 18.4965 30.7021 18.0111 30.6884 17.5208C30.6747 17.0306 30.5343 16.5522 30.2809 16.1324C30.0275 15.7125 29.6696 15.3654 29.2423 15.1249C28.8149 14.8843 28.3325 14.7585 27.8421 14.7598C27.3516 14.761 26.8699 14.8892 26.4437 15.1319C26.0175 15.3746 25.6615 15.7235 25.4102 16.1446C26.0387 16.555 26.5555 17.115 26.9143 17.7743C27.273 18.4337 27.4625 19.1718 27.4657 19.9224Z" fill="#2E279D"/>
<path d="M22.9098 23.0335C24.6242 23.0335 26.014 21.6437 26.014 19.9294C26.014 18.215 24.6242 16.8252 22.9098 16.8252C21.1954 16.8252 19.8057 18.215 19.8057 19.9294C19.8057 21.6437 21.1954 23.0335 22.9098 23.0335Z" fill="#2E279D"/>
<path d="M23.076 24.6863C22.169 24.6497 21.2641 24.7969 20.4156 25.1191C19.567 25.4414 18.7925 25.9319 18.1385 26.5613L17.9648 26.7557V31.1516C17.9676 31.2947 17.9984 31.436 18.0558 31.5672C18.1131 31.6985 18.1957 31.8171 18.2989 31.9165C18.402 32.0158 18.5238 32.0938 18.6571 32.146C18.7904 32.1983 18.9328 32.2238 19.076 32.221H27.0551C27.1983 32.2238 27.3406 32.1983 27.474 32.146C27.6073 32.0938 27.729 32.0158 27.8322 31.9165C27.9354 31.8171 28.018 31.6985 28.0753 31.5672C28.1326 31.436 28.1635 31.2947 28.1662 31.1516V26.7696L27.9996 26.5613C27.3498 25.93 26.5779 25.438 25.7313 25.1156C24.8846 24.7932 23.9811 24.6471 23.076 24.6863Z" fill="#2E279D"/>
</g>
<defs>
<clipPath id="clip0_72_958">
<rect width="25" height="25" fill="white" transform="translate(10.5 10.5891)"/>
</clipPath>
</defs>
</svg>
