<svg width="722" height="422" viewBox="0 0 722 422" fill="none" xmlns="http://www.w3.org/2000/svg">
<path d="M1.74097 65.9129C17.0316 106.469 163.958 85.5439 170.175 47.8998C179.973 -11.4246 46.2905 -6.0315 27.2366 13.3838C26.5309 14.1029 26.6464 15.4312 27.2366 15.1455C78.872 -9.84264 172.921 5.9413 164.954 47.8998C155.766 79.8632 5.23306 102.73 4.62278 58.722C4.22096 29.7461 71.6166 2.45371 120.37 11.1546C121.828 10.7951 120.68 9.22287 119.082 8.88947C66.8023 -0.39632 -9.79835 27.2187 1.74097 65.9129Z" fill="#17252A"/>
<path d="M31 50.864V62H39.208V50.864L50.872 28.304H41.656L35.176 42.416L28.648 28.304H19.336L31 50.864ZM82.7871 48.608C82.7871 40.112 76.7391 34.832 68.8671 34.832C61.0431 34.832 54.9471 40.112 54.9471 48.608C54.9471 57.104 60.8991 62.384 68.7711 62.384C76.6431 62.384 82.7871 57.104 82.7871 48.608ZM63.2991 48.608C63.2991 44.048 65.8911 41.936 68.8671 41.936C71.7471 41.936 74.4351 44.048 74.4351 48.608C74.4351 53.12 71.6991 55.28 68.7711 55.28C65.7951 55.28 63.2991 53.12 63.2991 48.608ZM108.022 62H116.182V46.352C116.182 39.152 112.054 34.928 105.862 34.928C102.262 34.928 99.3816 36.512 97.7496 38.768V35.216H89.5416V62H97.7496V47.456C97.7496 43.808 99.7656 41.792 102.886 41.792C106.006 41.792 108.022 43.808 108.022 47.456V62ZM136.093 41.408C138.829 41.408 141.133 43.088 141.133 46.016H130.861C131.341 43.04 133.405 41.408 136.093 41.408ZM148.909 53.12H140.173C139.501 54.56 138.205 55.712 135.901 55.712C133.261 55.712 131.101 54.08 130.813 50.576H149.389C149.485 49.76 149.533 48.944 149.533 48.176C149.533 40.016 144.013 34.832 136.189 34.832C128.221 34.832 122.653 40.112 122.653 48.608C122.653 57.104 128.317 62.384 136.189 62.384C142.861 62.384 147.613 58.352 148.909 53.12Z" fill="#3AAFA9"/>
<path d="M179.583 34.88H188.511V62H196.719V34.88H205.647V28.304H179.583V34.88ZM212.167 62H220.375V47.456C220.375 43.808 222.391 41.792 225.511 41.792C228.631 41.792 230.647 43.808 230.647 47.456V62H238.807V46.352C238.807 39.152 234.727 34.928 228.631 34.928C224.935 34.928 222.007 36.512 220.375 38.816V26.48H212.167V62ZM245.278 48.56C245.278 57.008 250.51 62.384 257.038 62.384C261.022 62.384 263.854 60.56 265.342 58.208V62H273.55V35.216H265.342V39.008C263.902 36.656 261.07 34.832 257.086 34.832C250.51 34.832 245.278 40.112 245.278 48.56ZM265.342 48.608C265.342 52.88 262.606 55.232 259.486 55.232C256.414 55.232 253.63 52.832 253.63 48.56C253.63 44.288 256.414 41.984 259.486 41.984C262.606 41.984 265.342 44.336 265.342 48.608ZM283.185 52.688C283.185 59.648 287.073 62 292.641 62H296.817V55.04H293.889C292.065 55.04 291.393 54.368 291.393 52.784V42.032H296.769V35.216H291.393V28.688H283.185V35.216H279.921V42.032H283.185V52.688ZM323.128 62H333.064L338.632 39.824L344.008 62H353.944L362.728 28.304H353.896L349 52.832L343.24 28.304H334.216L328.216 52.832L323.368 28.304H314.584L323.128 62ZM369.245 62H377.453V35.216H369.245V62ZM373.373 32.432C376.253 32.432 378.221 30.464 378.221 28.016C378.221 25.52 376.253 23.552 373.373 23.552C370.445 23.552 368.477 25.52 368.477 28.016C368.477 30.464 370.445 32.432 373.373 32.432ZM385.801 62H394.009V26.48H385.801V62ZM402.357 62H410.565V26.48H402.357V62ZM431.485 62H439.693V41.744L447.277 62H453.901L461.437 41.792V62H469.645V28.304H459.997L450.637 51.632L441.181 28.304H431.485V62ZM476.316 48.56C476.316 57.008 481.548 62.384 488.076 62.384C492.06 62.384 494.892 60.56 496.38 58.208V62H504.588V35.216H496.38V39.008C494.94 36.656 492.108 34.832 488.124 34.832C481.548 34.832 476.316 40.112 476.316 48.56ZM496.38 48.608C496.38 52.88 493.644 55.232 490.524 55.232C487.452 55.232 484.668 52.832 484.668 48.56C484.668 44.288 487.452 41.984 490.524 41.984C493.644 41.984 496.38 44.336 496.38 48.608ZM512.926 62H521.134V50.768L529.294 62H539.47L528.238 48.656L539.374 35.216H529.246L521.134 46.112V26.48H512.926V62ZM556.806 41.408C559.542 41.408 561.846 43.088 561.846 46.016H551.574C552.054 43.04 554.118 41.408 556.806 41.408ZM569.622 53.12H560.886C560.214 54.56 558.918 55.712 556.614 55.712C553.974 55.712 551.814 54.08 551.526 50.576H570.102C570.198 49.76 570.246 48.944 570.246 48.176C570.246 40.016 564.726 34.832 556.902 34.832C548.934 34.832 543.366 40.112 543.366 48.608C543.366 57.104 549.03 62.384 556.902 62.384C563.574 62.384 568.326 58.352 569.622 53.12ZM598.572 50.864V62H606.78V50.864L618.444 28.304H609.228L602.748 42.416L596.22 28.304H586.908L598.572 50.864ZM650.359 48.608C650.359 40.112 644.311 34.832 636.439 34.832C628.615 34.832 622.519 40.112 622.519 48.608C622.519 57.104 628.471 62.384 636.343 62.384C644.215 62.384 650.359 57.104 650.359 48.608ZM630.871 48.608C630.871 44.048 633.463 41.936 636.439 41.936C639.319 41.936 642.007 44.048 642.007 48.608C642.007 53.12 639.271 55.28 636.343 55.28C633.367 55.28 630.871 53.12 630.871 48.608ZM683.562 35.216H675.354V49.76C675.354 53.408 673.338 55.424 670.17 55.424C667.098 55.424 665.034 53.408 665.034 49.76V35.216H656.874V50.864C656.874 58.016 661.05 62.288 667.242 62.288C670.842 62.288 673.722 60.656 675.354 58.352V62H683.562V35.216ZM700.065 49.568C700.065 44.96 702.321 43.616 706.209 43.616H708.465V34.928C704.865 34.928 701.937 36.848 700.065 39.68V35.216H691.857V62H700.065V49.568ZM21.976 108.304V142H40.936V135.664H30.184V108.304H21.976ZM47.251 142H55.459V115.216H47.251V142ZM51.379 112.432C54.259 112.432 56.227 110.464 56.227 108.016C56.227 105.52 54.259 103.552 51.379 103.552C48.451 103.552 46.483 105.52 46.483 108.016C46.483 110.464 48.451 112.432 51.379 112.432ZM64.6232 142H72.8312V122.032H77.2472V115.216H72.8312V114.976C72.8312 112.144 73.9352 111.184 77.1033 111.376V104.416C68.9432 103.984 64.6232 107.44 64.6232 114.448V115.216H61.6472V122.032H64.6232V142ZM95.3121 121.408C98.0481 121.408 100.352 123.088 100.352 126.016H90.0801C90.5601 123.04 92.6241 121.408 95.3121 121.408ZM108.128 133.12H99.3921C98.7201 134.56 97.4241 135.712 95.1201 135.712C92.4801 135.712 90.3201 134.08 90.0321 130.576H108.608C108.704 129.76 108.752 128.944 108.752 128.176C108.752 120.016 103.232 114.832 95.4081 114.832C87.4401 114.832 81.8721 120.112 81.8721 128.608C81.8721 137.104 87.5361 142.384 95.4081 142.384C102.08 142.384 106.832 138.352 108.128 133.12ZM152.534 131.968C152.534 120.688 135.878 123.328 135.878 117.472C135.878 115.36 137.366 114.352 139.334 114.4C141.542 114.448 143.078 115.744 143.222 117.904H152.102C151.766 111.472 146.822 107.824 139.478 107.824C132.422 107.824 127.19 111.376 127.19 117.76C127.094 129.712 143.942 126.352 143.942 132.592C143.942 134.56 142.406 135.76 140.006 135.76C137.702 135.76 136.07 134.512 135.83 131.92H127.094C127.334 138.736 132.998 142.336 140.246 142.336C148.118 142.336 152.534 137.632 152.534 131.968ZM186.193 128.608C186.193 120.112 180.145 114.832 172.273 114.832C164.449 114.832 158.353 120.112 158.353 128.608C158.353 137.104 164.305 142.384 172.177 142.384C180.049 142.384 186.193 137.104 186.193 128.608ZM166.705 128.608C166.705 124.048 169.297 121.936 172.273 121.936C175.153 121.936 177.841 124.048 177.841 128.608C177.841 133.12 175.105 135.28 172.177 135.28C169.201 135.28 166.705 133.12 166.705 128.608ZM205.52 142H213.728V121.744L221.312 142H227.936L235.472 121.792V142H243.68V108.304H234.032L224.672 131.632L215.216 108.304H205.52V142ZM278.43 115.216H270.222V129.76C270.222 133.408 268.206 135.424 265.038 135.424C261.966 135.424 259.902 133.408 259.902 129.76V115.216H251.742V130.864C251.742 138.016 255.918 142.288 262.11 142.288C265.71 142.288 268.59 140.656 270.222 138.352V142H278.43V115.216ZM285.094 128.608C285.094 137.104 290.662 142.384 298.534 142.384C305.254 142.384 310.006 138.496 311.398 132.304H302.662C301.942 134.272 300.646 135.376 298.39 135.376C295.462 135.376 293.446 133.072 293.446 128.608C293.446 124.144 295.462 121.84 298.39 121.84C300.646 121.84 301.99 123.04 302.662 124.912H311.398C310.006 118.528 305.254 114.832 298.534 114.832C290.662 114.832 285.094 120.16 285.094 128.608ZM318.188 142H326.396V127.456C326.396 123.808 328.412 121.792 331.532 121.792C334.652 121.792 336.668 123.808 336.668 127.456V142H344.828V126.352C344.828 119.152 340.748 114.928 334.652 114.928C330.956 114.928 328.028 116.512 326.396 118.816V106.48H318.188V142ZM386.144 108.304H365.504V142H386.144V135.424H373.712V128.032H384.704V121.696H373.712V114.88H386.144V108.304ZM392.241 128.56C392.241 137.008 397.473 142.384 404.001 142.384C407.985 142.384 410.817 140.56 412.305 138.208V142H420.513V115.216H412.305V119.008C410.865 116.656 408.033 114.832 404.049 114.832C397.473 114.832 392.241 120.112 392.241 128.56ZM412.305 128.608C412.305 132.88 409.569 135.232 406.449 135.232C403.377 135.232 400.593 132.832 400.593 128.56C400.593 124.288 403.377 121.984 406.449 121.984C409.569 121.984 412.305 124.336 412.305 128.608ZM450.595 134.224C450.451 124.24 435.955 127.264 435.955 122.992C435.955 121.696 437.011 120.928 438.931 120.928C441.235 120.928 442.627 122.128 442.867 123.952H450.451C449.923 118.672 446.083 114.832 439.171 114.832C432.163 114.832 428.275 118.576 428.275 123.136C428.275 132.976 442.867 129.856 442.867 134.176C442.867 135.376 441.763 136.336 439.651 136.336C437.395 136.336 435.715 135.088 435.523 133.216H427.411C427.795 138.4 432.595 142.384 439.747 142.384C446.467 142.384 450.595 138.88 450.595 134.224ZM458.017 142H466.225V115.216H458.017V142ZM462.145 112.432C465.025 112.432 466.993 110.464 466.993 108.016C466.993 105.52 465.025 103.552 462.145 103.552C459.217 103.552 457.249 105.52 457.249 108.016C457.249 110.464 459.217 112.432 462.145 112.432ZM486.381 121.408C489.117 121.408 491.421 123.088 491.421 126.016H481.149C481.629 123.04 483.693 121.408 486.381 121.408ZM499.197 133.12H490.461C489.789 134.56 488.493 135.712 486.189 135.712C483.549 135.712 481.389 134.08 481.101 130.576H499.677C499.773 129.76 499.821 128.944 499.821 128.176C499.821 120.016 494.301 114.832 486.477 114.832C478.509 114.832 472.941 120.112 472.941 128.608C472.941 137.104 478.605 142.384 486.477 142.384C493.149 142.384 497.901 138.352 499.197 133.12ZM514.759 129.568C514.759 124.96 517.015 123.616 520.903 123.616H523.159V114.928C519.559 114.928 516.631 116.848 514.759 119.68V115.216H506.551V142H514.759V129.568Z" fill="#242323"/>
<path d="M24.54 184.06V198H31.24V196.52H26.36V184.06H24.54ZM43.5728 192.5C43.5728 189.04 41.1528 186.86 38.0328 186.86C34.9328 186.86 32.4928 189.04 32.4928 192.5C32.4928 195.98 34.8528 198.18 37.9528 198.18C41.0728 198.18 43.5728 195.98 43.5728 192.5ZM34.3528 192.5C34.3528 189.74 36.0928 188.44 38.0128 188.44C39.8928 188.44 41.7128 189.74 41.7128 192.5C41.7128 195.28 39.8528 196.58 37.9528 196.58C36.0528 196.58 34.3528 195.28 34.3528 192.5ZM47.7858 192.04C47.7858 189.5 49.1058 188.72 50.8458 188.72H51.3258V186.84C49.5858 186.84 48.4058 187.6 47.7858 188.82V187.04H45.9658V198H47.7858V192.04ZM58.0867 188.4C59.9667 188.4 61.5667 189.58 61.5467 191.72H54.6267C54.8267 189.58 56.3067 188.4 58.0867 188.4ZM63.2067 194.62H61.2467C60.8467 195.8 59.8067 196.64 58.1667 196.64C56.3067 196.64 54.7467 195.42 54.6067 193.2H63.3667C63.4067 192.82 63.4267 192.5 63.4267 192.1C63.4267 189.1 61.3467 186.86 58.1667 186.86C54.9667 186.86 52.7467 189.04 52.7467 192.5C52.7467 195.98 55.0467 198.18 58.1667 198.18C60.8867 198.18 62.6467 196.62 63.2067 194.62ZM81.6491 198H83.4491V191.54C83.4491 188.4 81.5091 186.84 79.0091 186.84C77.3291 186.84 75.7691 187.7 75.1291 189.28C74.4091 187.64 72.9091 186.84 71.1091 186.84C69.6691 186.84 68.3691 187.46 67.6491 188.62V187.04H65.8291V198H67.6491V191.96C67.6491 189.6 68.9091 188.42 70.7491 188.42C72.5491 188.42 73.7491 189.56 73.7491 191.8V198H75.5491V191.96C75.5491 189.6 76.8091 188.42 78.6491 188.42C80.4491 188.42 81.6491 189.56 81.6491 191.8V198ZM91.7666 198H93.5866V187.04H91.7666V198ZM92.7066 185.26C93.3666 185.26 93.9066 184.72 93.9066 184.02C93.9066 183.32 93.3666 182.78 92.7066 182.78C92.0066 182.78 91.4666 183.32 91.4666 184.02C91.4666 184.72 92.0066 185.26 92.7066 185.26ZM98.5084 189.06V187.04H96.6884V203.2H98.5084V195.98C99.1884 197.1 100.608 198.18 102.608 198.18C105.548 198.18 107.808 195.88 107.808 192.48C107.808 189.06 105.548 186.86 102.608 186.86C100.608 186.86 99.1684 187.9 98.5084 189.06ZM105.948 192.48C105.948 195.06 104.248 196.58 102.228 196.58C100.248 196.58 98.5084 195.08 98.5084 192.5C98.5084 189.96 100.248 188.44 102.228 188.44C104.248 188.44 105.948 189.9 105.948 192.48ZM118.084 195.02C118.004 191.1 111.644 192.52 111.644 189.92C111.644 189.04 112.444 188.4 113.784 188.4C115.244 188.4 116.084 189.2 116.164 190.3H117.984C117.864 188.16 116.264 186.86 113.844 186.86C111.404 186.86 109.824 188.24 109.824 189.92C109.824 194 116.304 192.58 116.304 195.02C116.304 195.92 115.504 196.64 114.064 196.64C112.524 196.64 111.584 195.84 111.484 194.78H109.604C109.724 196.78 111.524 198.18 114.084 198.18C116.504 198.18 118.084 196.82 118.084 195.02ZM130.373 187.04H128.553V193.06C128.553 195.42 127.293 196.58 125.413 196.58C123.573 196.58 122.353 195.44 122.353 193.22V187.04H120.553V193.46C120.553 196.6 122.533 198.16 125.053 198.16C126.513 198.16 127.853 197.52 128.553 196.38V198H130.373V187.04ZM149.266 198H151.066V191.54C151.066 188.4 149.126 186.84 146.626 186.84C144.946 186.84 143.386 187.7 142.746 189.28C142.026 187.64 140.526 186.84 138.726 186.84C137.286 186.84 135.986 187.46 135.266 188.62V187.04H133.446V198H135.266V191.96C135.266 189.6 136.526 188.42 138.366 188.42C140.166 188.42 141.366 189.56 141.366 191.8V198H143.166V191.96C143.166 189.6 144.426 188.42 146.266 188.42C148.066 188.42 149.266 189.56 149.266 191.8V198ZM158.704 192.48C158.704 195.88 160.964 198.18 163.904 198.18C165.904 198.18 167.324 197.16 167.984 195.94V198H169.824V183.2H167.984V189C167.224 187.74 165.644 186.86 163.924 186.86C160.964 186.86 158.704 189.06 158.704 192.48ZM167.984 192.5C167.984 195.08 166.264 196.58 164.264 196.58C162.264 196.58 160.564 195.06 160.564 192.48C160.564 189.9 162.264 188.44 164.264 188.44C166.264 188.44 167.984 189.96 167.984 192.5ZM183.299 192.5C183.299 189.04 180.879 186.86 177.759 186.86C174.659 186.86 172.219 189.04 172.219 192.5C172.219 195.98 174.579 198.18 177.679 198.18C180.799 198.18 183.299 195.98 183.299 192.5ZM174.079 192.5C174.079 189.74 175.819 188.44 177.739 188.44C179.619 188.44 181.439 189.74 181.439 192.5C181.439 195.28 179.579 196.58 177.679 196.58C175.779 196.58 174.079 195.28 174.079 192.5ZM185.692 198H187.512V183.2H185.692V198ZM201.014 192.5C201.014 189.04 198.594 186.86 195.474 186.86C192.374 186.86 189.934 189.04 189.934 192.5C189.934 195.98 192.294 198.18 195.394 198.18C198.514 198.18 201.014 195.98 201.014 192.5ZM191.794 192.5C191.794 189.74 193.534 188.44 195.454 188.44C197.334 188.44 199.154 189.74 199.154 192.5C199.154 195.28 197.294 196.58 195.394 196.58C193.494 196.58 191.794 195.28 191.794 192.5ZM205.227 192.04C205.227 189.5 206.547 188.72 208.287 188.72H208.767V186.84C207.027 186.84 205.847 187.6 205.227 188.82V187.04H203.407V198H205.227V192.04ZM224.08 195.02C224 191.1 217.64 192.52 217.64 189.92C217.64 189.04 218.44 188.4 219.78 188.4C221.24 188.4 222.08 189.2 222.16 190.3H223.98C223.86 188.16 222.26 186.86 219.84 186.86C217.4 186.86 215.82 188.24 215.82 189.92C215.82 194 222.3 192.58 222.3 195.02C222.3 195.92 221.5 196.64 220.06 196.64C218.52 196.64 217.58 195.84 217.48 194.78H215.6C215.72 196.78 217.52 198.18 220.08 198.18C222.5 198.18 224.08 196.82 224.08 195.02ZM226.649 198H228.469V187.04H226.649V198ZM227.589 185.26C228.249 185.26 228.789 184.72 228.789 184.02C228.789 183.32 228.249 182.78 227.589 182.78C226.889 182.78 226.349 183.32 226.349 184.02C226.349 184.72 226.889 185.26 227.589 185.26ZM231.971 195C231.971 197.2 233.071 198 235.011 198H236.651V196.46H235.311C234.191 196.46 233.791 196.08 233.791 195V188.54H236.651V187.04H233.791V184.28H231.971V187.04H230.551V188.54H231.971V195ZM243.508 192.48C243.508 195.88 245.768 198.18 248.688 198.18C250.708 198.18 252.128 197.14 252.788 195.96V198H254.628V187.04H252.788V189.04C252.148 187.9 250.748 186.86 248.708 186.86C245.768 186.86 243.508 189.06 243.508 192.48ZM252.788 192.5C252.788 195.08 251.068 196.58 249.068 196.58C247.068 196.58 245.368 195.06 245.368 192.48C245.368 189.9 247.068 188.44 249.068 188.44C251.068 188.44 252.788 189.96 252.788 192.5ZM273.524 198H275.324V191.54C275.324 188.4 273.384 186.84 270.884 186.84C269.204 186.84 267.644 187.7 267.004 189.28C266.284 187.64 264.784 186.84 262.984 186.84C261.544 186.84 260.244 187.46 259.524 188.62V187.04H257.704V198H259.524V191.96C259.524 189.6 260.784 188.42 262.624 188.42C264.424 188.42 265.624 189.56 265.624 191.8V198H267.424V191.96C267.424 189.6 268.684 188.42 270.524 188.42C272.324 188.42 273.524 189.56 273.524 191.8V198ZM282.97 188.4C284.85 188.4 286.45 189.58 286.43 191.72H279.51C279.71 189.58 281.19 188.4 282.97 188.4ZM288.09 194.62H286.13C285.73 195.8 284.69 196.64 283.05 196.64C281.19 196.64 279.63 195.42 279.49 193.2H288.25C288.29 192.82 288.31 192.5 288.31 192.1C288.31 189.1 286.23 186.86 283.05 186.86C279.85 186.86 277.63 189.04 277.63 192.5C277.63 195.98 279.93 198.18 283.05 198.18C285.77 198.18 287.53 196.62 288.09 194.62ZM291.112 195C291.112 197.2 292.212 198 294.152 198H295.792V196.46H294.452C293.332 196.46 292.932 196.08 292.932 195V188.54H295.792V187.04H292.932V184.28H291.112V187.04H289.692V188.54H291.112V195ZM302.649 192.5C302.649 195.98 304.869 198.18 307.989 198.18C310.709 198.18 312.489 196.66 313.049 194.48H311.089C310.689 195.86 309.609 196.64 307.989 196.64C305.989 196.64 304.509 195.22 304.509 192.5C304.509 189.82 305.989 188.4 307.989 188.4C309.609 188.4 310.709 189.24 311.089 190.56H313.049C312.489 188.26 310.709 186.86 307.989 186.86C304.869 186.86 302.649 189.06 302.649 192.5ZM325.878 192.5C325.878 189.04 323.458 186.86 320.338 186.86C317.238 186.86 314.798 189.04 314.798 192.5C314.798 195.98 317.158 198.18 320.258 198.18C323.378 198.18 325.878 195.98 325.878 192.5ZM316.658 192.5C316.658 189.74 318.398 188.44 320.318 188.44C322.198 188.44 324.018 189.74 324.018 192.5C324.018 195.28 322.158 196.58 320.258 196.58C318.358 196.58 316.658 195.28 316.658 192.5ZM336.29 198H338.09V191.54C338.09 188.4 336.15 186.84 333.61 186.84C332.13 186.84 330.81 187.46 330.09 188.6V187.04H328.27V198H330.09V191.94C330.09 189.58 331.37 188.42 333.23 188.42C335.07 188.42 336.29 189.56 336.29 191.8V198ZM348.943 195.02C348.863 191.1 342.503 192.52 342.503 189.92C342.503 189.04 343.303 188.4 344.643 188.4C346.103 188.4 346.943 189.2 347.023 190.3H348.843C348.723 188.16 347.123 186.86 344.703 186.86C342.263 186.86 340.683 188.24 340.683 189.92C340.683 194 347.163 192.58 347.163 195.02C347.163 195.92 346.363 196.64 344.923 196.64C343.383 196.64 342.443 195.84 342.343 194.78H340.463C340.583 196.78 342.383 198.18 344.943 198.18C347.363 198.18 348.943 196.82 348.943 195.02ZM356.173 188.4C358.053 188.4 359.653 189.58 359.633 191.72H352.713C352.913 189.58 354.393 188.4 356.173 188.4ZM361.293 194.62H359.333C358.933 195.8 357.893 196.64 356.253 196.64C354.393 196.64 352.833 195.42 352.693 193.2H361.453C361.493 192.82 361.513 192.5 361.513 192.1C361.513 189.1 359.433 186.86 356.253 186.86C353.053 186.86 350.833 189.04 350.833 192.5C350.833 195.98 353.133 198.18 356.253 198.18C358.973 198.18 360.733 196.62 361.293 194.62ZM363.235 192.5C363.235 195.98 365.455 198.18 368.575 198.18C371.295 198.18 373.075 196.66 373.635 194.48H371.675C371.275 195.86 370.195 196.64 368.575 196.64C366.575 196.64 365.095 195.22 365.095 192.5C365.095 189.82 366.575 188.4 368.575 188.4C370.195 188.4 371.295 189.24 371.675 190.56H373.635C373.075 188.26 371.295 186.86 368.575 186.86C365.455 186.86 363.235 189.06 363.235 192.5ZM376.463 195C376.463 197.2 377.563 198 379.503 198H381.143V196.46H379.803C378.683 196.46 378.283 196.08 378.283 195V188.54H381.143V187.04H378.283V184.28H376.463V187.04H375.043V188.54H376.463V195ZM388.009 188.4C389.889 188.4 391.489 189.58 391.469 191.72H384.549C384.749 189.58 386.229 188.4 388.009 188.4ZM393.129 194.62H391.169C390.769 195.8 389.729 196.64 388.089 196.64C386.229 196.64 384.669 195.42 384.529 193.2H393.289C393.329 192.82 393.349 192.5 393.349 192.1C393.349 189.1 391.269 186.86 388.089 186.86C384.889 186.86 382.669 189.04 382.669 192.5C382.669 195.98 384.969 198.18 388.089 198.18C390.809 198.18 392.569 196.62 393.129 194.62ZM396.151 195C396.151 197.2 397.251 198 399.191 198H400.831V196.46H399.491C398.371 196.46 397.971 196.08 397.971 195V188.54H400.831V187.04H397.971V184.28H396.151V187.04H394.731V188.54H396.151V195ZM412.756 187.04H410.936V193.06C410.936 195.42 409.676 196.58 407.796 196.58C405.956 196.58 404.736 195.44 404.736 193.22V187.04H402.936V193.46C402.936 196.6 404.916 198.16 407.436 198.16C408.896 198.16 410.236 197.52 410.936 196.38V198H412.756V187.04ZM417.649 192.04C417.649 189.5 418.969 188.72 420.709 188.72H421.189V186.84C419.449 186.84 418.269 187.6 417.649 188.82V187.04H415.829V198H417.649V192.04ZM425.07 196.88C425.07 196.18 424.53 195.64 423.87 195.64C423.17 195.64 422.63 196.18 422.63 196.88C422.63 197.58 423.17 198.12 423.87 198.12C424.53 198.12 425.07 197.58 425.07 196.88ZM438.041 196.08L433.661 184.06H431.721L436.981 198H439.081L444.341 184.06H442.421L438.041 196.08ZM446.337 198H448.157V187.04H446.337V198ZM447.277 185.26C447.937 185.26 448.477 184.72 448.477 184.02C448.477 183.32 447.937 182.78 447.277 182.78C446.577 182.78 446.037 183.32 446.037 184.02C446.037 184.72 446.577 185.26 447.277 185.26ZM449.959 187.04L454.259 198H456.379L460.679 187.04H458.739L455.339 196.32L451.919 187.04H449.959ZM467.13 188.4C469.01 188.4 470.61 189.58 470.59 191.72H463.67C463.87 189.58 465.35 188.4 467.13 188.4ZM472.25 194.62H470.29C469.89 195.8 468.85 196.64 467.21 196.64C465.35 196.64 463.79 195.42 463.65 193.2H472.41C472.45 192.82 472.47 192.5 472.47 192.1C472.47 189.1 470.39 186.86 467.21 186.86C464.01 186.86 461.79 189.04 461.79 192.5C461.79 195.98 464.09 198.18 467.21 198.18C469.93 198.18 471.69 196.62 472.25 194.62ZM476.692 192.04C476.692 189.5 478.012 188.72 479.752 188.72H480.232V186.84C478.492 186.84 477.312 187.6 476.692 188.82V187.04H474.872V198H476.692V192.04ZM484.153 192.04C484.153 189.5 485.473 188.72 487.213 188.72H487.693V186.84C485.953 186.84 484.773 187.6 484.153 188.82V187.04H482.333V198H484.153V192.04ZM489.114 192.48C489.114 195.88 491.374 198.18 494.294 198.18C496.314 198.18 497.734 197.14 498.394 195.96V198H500.234V187.04H498.394V189.04C497.754 187.9 496.354 186.86 494.314 186.86C491.374 186.86 489.114 189.06 489.114 192.48ZM498.394 192.5C498.394 195.08 496.674 196.58 494.674 196.58C492.674 196.58 490.974 195.06 490.974 192.48C490.974 189.9 492.674 188.44 494.674 188.44C496.674 188.44 498.394 189.96 498.394 192.5ZM509.042 195C509.042 197.2 510.142 198 512.082 198H513.722V196.46H512.382C511.262 196.46 510.862 196.08 510.862 195V188.54H513.722V187.04H510.862V184.28H509.042V187.04H507.622V188.54H509.042V195ZM526.327 192.5C526.327 189.04 523.907 186.86 520.787 186.86C517.687 186.86 515.247 189.04 515.247 192.5C515.247 195.98 517.607 198.18 520.707 198.18C523.827 198.18 526.327 195.98 526.327 192.5ZM517.107 192.5C517.107 189.74 518.847 188.44 520.767 188.44C522.647 188.44 524.467 189.74 524.467 192.5C524.467 195.28 522.607 196.58 520.707 196.58C518.807 196.58 517.107 195.28 517.107 192.5ZM530.54 192.04C530.54 189.5 531.86 188.72 533.6 188.72H534.08V186.84C532.34 186.84 531.16 187.6 530.54 188.82V187.04H528.72V198H530.54V192.04ZM536.581 195C536.581 197.2 537.681 198 539.621 198H541.261V196.46H539.921C538.801 196.46 538.401 196.08 538.401 195V188.54H541.261V187.04H538.401V184.28H536.581V187.04H535.161V188.54H536.581V195ZM553.866 192.5C553.866 189.04 551.446 186.86 548.326 186.86C545.226 186.86 542.786 189.04 542.786 192.5C542.786 195.98 545.146 198.18 548.246 198.18C551.366 198.18 553.866 195.98 553.866 192.5ZM544.646 192.5C544.646 189.74 546.386 188.44 548.306 188.44C550.186 188.44 552.006 189.74 552.006 192.5C552.006 195.28 550.146 196.58 548.246 196.58C546.346 196.58 544.646 195.28 544.646 192.5ZM558.079 192.04C558.079 189.5 559.399 188.72 561.139 188.72H561.619V186.84C559.879 186.84 558.699 187.6 558.079 188.82V187.04H556.259V198H558.079V192.04ZM573.712 188.4C575.592 188.4 577.192 189.58 577.172 191.72H570.252C570.452 189.58 571.932 188.4 573.712 188.4ZM578.832 194.62H576.872C576.472 195.8 575.432 196.64 573.792 196.64C571.932 196.64 570.372 195.42 570.232 193.2H578.992C579.032 192.82 579.052 192.5 579.052 192.1C579.052 189.1 576.972 186.86 573.792 186.86C570.592 186.86 568.372 189.04 568.372 192.5C568.372 195.98 570.672 198.18 573.792 198.18C576.512 198.18 578.272 196.62 578.832 194.62ZM581.454 198H583.274V183.2H581.454V198ZM591.036 188.4C592.916 188.4 594.516 189.58 594.496 191.72H587.576C587.776 189.58 589.256 188.4 591.036 188.4ZM596.156 194.62H594.196C593.796 195.8 592.756 196.64 591.116 196.64C589.256 196.64 587.696 195.42 587.556 193.2H596.316C596.356 192.82 596.376 192.5 596.376 192.1C596.376 189.1 594.296 186.86 591.116 186.86C587.916 186.86 585.696 189.04 585.696 192.5C585.696 195.98 587.996 198.18 591.116 198.18C593.836 198.18 595.596 196.62 596.156 194.62ZM598.778 198H600.598V187.04H598.778V198ZM599.718 185.26C600.378 185.26 600.918 184.72 600.918 184.02C600.918 183.32 600.378 182.78 599.718 182.78C599.018 182.78 598.478 183.32 598.478 184.02C598.478 184.72 599.018 185.26 599.718 185.26ZM604.04 198H605.86V188.54H608.16V187.04H605.86V186.26C605.86 184.84 606.4 184.24 608.04 184.24V182.72C605.24 182.72 604.04 183.82 604.04 186.26V187.04H602.62V188.54H604.04V198ZM614.942 188.4C616.822 188.4 618.422 189.58 618.402 191.72H611.482C611.682 189.58 613.162 188.4 614.942 188.4ZM620.062 194.62H618.102C617.702 195.8 616.662 196.64 615.022 196.64C613.162 196.64 611.602 195.42 611.462 193.2H620.222C620.262 192.82 620.282 192.5 620.282 192.1C620.282 189.1 618.202 186.86 615.022 186.86C611.822 186.86 609.602 189.04 609.602 192.5C609.602 195.98 611.902 198.18 615.022 198.18C617.742 198.18 619.502 196.62 620.062 194.62ZM630.705 198H632.505V191.54C632.505 188.4 630.565 186.84 628.025 186.84C626.545 186.84 625.225 187.46 624.505 188.6V187.04H622.685V198H624.505V191.94C624.505 189.58 625.785 188.42 627.645 188.42C629.485 188.42 630.705 189.56 630.705 191.8V198ZM634.798 192.48C634.798 195.88 637.058 198.18 639.998 198.18C641.998 198.18 643.418 197.16 644.078 195.94V198H645.918V183.2H644.078V189C643.318 187.74 641.738 186.86 640.018 186.86C637.058 186.86 634.798 189.06 634.798 192.48ZM644.078 192.5C644.078 195.08 642.358 196.58 640.358 196.58C638.358 196.58 636.658 195.06 636.658 192.48C636.658 189.9 638.358 188.44 640.358 188.44C642.358 188.44 644.078 189.96 644.078 192.5ZM29.2 223.4C31.08 223.4 32.68 224.58 32.66 226.72H25.74C25.94 224.58 27.42 223.4 29.2 223.4ZM34.32 229.62H32.36C31.96 230.8 30.92 231.64 29.28 231.64C27.42 231.64 25.86 230.42 25.72 228.2H34.48C34.52 227.82 34.54 227.5 34.54 227.1C34.54 224.1 32.46 221.86 29.28 221.86C26.08 221.86 23.86 224.04 23.86 227.5C23.86 230.98 26.16 233.18 29.28 233.18C32 233.18 33.76 231.62 34.32 229.62ZM36.2623 227.48C36.2623 230.88 38.5223 233.18 41.4623 233.18C43.4623 233.18 44.8823 232.12 45.5423 230.94V233.24C45.5423 235.58 44.0823 236.82 42.1423 236.82C40.3423 236.82 39.0423 235.92 38.6423 234.6H36.8423C37.2023 236.94 39.2623 238.4 42.1423 238.4C45.3623 238.4 47.3823 236.26 47.3823 233.24V222.04H45.5423V224.04C44.9023 222.86 43.4623 221.86 41.4623 221.86C38.5223 221.86 36.2623 224.06 36.2623 227.48ZM45.5423 227.5C45.5423 230.08 43.8223 231.58 41.8223 231.58C39.8223 231.58 38.1223 230.06 38.1223 227.48C38.1223 224.9 39.8223 223.44 41.8223 223.44C43.8223 223.44 45.5423 224.96 45.5423 227.5ZM55.118 223.4C56.998 223.4 58.598 224.58 58.578 226.72H51.658C51.858 224.58 53.338 223.4 55.118 223.4ZM60.238 229.62H58.278C57.878 230.8 56.838 231.64 55.198 231.64C53.338 231.64 51.778 230.42 51.638 228.2H60.398C60.438 227.82 60.458 227.5 60.458 227.1C60.458 224.1 58.378 221.86 55.198 221.86C51.998 221.86 49.778 224.04 49.778 227.5C49.778 230.98 52.078 233.18 55.198 233.18C57.918 233.18 59.678 231.62 60.238 229.62ZM63.2603 230C63.2603 232.2 64.3603 233 66.3003 233H67.9403V231.46H66.6003C65.4803 231.46 65.0803 231.08 65.0803 230V223.54H67.9403V222.04H65.0803V219.28H63.2603V222.04H61.8403V223.54H63.2603V230ZM74.7975 227.48C74.7975 230.88 77.0575 233.18 79.9575 233.18C81.9975 233.18 83.4575 232.1 84.0775 230.98V238.2H85.9175V222.04H84.0775V224.04C83.4575 222.9 82.0175 221.86 80.0175 221.86C77.0575 221.86 74.7975 224.06 74.7975 227.48ZM84.0775 227.5C84.0775 230.08 82.3575 231.58 80.3575 231.58C78.3575 231.58 76.6575 230.06 76.6575 227.48C76.6575 224.9 78.3575 223.44 80.3575 223.44C82.3575 223.44 84.0775 224.96 84.0775 227.5ZM98.7131 222.04H96.8931V228.06C96.8931 230.42 95.6331 231.58 93.7531 231.58C91.9131 231.58 90.6931 230.44 90.6931 228.22V222.04H88.8931V228.46C88.8931 231.6 90.8731 233.16 93.3931 233.16C94.8531 233.16 96.1931 232.52 96.8931 231.38V233H98.7131V222.04ZM101.106 227.48C101.106 230.88 103.366 233.18 106.286 233.18C108.306 233.18 109.726 232.14 110.386 230.96V233H112.226V222.04H110.386V224.04C109.746 222.9 108.346 221.86 106.306 221.86C103.366 221.86 101.106 224.06 101.106 227.48ZM110.386 227.5C110.386 230.08 108.666 231.58 106.666 231.58C104.666 231.58 102.966 230.06 102.966 227.48C102.966 224.9 104.666 223.44 106.666 223.44C108.666 223.44 110.386 224.96 110.386 227.5ZM131.122 233H132.922V226.54C132.922 223.4 130.982 221.84 128.482 221.84C126.802 221.84 125.242 222.7 124.602 224.28C123.882 222.64 122.382 221.84 120.582 221.84C119.142 221.84 117.842 222.46 117.122 223.62V222.04H115.302V233H117.122V226.96C117.122 224.6 118.382 223.42 120.222 223.42C122.022 223.42 123.222 224.56 123.222 226.8V233H125.022V226.96C125.022 224.6 126.282 223.42 128.122 223.42C129.922 223.42 131.122 224.56 131.122 226.8V233ZM149.259 233H151.059V226.54C151.059 223.4 149.119 221.84 146.579 221.84C145.099 221.84 143.779 222.46 143.059 223.6V222.04H141.239V233H143.059V226.94C143.059 224.58 144.339 223.42 146.199 223.42C148.039 223.42 149.259 224.56 149.259 226.8V233ZM158.692 223.4C160.572 223.4 162.172 224.58 162.152 226.72H155.232C155.432 224.58 156.912 223.4 158.692 223.4ZM163.812 229.62H161.852C161.452 230.8 160.412 231.64 158.772 231.64C156.912 231.64 155.352 230.42 155.212 228.2H163.972C164.012 227.82 164.032 227.5 164.032 227.1C164.032 224.1 161.952 221.86 158.772 221.86C155.572 221.86 153.352 224.04 153.352 227.5C153.352 230.98 155.652 233.18 158.772 233.18C161.492 233.18 163.252 231.62 163.812 229.62ZM165.755 227.48C165.755 230.88 168.015 233.18 170.915 233.18C172.955 233.18 174.415 232.1 175.035 230.98V238.2H176.875V222.04H175.035V224.04C174.415 222.9 172.975 221.86 170.975 221.86C168.015 221.86 165.755 224.06 165.755 227.48ZM175.035 227.5C175.035 230.08 173.315 231.58 171.315 231.58C169.315 231.58 167.615 230.06 167.615 227.48C167.615 224.9 169.315 223.44 171.315 223.44C173.315 223.44 175.035 224.96 175.035 227.5ZM189.67 222.04H187.85V228.06C187.85 230.42 186.59 231.58 184.71 231.58C182.87 231.58 181.65 230.44 181.65 228.22V222.04H179.85V228.46C179.85 231.6 181.83 233.16 184.35 233.16C185.81 233.16 187.15 232.52 187.85 231.38V233H189.67V222.04ZM197.403 223.4C199.283 223.4 200.883 224.58 200.863 226.72H193.943C194.143 224.58 195.623 223.4 197.403 223.4ZM202.523 229.62H200.563C200.163 230.8 199.123 231.64 197.483 231.64C195.623 231.64 194.063 230.42 193.923 228.2H202.683C202.723 227.82 202.743 227.5 202.743 227.1C202.743 224.1 200.663 221.86 197.483 221.86C194.283 221.86 192.063 224.04 192.063 227.5C192.063 230.98 194.363 233.18 197.483 233.18C200.203 233.18 201.963 231.62 202.523 229.62ZM226.298 233H228.098V226.54C228.098 223.4 226.158 221.84 223.658 221.84C221.978 221.84 220.418 222.7 219.778 224.28C219.058 222.64 217.558 221.84 215.758 221.84C214.318 221.84 213.018 222.46 212.298 223.62V222.04H210.478V233H212.298V226.96C212.298 224.6 213.558 223.42 215.398 223.42C217.198 223.42 218.398 224.56 218.398 226.8V233H220.198V226.96C220.198 224.6 221.458 223.42 223.298 223.42C225.098 223.42 226.298 224.56 226.298 226.8V233ZM230.403 227.48C230.403 230.88 232.663 233.18 235.583 233.18C237.603 233.18 239.023 232.14 239.683 230.96V233H241.523V222.04H239.683V224.04C239.043 222.9 237.643 221.86 235.603 221.86C232.663 221.86 230.403 224.06 230.403 227.48ZM239.683 227.5C239.683 230.08 237.963 231.58 235.963 231.58C233.963 231.58 232.263 230.06 232.263 227.48C232.263 224.9 233.963 223.44 235.963 223.44C237.963 223.44 239.683 224.96 239.683 227.5ZM244.599 233H246.419V218.2H244.599V233ZM254.18 223.4C256.06 223.4 257.66 224.58 257.64 226.72H250.72C250.92 224.58 252.4 223.4 254.18 223.4ZM259.3 229.62H257.34C256.94 230.8 255.9 231.64 254.26 231.64C252.4 231.64 250.84 230.42 250.7 228.2H259.46C259.5 227.82 259.52 227.5 259.52 227.1C259.52 224.1 257.44 221.86 254.26 221.86C251.06 221.86 248.84 224.04 248.84 227.5C248.84 230.98 251.14 233.18 254.26 233.18C256.98 233.18 258.74 231.62 259.3 229.62ZM269.803 230.02C269.723 226.1 263.363 227.52 263.363 224.92C263.363 224.04 264.163 223.4 265.503 223.4C266.963 223.4 267.803 224.2 267.883 225.3H269.703C269.583 223.16 267.983 221.86 265.563 221.86C263.123 221.86 261.543 223.24 261.543 224.92C261.543 229 268.023 227.58 268.023 230.02C268.023 230.92 267.223 231.64 265.783 231.64C264.243 231.64 263.303 230.84 263.203 229.78H261.323C261.443 231.78 263.243 233.18 265.803 233.18C268.223 233.18 269.803 231.82 269.803 230.02ZM282.092 222.04H280.272V228.06C280.272 230.42 279.012 231.58 277.132 231.58C275.292 231.58 274.072 230.44 274.072 228.22V222.04H272.272V228.46C272.272 231.6 274.252 233.16 276.772 233.16C278.232 233.16 279.572 232.52 280.272 231.38V233H282.092V222.04ZM284.485 227.48C284.485 230.88 286.745 233.18 289.665 233.18C291.685 233.18 293.105 232.14 293.765 230.96V233H295.605V222.04H293.765V224.04C293.125 222.9 291.725 221.86 289.685 221.86C286.745 221.86 284.485 224.06 284.485 227.48ZM293.765 227.5C293.765 230.08 292.045 231.58 290.045 231.58C288.045 231.58 286.345 230.06 286.345 227.48C286.345 224.9 288.045 223.44 290.045 223.44C292.045 223.44 293.765 224.96 293.765 227.5ZM298.001 227.48C298.001 230.88 300.261 233.18 303.201 233.18C305.201 233.18 306.621 232.16 307.281 230.94V233H309.121V218.2H307.281V224C306.521 222.74 304.941 221.86 303.221 221.86C300.261 221.86 298.001 224.06 298.001 227.48ZM307.281 227.5C307.281 230.08 305.561 231.58 303.561 231.58C301.561 231.58 299.861 230.06 299.861 227.48C299.861 224.9 301.561 223.44 303.561 223.44C305.561 223.44 307.281 224.96 307.281 227.5ZM311.516 227.48C311.516 230.88 313.776 233.18 316.696 233.18C318.716 233.18 320.136 232.14 320.796 230.96V233H322.636V222.04H320.796V224.04C320.156 222.9 318.756 221.86 316.716 221.86C313.776 221.86 311.516 224.06 311.516 227.48ZM320.796 227.5C320.796 230.08 319.076 231.58 317.076 231.58C315.076 231.58 313.376 230.06 313.376 227.48C313.376 224.9 315.076 223.44 317.076 223.44C319.076 223.44 320.796 224.96 320.796 227.5ZM331.044 233H332.864V222.04H331.044V233ZM331.984 220.26C332.644 220.26 333.184 219.72 333.184 219.02C333.184 218.32 332.644 217.78 331.984 217.78C331.284 217.78 330.744 218.32 330.744 219.02C330.744 219.72 331.284 220.26 331.984 220.26ZM343.986 233H345.786V226.54C345.786 223.4 343.846 221.84 341.306 221.84C339.826 221.84 338.506 222.46 337.786 223.6V222.04H335.966V233H337.786V226.94C337.786 224.58 339.066 223.42 340.926 223.42C342.766 223.42 343.986 224.56 343.986 226.8V233ZM349.159 230C349.159 232.2 350.259 233 352.199 233H353.839V231.46H352.499C351.379 231.46 350.979 231.08 350.979 230V223.54H353.839V222.04H350.979V219.28H349.159V222.04H347.739V223.54H349.159V230ZM360.704 223.4C362.584 223.4 364.184 224.58 364.164 226.72H357.244C357.444 224.58 358.924 223.4 360.704 223.4ZM365.824 229.62H363.864C363.464 230.8 362.424 231.64 360.784 231.64C358.924 231.64 357.364 230.42 357.224 228.2H365.984C366.024 227.82 366.044 227.5 366.044 227.1C366.044 224.1 363.964 221.86 360.784 221.86C357.584 221.86 355.364 224.04 355.364 227.5C355.364 230.98 357.664 233.18 360.784 233.18C363.504 233.18 365.264 231.62 365.824 229.62ZM370.266 227.04C370.266 224.5 371.586 223.72 373.326 223.72H373.806V221.84C372.066 221.84 370.886 222.6 370.266 223.82V222.04H368.446V233H370.266V227.04ZM375.227 227.48C375.227 230.88 377.487 233.18 380.427 233.18C382.427 233.18 383.847 232.16 384.507 230.94V233H386.347V218.2H384.507V224C383.747 222.74 382.167 221.86 380.447 221.86C377.487 221.86 375.227 224.06 375.227 227.48ZM384.507 227.5C384.507 230.08 382.787 231.58 380.787 231.58C378.787 231.58 377.087 230.06 377.087 227.48C377.087 224.9 378.787 223.44 380.787 223.44C382.787 223.44 384.507 224.96 384.507 227.5ZM399.143 222.04H397.323V228.06C397.323 230.42 396.063 231.58 394.183 231.58C392.343 231.58 391.123 230.44 391.123 228.22V222.04H389.323V228.46C389.323 231.6 391.303 233.16 393.823 233.16C395.283 233.16 396.623 232.52 397.323 231.38V233H399.143V222.04ZM418.036 233H419.836V226.54C419.836 223.4 417.896 221.84 415.396 221.84C413.716 221.84 412.156 222.7 411.516 224.28C410.796 222.64 409.296 221.84 407.496 221.84C406.056 221.84 404.756 222.46 404.036 223.62V222.04H402.216V233H404.036V226.96C404.036 224.6 405.296 223.42 407.136 223.42C408.936 223.42 410.136 224.56 410.136 226.8V233H411.936V226.96C411.936 224.6 413.196 223.42 415.036 223.42C416.836 223.42 418.036 224.56 418.036 226.8V233ZM428.553 230C428.553 232.2 429.653 233 431.593 233H433.233V231.46H431.893C430.773 231.46 430.373 231.08 430.373 230V223.54H433.233V222.04H430.373V219.28H428.553V222.04H427.133V223.54H428.553V230ZM440.098 223.4C441.978 223.4 443.578 224.58 443.558 226.72H436.638C436.838 224.58 438.318 223.4 440.098 223.4ZM445.218 229.62H443.258C442.858 230.8 441.818 231.64 440.178 231.64C438.318 231.64 436.758 230.42 436.618 228.2H445.378C445.418 227.82 445.438 227.5 445.438 227.1C445.438 224.1 443.358 221.86 440.178 221.86C436.978 221.86 434.758 224.04 434.758 227.5C434.758 230.98 437.058 233.18 440.178 233.18C442.898 233.18 444.658 231.62 445.218 229.62ZM447.841 233H449.661V218.2H447.841V233ZM452.763 233H454.583V218.2H452.763V233ZM467.405 222.04H465.585V228.06C465.585 230.42 464.325 231.58 462.445 231.58C460.605 231.58 459.385 230.44 459.385 228.22V222.04H457.585V228.46C457.585 231.6 459.565 233.16 462.085 233.16C463.545 233.16 464.885 232.52 465.585 231.38V233H467.405V222.04ZM478.358 230.02C478.278 226.1 471.918 227.52 471.918 224.92C471.918 224.04 472.718 223.4 474.058 223.4C475.518 223.4 476.358 224.2 476.438 225.3H478.258C478.138 223.16 476.538 221.86 474.118 221.86C471.678 221.86 470.098 223.24 470.098 224.92C470.098 229 476.578 227.58 476.578 230.02C476.578 230.92 475.778 231.64 474.338 231.64C472.798 231.64 471.858 230.84 471.758 229.78H469.878C469.998 231.78 471.798 233.18 474.358 233.18C476.778 233.18 478.358 231.82 478.358 230.02ZM479.347 235.86H480.567L482.807 230.48H480.807L479.347 235.86ZM494.884 223.4C496.764 223.4 498.364 224.58 498.344 226.72H491.424C491.624 224.58 493.104 223.4 494.884 223.4ZM500.004 229.62H498.044C497.644 230.8 496.604 231.64 494.964 231.64C493.104 231.64 491.544 230.42 491.404 228.2H500.164C500.204 227.82 500.224 227.5 500.224 227.1C500.224 224.1 498.144 221.86 494.964 221.86C491.764 221.86 489.544 224.04 489.544 227.5C489.544 230.98 491.844 233.18 494.964 233.18C497.684 233.18 499.444 231.62 500.004 229.62ZM501.946 227.48C501.946 230.88 504.206 233.18 507.146 233.18C509.146 233.18 510.566 232.12 511.226 230.94V233.24C511.226 235.58 509.766 236.82 507.826 236.82C506.026 236.82 504.726 235.92 504.326 234.6H502.526C502.886 236.94 504.946 238.4 507.826 238.4C511.046 238.4 513.066 236.26 513.066 233.24V222.04H511.226V224.04C510.586 222.86 509.146 221.86 507.146 221.86C504.206 221.86 501.946 224.06 501.946 227.48ZM511.226 227.5C511.226 230.08 509.506 231.58 507.506 231.58C505.506 231.58 503.806 230.06 503.806 227.48C503.806 224.9 505.506 223.44 507.506 223.44C509.506 223.44 511.226 224.96 511.226 227.5ZM520.802 223.4C522.682 223.4 524.282 224.58 524.262 226.72H517.342C517.542 224.58 519.022 223.4 520.802 223.4ZM525.922 229.62H523.962C523.562 230.8 522.522 231.64 520.882 231.64C519.022 231.64 517.462 230.42 517.322 228.2H526.082C526.122 227.82 526.142 227.5 526.142 227.1C526.142 224.1 524.062 221.86 520.882 221.86C517.682 221.86 515.462 224.04 515.462 227.5C515.462 230.98 517.762 233.18 520.882 233.18C523.602 233.18 525.362 231.62 525.922 229.62ZM528.944 230C528.944 232.2 530.044 233 531.984 233H533.624V231.46H532.284C531.164 231.46 530.764 231.08 530.764 230V223.54H533.624V222.04H530.764V219.28H528.944V222.04H527.524V223.54H528.944V230ZM540.481 227.48C540.481 230.88 542.741 233.18 545.641 233.18C547.681 233.18 549.141 232.1 549.761 230.98V238.2H551.601V222.04H549.761V224.04C549.141 222.9 547.701 221.86 545.701 221.86C542.741 221.86 540.481 224.06 540.481 227.48ZM549.761 227.5C549.761 230.08 548.041 231.58 546.041 231.58C544.041 231.58 542.341 230.06 542.341 227.48C542.341 224.9 544.041 223.44 546.041 223.44C548.041 223.44 549.761 224.96 549.761 227.5ZM564.397 222.04H562.577V228.06C562.577 230.42 561.317 231.58 559.437 231.58C557.597 231.58 556.377 230.44 556.377 228.22V222.04H554.577V228.46C554.577 231.6 556.557 233.16 559.077 233.16C560.537 233.16 561.877 232.52 562.577 231.38V233H564.397V222.04ZM566.79 227.48C566.79 230.88 569.05 233.18 571.97 233.18C573.99 233.18 575.41 232.14 576.07 230.96V233H577.91V222.04H576.07V224.04C575.43 222.9 574.03 221.86 571.99 221.86C569.05 221.86 566.79 224.06 566.79 227.48ZM576.07 227.5C576.07 230.08 574.35 231.58 572.35 231.58C570.35 231.58 568.65 230.06 568.65 227.48C568.65 224.9 570.35 223.44 572.35 223.44C574.35 223.44 576.07 224.96 576.07 227.5ZM596.805 233H598.605V226.54C598.605 223.4 596.665 221.84 594.165 221.84C592.485 221.84 590.925 222.7 590.285 224.28C589.565 222.64 588.065 221.84 586.265 221.84C584.825 221.84 583.525 222.46 582.805 223.62V222.04H580.985V233H582.805V226.96C582.805 224.6 584.065 223.42 585.905 223.42C587.705 223.42 588.905 224.56 588.905 226.8V233H590.705V226.96C590.705 224.6 591.965 223.42 593.805 223.42C595.605 223.42 596.805 224.56 596.805 226.8V233ZM32.56 268H34.36V261.54C34.36 258.4 32.42 256.84 29.88 256.84C28.4 256.84 27.08 257.46 26.36 258.6V257.04H24.54V268H26.36V261.94C26.36 259.58 27.64 258.42 29.5 258.42C31.34 258.42 32.56 259.56 32.56 261.8V268ZM41.993 258.4C43.873 258.4 45.473 259.58 45.453 261.72H38.533C38.733 259.58 40.213 258.4 41.993 258.4ZM47.113 264.62H45.153C44.753 265.8 43.713 266.64 42.073 266.64C40.213 266.64 38.653 265.42 38.513 263.2H47.273C47.313 262.82 47.333 262.5 47.333 262.1C47.333 259.1 45.253 256.86 42.073 256.86C38.873 256.86 36.653 259.04 36.653 262.5C36.653 265.98 38.953 268.18 42.073 268.18C44.793 268.18 46.553 266.62 47.113 264.62ZM49.0553 262.48C49.0553 265.88 51.3153 268.18 54.2153 268.18C56.2553 268.18 57.7153 267.1 58.3353 265.98V273.2H60.1753V257.04H58.3353V259.04C57.7153 257.9 56.2753 256.86 54.2753 256.86C51.3153 256.86 49.0553 259.06 49.0553 262.48ZM58.3353 262.5C58.3353 265.08 56.6153 266.58 54.6153 266.58C52.6153 266.58 50.9153 265.06 50.9153 262.48C50.9153 259.9 52.6153 258.44 54.6153 258.44C56.6153 258.44 58.3353 259.96 58.3353 262.5ZM72.9709 257.04H71.1509V263.06C71.1509 265.42 69.8909 266.58 68.0109 266.58C66.1709 266.58 64.9509 265.44 64.9509 263.22V257.04H63.1509V263.46C63.1509 266.6 65.1309 268.16 67.6509 268.16C69.1109 268.16 70.4509 267.52 71.1509 266.38V268H72.9709V257.04ZM80.7039 258.4C82.5839 258.4 84.1839 259.58 84.1639 261.72H77.2439C77.4439 259.58 78.9239 258.4 80.7039 258.4ZM85.8239 264.62H83.8639C83.4639 265.8 82.4239 266.64 80.7839 266.64C78.9239 266.64 77.3639 265.42 77.2239 263.2H85.9839C86.0239 262.82 86.0439 262.5 86.0439 262.1C86.0439 259.1 83.9639 256.86 80.7839 256.86C77.5839 256.86 75.3639 259.04 75.3639 262.5C75.3639 265.98 77.6639 268.18 80.7839 268.18C83.5039 268.18 85.2639 266.62 85.8239 264.62ZM109.598 268H111.398V261.54C111.398 258.4 109.458 256.84 106.958 256.84C105.278 256.84 103.718 257.7 103.078 259.28C102.358 257.64 100.858 256.84 99.0583 256.84C97.6183 256.84 96.3183 257.46 95.5983 258.62V257.04H93.7783V268H95.5983V261.96C95.5983 259.6 96.8583 258.42 98.6983 258.42C100.498 258.42 101.698 259.56 101.698 261.8V268H103.498V261.96C103.498 259.6 104.758 258.42 106.598 258.42C108.398 258.42 109.598 259.56 109.598 261.8V268ZM113.704 262.48C113.704 265.88 115.964 268.18 118.884 268.18C120.904 268.18 122.324 267.14 122.984 265.96V268H124.824V257.04H122.984V259.04C122.344 257.9 120.944 256.86 118.904 256.86C115.964 256.86 113.704 259.06 113.704 262.48ZM122.984 262.5C122.984 265.08 121.264 266.58 119.264 266.58C117.264 266.58 115.564 265.06 115.564 262.48C115.564 259.9 117.264 258.44 119.264 258.44C121.264 258.44 122.984 259.96 122.984 262.5ZM127.899 268H129.719V253.2H127.899V268ZM137.481 258.4C139.361 258.4 140.961 259.58 140.941 261.72H134.021C134.221 259.58 135.701 258.4 137.481 258.4ZM142.601 264.62H140.641C140.241 265.8 139.201 266.64 137.561 266.64C135.701 266.64 134.141 265.42 134.001 263.2H142.761C142.801 262.82 142.821 262.5 142.821 262.1C142.821 259.1 140.741 256.86 137.561 256.86C134.361 256.86 132.141 259.04 132.141 262.5C132.141 265.98 134.441 268.18 137.561 268.18C140.281 268.18 142.041 266.62 142.601 264.62ZM153.104 265.02C153.024 261.1 146.664 262.52 146.664 259.92C146.664 259.04 147.464 258.4 148.804 258.4C150.264 258.4 151.104 259.2 151.184 260.3H153.004C152.884 258.16 151.284 256.86 148.864 256.86C146.424 256.86 144.844 258.24 144.844 259.92C144.844 264 151.324 262.58 151.324 265.02C151.324 265.92 150.524 266.64 149.084 266.64C147.544 266.64 146.604 265.84 146.504 264.78H144.624C144.744 266.78 146.544 268.18 149.104 268.18C151.524 268.18 153.104 266.82 153.104 265.02ZM165.393 257.04H163.573V263.06C163.573 265.42 162.313 266.58 160.433 266.58C158.593 266.58 157.373 265.44 157.373 263.22V257.04H155.573V263.46C155.573 266.6 157.553 268.16 160.073 268.16C161.533 268.16 162.873 267.52 163.573 266.38V268H165.393V257.04ZM167.786 262.48C167.786 265.88 170.046 268.18 172.966 268.18C174.986 268.18 176.406 267.14 177.066 265.96V268H178.906V257.04H177.066V259.04C176.426 257.9 175.026 256.86 172.986 256.86C170.046 256.86 167.786 259.06 167.786 262.48ZM177.066 262.5C177.066 265.08 175.346 266.58 173.346 266.58C171.346 266.58 169.646 265.06 169.646 262.48C169.646 259.9 171.346 258.44 173.346 258.44C175.346 258.44 177.066 259.96 177.066 262.5ZM181.301 262.48C181.301 265.88 183.561 268.18 186.501 268.18C188.501 268.18 189.921 267.16 190.581 265.94V268H192.421V253.2H190.581V259C189.821 257.74 188.241 256.86 186.521 256.86C183.561 256.86 181.301 259.06 181.301 262.48ZM190.581 262.5C190.581 265.08 188.861 266.58 186.861 266.58C184.861 266.58 183.161 265.06 183.161 262.48C183.161 259.9 184.861 258.44 186.861 258.44C188.861 258.44 190.581 259.96 190.581 262.5ZM194.817 262.48C194.817 265.88 197.077 268.18 199.997 268.18C202.017 268.18 203.437 267.14 204.097 265.96V268H205.937V257.04H204.097V259.04C203.457 257.9 202.057 256.86 200.017 256.86C197.077 256.86 194.817 259.06 194.817 262.48ZM204.097 262.5C204.097 265.08 202.377 266.58 200.377 266.58C198.377 266.58 196.677 265.06 196.677 262.48C196.677 259.9 198.377 258.44 200.377 258.44C202.377 258.44 204.097 259.96 204.097 262.5ZM214.345 268H216.165V257.04H214.345V268ZM215.285 255.26C215.945 255.26 216.485 254.72 216.485 254.02C216.485 253.32 215.945 252.78 215.285 252.78C214.585 252.78 214.045 253.32 214.045 254.02C214.045 254.72 214.585 255.26 215.285 255.26ZM227.287 268H229.087V261.54C229.087 258.4 227.147 256.84 224.607 256.84C223.127 256.84 221.807 257.46 221.087 258.6V257.04H219.267V268H221.087V261.94C221.087 259.58 222.367 258.42 224.227 258.42C226.067 258.42 227.287 259.56 227.287 261.8V268ZM232.46 265C232.46 267.2 233.56 268 235.5 268H237.14V266.46H235.8C234.68 266.46 234.28 266.08 234.28 265V258.54H237.14V257.04H234.28V254.28H232.46V257.04H231.04V258.54H232.46V265ZM244.005 258.4C245.885 258.4 247.485 259.58 247.465 261.72H240.545C240.745 259.58 242.225 258.4 244.005 258.4ZM249.125 264.62H247.165C246.765 265.8 245.725 266.64 244.085 266.64C242.225 266.64 240.665 265.42 240.525 263.2H249.285C249.325 262.82 249.345 262.5 249.345 262.1C249.345 259.1 247.265 256.86 244.085 256.86C240.885 256.86 238.665 259.04 238.665 262.5C238.665 265.98 240.965 268.18 244.085 268.18C246.805 268.18 248.565 266.62 249.125 264.62ZM253.567 262.04C253.567 259.5 254.887 258.72 256.627 258.72H257.107V256.84C255.367 256.84 254.187 257.6 253.567 258.82V257.04H251.747V268H253.567V262.04ZM258.528 262.48C258.528 265.88 260.788 268.18 263.728 268.18C265.728 268.18 267.148 267.16 267.808 265.94V268H269.648V253.2H267.808V259C267.048 257.74 265.468 256.86 263.748 256.86C260.788 256.86 258.528 259.06 258.528 262.48ZM267.808 262.5C267.808 265.08 266.088 266.58 264.088 266.58C262.088 266.58 260.388 265.06 260.388 262.48C260.388 259.9 262.088 258.44 264.088 258.44C266.088 258.44 267.808 259.96 267.808 262.5ZM282.444 257.04H280.624V263.06C280.624 265.42 279.364 266.58 277.484 266.58C275.644 266.58 274.424 265.44 274.424 263.22V257.04H272.624V263.46C272.624 266.6 274.604 268.16 277.124 268.16C278.584 268.16 279.924 267.52 280.624 266.38V268H282.444V257.04ZM301.337 268H303.137V261.54C303.137 258.4 301.197 256.84 298.697 256.84C297.017 256.84 295.457 257.7 294.817 259.28C294.097 257.64 292.597 256.84 290.797 256.84C289.357 256.84 288.057 257.46 287.337 258.62V257.04H285.517V268H287.337V261.96C287.337 259.6 288.597 258.42 290.437 258.42C292.237 258.42 293.437 259.56 293.437 261.8V268H295.237V261.96C295.237 259.6 296.497 258.42 298.337 258.42C300.137 258.42 301.337 259.56 301.337 261.8V268ZM311.854 265C311.854 267.2 312.954 268 314.894 268H316.534V266.46H315.194C314.074 266.46 313.674 266.08 313.674 265V258.54H316.534V257.04H313.674V254.28H311.854V257.04H310.434V258.54H311.854V265ZM323.399 258.4C325.279 258.4 326.879 259.58 326.859 261.72H319.939C320.139 259.58 321.619 258.4 323.399 258.4ZM328.519 264.62H326.559C326.159 265.8 325.119 266.64 323.479 266.64C321.619 266.64 320.059 265.42 319.919 263.2H328.679C328.719 262.82 328.739 262.5 328.739 262.1C328.739 259.1 326.659 256.86 323.479 256.86C320.279 256.86 318.059 259.04 318.059 262.5C318.059 265.98 320.359 268.18 323.479 268.18C326.199 268.18 327.959 266.62 328.519 264.62ZM331.142 268H332.962V253.2H331.142V268ZM336.063 268H337.883V253.2H336.063V268ZM350.705 257.04H348.885V263.06C348.885 265.42 347.625 266.58 345.745 266.58C343.905 266.58 342.685 265.44 342.685 263.22V257.04H340.885V263.46C340.885 266.6 342.865 268.16 345.385 268.16C346.845 268.16 348.185 267.52 348.885 266.38V268H350.705V257.04ZM361.658 265.02C361.578 261.1 355.218 262.52 355.218 259.92C355.218 259.04 356.018 258.4 357.358 258.4C358.818 258.4 359.658 259.2 359.738 260.3H361.558C361.438 258.16 359.838 256.86 357.418 256.86C354.978 256.86 353.398 258.24 353.398 259.92C353.398 264 359.878 262.58 359.878 265.02C359.878 265.92 359.078 266.64 357.638 266.64C356.098 266.64 355.158 265.84 355.058 264.78H353.178C353.298 266.78 355.098 268.18 357.658 268.18C360.078 268.18 361.658 266.82 361.658 265.02ZM366.008 266.88C366.008 266.18 365.468 265.64 364.808 265.64C364.108 265.64 363.568 266.18 363.568 266.88C363.568 267.58 364.108 268.12 364.808 268.12C365.468 268.12 366.008 267.58 366.008 266.88Z" fill="#565656"/>
<path d="M31.688 336H34.056L30.04 324.816H27.432L23.416 336H25.768L26.504 333.872H30.952L31.688 336ZM30.344 332.08H27.112L28.728 327.408L30.344 332.08ZM34.6131 327.136L37.8771 336H40.5971L43.8771 327.136H41.4931L39.2531 333.936L37.0131 327.136H34.6131ZM44.5592 331.536C44.5592 334.304 46.3513 336.144 48.5913 336.144C49.9993 336.144 51.0073 335.472 51.5353 334.704V336H53.7913V327.136H51.5353V328.4C51.0073 327.664 50.0313 326.992 48.6073 326.992C46.3513 326.992 44.5592 328.768 44.5592 331.536ZM51.5353 331.568C51.5353 333.248 50.4153 334.176 49.1833 334.176C47.9833 334.176 46.8473 333.216 46.8473 331.536C46.8473 329.856 47.9833 328.96 49.1833 328.96C50.4153 328.96 51.5353 329.888 51.5353 331.568ZM55.979 336H58.219V324.16H55.979V336ZM60.4321 336H62.6721V327.136H60.4321V336ZM61.5681 326.08C62.3521 326.08 62.9441 325.504 62.9441 324.768C62.9441 324.032 62.3521 323.456 61.5681 323.456C60.7681 323.456 60.1921 324.032 60.1921 324.768C60.1921 325.504 60.7681 326.08 61.5681 326.08ZM64.3092 331.536C64.3092 334.304 66.1013 336.144 68.3413 336.144C69.7493 336.144 70.7573 335.472 71.2853 334.704V336H73.5413V327.136H71.2853V328.4C70.7573 327.664 69.7813 326.992 68.3573 326.992C66.1013 326.992 64.3092 328.768 64.3092 331.536ZM71.2853 331.568C71.2853 333.248 70.1653 334.176 68.9333 334.176C67.7333 334.176 66.5973 333.216 66.5973 331.536C66.5973 329.856 67.7333 328.96 68.9333 328.96C70.1653 328.96 71.2853 329.888 71.2853 331.568ZM77.969 328.432V324.16H75.729V336H77.969V334.736C78.513 335.504 79.505 336.144 80.897 336.144C83.169 336.144 84.945 334.304 84.945 331.536C84.945 328.768 83.169 326.992 80.897 326.992C79.553 326.992 78.513 327.616 77.969 328.432ZM82.657 331.536C82.657 333.216 81.521 334.176 80.305 334.176C79.105 334.176 77.969 333.248 77.969 331.568C77.969 329.888 79.105 328.96 80.305 328.96C81.521 328.96 82.657 329.856 82.657 331.536ZM86.5728 336H88.8128V324.16H86.5728V336ZM94.8339 328.832C95.9859 328.832 96.9139 329.568 96.9459 330.736H92.7379C92.9139 329.52 93.7619 328.832 94.8339 328.832ZM99.0419 333.216H96.6259C96.3379 333.808 95.8099 334.288 94.8499 334.288C93.7299 334.288 92.8339 333.552 92.7219 332.24H99.2019C99.2499 331.952 99.2659 331.664 99.2659 331.376C99.2659 328.736 97.4579 326.992 94.8979 326.992C92.2739 326.992 90.4499 328.768 90.4499 331.568C90.4499 334.352 92.3219 336.144 94.8979 336.144C97.0899 336.144 98.5619 334.848 99.0419 333.216ZM112.025 324.816V332.496L106.953 324.816H104.713V336H106.953V328.336L112.025 336H114.265V324.816H112.025ZM125.039 331.568C125.039 328.768 123.039 326.992 120.479 326.992C117.919 326.992 115.919 328.768 115.919 331.568C115.919 334.352 117.855 336.144 120.415 336.144C122.991 336.144 125.039 334.352 125.039 331.568ZM118.191 331.568C118.191 329.792 119.263 328.944 120.447 328.944C121.631 328.944 122.735 329.792 122.735 331.568C122.735 333.328 121.599 334.192 120.415 334.192C119.215 334.192 118.191 333.328 118.191 331.568ZM128.298 336H130.73L132.346 329.808L133.962 336H136.378L138.97 327.136H136.826L135.258 333.872L133.594 327.136H131.226L129.53 333.888L127.962 327.136H125.69L128.298 336ZM154.891 330.384C154.891 327.04 152.363 324.672 149.179 324.672C146.027 324.672 143.451 327.04 143.451 330.384C143.451 333.744 146.027 336.112 149.179 336.112C152.347 336.112 154.891 333.744 154.891 330.384ZM145.755 330.384C145.755 328.112 147.147 326.688 149.179 326.688C151.195 326.688 152.587 328.112 152.587 330.384C152.587 332.656 151.195 334.112 149.179 334.112C147.147 334.112 145.755 332.656 145.755 330.384ZM162.765 336H165.005V330.8C165.005 328.352 163.533 327.008 161.469 327.008C160.333 327.008 159.373 327.488 158.797 328.24V327.136H156.557V336H158.797V331.104C158.797 329.68 159.581 328.912 160.797 328.912C161.981 328.912 162.765 329.68 162.765 331.104V336Z" fill="#3AAFA9"/>
<rect x="23" y="367" width="200" height="55" rx="10" fill="url(#paint0_linear_12_724)"/>
<path d="M73.7471 395.079C73.7373 393.414 74.4917 392.159 76.0151 391.233C75.1631 390.013 73.874 389.341 72.1748 389.212C70.5659 389.085 68.8057 390.149 68.1611 390.149C67.48 390.149 65.9224 389.256 64.6968 389.256C62.1675 389.295 59.4795 391.272 59.4795 395.296C59.4795 396.485 59.6968 397.713 60.1313 398.978C60.7124 400.643 62.8071 404.722 64.9922 404.656C66.1348 404.629 66.9429 403.846 68.4297 403.846C69.8726 403.846 70.6196 404.656 71.894 404.656C74.0986 404.625 75.9932 400.916 76.5449 399.246C73.5884 397.852 73.7471 395.164 73.7471 395.079V395.079ZM71.1812 387.632C72.4189 386.163 72.3066 384.825 72.27 384.344C71.1763 384.407 69.9116 385.088 69.1914 385.926C68.3979 386.824 67.9316 387.935 68.0317 389.187C69.2134 389.278 70.2925 388.67 71.1812 387.632V387.632Z" fill="white"/>
<path d="M100.44 399.34H94.88L93.96 402H91.02L96.04 388.02H99.3L104.32 402H101.36L100.44 399.34ZM99.68 397.1L97.66 391.26L95.64 397.1H99.68ZM108.996 392.52C109.356 392.013 109.85 391.593 110.476 391.26C111.116 390.913 111.843 390.74 112.656 390.74C113.603 390.74 114.456 390.973 115.216 391.44C115.99 391.907 116.596 392.573 117.036 393.44C117.49 394.293 117.716 395.287 117.716 396.42C117.716 397.553 117.49 398.56 117.036 399.44C116.596 400.307 115.99 400.98 115.216 401.46C114.456 401.94 113.603 402.18 112.656 402.18C111.843 402.18 111.123 402.013 110.496 401.68C109.883 401.347 109.383 400.927 108.996 400.42V407.28H106.196V390.92H108.996V392.52ZM114.856 396.42C114.856 395.753 114.716 395.18 114.436 394.7C114.17 394.207 113.81 393.833 113.356 393.58C112.916 393.327 112.436 393.2 111.916 393.2C111.41 393.2 110.93 393.333 110.476 393.6C110.036 393.853 109.676 394.227 109.396 394.72C109.13 395.213 108.996 395.793 108.996 396.46C108.996 397.127 109.13 397.707 109.396 398.2C109.676 398.693 110.036 399.073 110.476 399.34C110.93 399.593 111.41 399.72 111.916 399.72C112.436 399.72 112.916 399.587 113.356 399.32C113.81 399.053 114.17 398.673 114.436 398.18C114.716 397.687 114.856 397.1 114.856 396.42ZM122.551 392.52C122.911 392.013 123.404 391.593 124.031 391.26C124.671 390.913 125.398 390.74 126.211 390.74C127.158 390.74 128.011 390.973 128.771 391.44C129.544 391.907 130.151 392.573 130.591 393.44C131.044 394.293 131.271 395.287 131.271 396.42C131.271 397.553 131.044 398.56 130.591 399.44C130.151 400.307 129.544 400.98 128.771 401.46C128.011 401.94 127.158 402.18 126.211 402.18C125.398 402.18 124.678 402.013 124.051 401.68C123.438 401.347 122.938 400.927 122.551 400.42V407.28H119.751V390.92H122.551V392.52ZM128.411 396.42C128.411 395.753 128.271 395.18 127.991 394.7C127.724 394.207 127.364 393.833 126.911 393.58C126.471 393.327 125.991 393.2 125.471 393.2C124.964 393.2 124.484 393.333 124.031 393.6C123.591 393.853 123.231 394.227 122.951 394.72C122.684 395.213 122.551 395.793 122.551 396.46C122.551 397.127 122.684 397.707 122.951 398.2C123.231 398.693 123.591 399.073 124.031 399.34C124.484 399.593 124.964 399.72 125.471 399.72C125.991 399.72 126.471 399.587 126.911 399.32C127.364 399.053 127.724 398.673 127.991 398.18C128.271 397.687 128.411 397.1 128.411 396.42ZM142.891 402.14C141.918 402.14 141.038 401.973 140.251 401.64C139.478 401.307 138.865 400.827 138.411 400.2C137.958 399.573 137.725 398.833 137.711 397.98H140.711C140.751 398.553 140.951 399.007 141.311 399.34C141.685 399.673 142.191 399.84 142.831 399.84C143.485 399.84 143.998 399.687 144.371 399.38C144.745 399.06 144.931 398.647 144.931 398.14C144.931 397.727 144.805 397.387 144.551 397.12C144.298 396.853 143.978 396.647 143.591 396.5C143.218 396.34 142.698 396.167 142.031 395.98C141.125 395.713 140.385 395.453 139.811 395.2C139.251 394.933 138.765 394.54 138.351 394.02C137.951 393.487 137.751 392.78 137.751 391.9C137.751 391.073 137.958 390.353 138.371 389.74C138.785 389.127 139.365 388.66 140.111 388.34C140.858 388.007 141.711 387.84 142.671 387.84C144.111 387.84 145.278 388.193 146.171 388.9C147.078 389.593 147.578 390.567 147.671 391.82H144.591C144.565 391.34 144.358 390.947 143.971 390.64C143.598 390.32 143.098 390.16 142.471 390.16C141.925 390.16 141.485 390.3 141.151 390.58C140.831 390.86 140.671 391.267 140.671 391.8C140.671 392.173 140.791 392.487 141.031 392.74C141.285 392.98 141.591 393.18 141.951 393.34C142.325 393.487 142.845 393.66 143.511 393.86C144.418 394.127 145.158 394.393 145.731 394.66C146.305 394.927 146.798 395.327 147.211 395.86C147.625 396.393 147.831 397.093 147.831 397.96C147.831 398.707 147.638 399.4 147.251 400.04C146.865 400.68 146.298 401.193 145.551 401.58C144.805 401.953 143.918 402.14 142.891 402.14ZM153.519 393.22V398.58C153.519 398.953 153.606 399.227 153.779 399.4C153.966 399.56 154.272 399.64 154.699 399.64H155.999V402H154.239C151.879 402 150.699 400.853 150.699 398.56V393.22H149.379V390.92H150.699V388.18H153.519V390.92H155.999V393.22H153.519ZM162.933 402.18C161.866 402.18 160.906 401.947 160.053 401.48C159.199 401 158.526 400.327 158.033 399.46C157.553 398.593 157.313 397.593 157.313 396.46C157.313 395.327 157.559 394.327 158.053 393.46C158.559 392.593 159.246 391.927 160.113 391.46C160.979 390.98 161.946 390.74 163.013 390.74C164.079 390.74 165.046 390.98 165.913 391.46C166.779 391.927 167.459 392.593 167.953 393.46C168.459 394.327 168.713 395.327 168.713 396.46C168.713 397.593 168.453 398.593 167.933 399.46C167.426 400.327 166.733 401 165.853 401.48C164.986 401.947 164.013 402.18 162.933 402.18ZM162.933 399.74C163.439 399.74 163.913 399.62 164.353 399.38C164.806 399.127 165.166 398.753 165.433 398.26C165.699 397.767 165.833 397.167 165.833 396.46C165.833 395.407 165.553 394.6 164.993 394.04C164.446 393.467 163.773 393.18 162.973 393.18C162.173 393.18 161.499 393.467 160.953 394.04C160.419 394.6 160.153 395.407 160.153 396.46C160.153 397.513 160.413 398.327 160.933 398.9C161.466 399.46 162.133 399.74 162.933 399.74ZM173.567 392.64C173.927 392.053 174.393 391.593 174.967 391.26C175.553 390.927 176.22 390.76 176.967 390.76V393.7H176.227C175.347 393.7 174.68 393.907 174.227 394.32C173.787 394.733 173.567 395.453 173.567 396.48V402H170.767V390.92H173.567V392.64ZM189.153 396.22C189.153 396.62 189.126 396.98 189.073 397.3H180.973C181.039 398.1 181.319 398.727 181.813 399.18C182.306 399.633 182.913 399.86 183.633 399.86C184.673 399.86 185.413 399.413 185.853 398.52H188.873C188.553 399.587 187.939 400.467 187.033 401.16C186.126 401.84 185.013 402.18 183.693 402.18C182.626 402.18 181.666 401.947 180.813 401.48C179.973 401 179.313 400.327 178.833 399.46C178.366 398.593 178.133 397.593 178.133 396.46C178.133 395.313 178.366 394.307 178.833 393.44C179.299 392.573 179.953 391.907 180.793 391.44C181.633 390.973 182.599 390.74 183.693 390.74C184.746 390.74 185.686 390.967 186.513 391.42C187.353 391.873 187.999 392.52 188.453 393.36C188.919 394.187 189.153 395.14 189.153 396.22ZM186.253 395.42C186.239 394.7 185.979 394.127 185.473 393.7C184.966 393.26 184.346 393.04 183.613 393.04C182.919 393.04 182.333 393.253 181.853 393.68C181.386 394.093 181.099 394.673 180.993 395.42H186.253Z" fill="white"/>
<rect x="247.5" y="367.5" width="199" height="54" rx="9.5" fill="white"/>
<g clip-path="url(#clip0_12_724)">
<path d="M296.939 398.589C300.109 396.849 302.512 395.523 302.719 395.419C303.381 395.067 304.066 394.134 302.719 393.41C302.284 393.182 299.943 391.897 296.939 390.24L292.774 394.446L296.939 398.589V398.589Z" fill="#FFD900"/>
<path d="M292.775 394.446L279.515 407.809C279.826 407.85 280.178 407.768 280.592 407.54C281.462 407.064 290.682 402.029 296.939 398.59L292.775 394.446Z" fill="#F43249"/>
<path d="M292.775 394.446L296.939 390.261C296.939 390.261 281.525 381.849 280.592 381.352C280.241 381.144 279.847 381.082 279.495 381.144L292.775 394.446V394.446Z" fill="#00EE76"/>
<path d="M292.775 394.446L279.494 381.144C278.955 381.269 278.5 381.745 278.5 382.719V406.235C278.5 407.126 278.852 407.768 279.515 407.83L292.775 394.446Z" fill="#00D3FF"/>
</g>
<path d="M325.06 392.36C325.06 393.107 324.88 393.807 324.52 394.46C324.173 395.113 323.62 395.64 322.86 396.04C322.113 396.44 321.167 396.64 320.02 396.64H317.68V402H314.88V388.04H320.02C321.1 388.04 322.02 388.227 322.78 388.6C323.54 388.973 324.107 389.487 324.48 390.14C324.867 390.793 325.06 391.533 325.06 392.36ZM319.9 394.38C320.673 394.38 321.247 394.207 321.62 393.86C321.993 393.5 322.18 393 322.18 392.36C322.18 391 321.42 390.32 319.9 390.32H317.68V394.38H319.9ZM329.848 387.2V402H327.048V387.2H329.848ZM331.894 396.42C331.894 395.3 332.114 394.307 332.554 393.44C333.008 392.573 333.614 391.907 334.374 391.44C335.148 390.973 336.008 390.74 336.954 390.74C337.781 390.74 338.501 390.907 339.114 391.24C339.741 391.573 340.241 391.993 340.614 392.5V390.92H343.434V402H340.614V400.38C340.254 400.9 339.754 401.333 339.114 401.68C338.488 402.013 337.761 402.18 336.934 402.18C336.001 402.18 335.148 401.94 334.374 401.46C333.614 400.98 333.008 400.307 332.554 399.44C332.114 398.56 331.894 397.553 331.894 396.42ZM340.614 396.46C340.614 395.78 340.481 395.2 340.214 394.72C339.948 394.227 339.588 393.853 339.134 393.6C338.681 393.333 338.194 393.2 337.674 393.2C337.154 393.2 336.674 393.327 336.234 393.58C335.794 393.833 335.434 394.207 335.154 394.7C334.888 395.18 334.754 395.753 334.754 396.42C334.754 397.087 334.888 397.673 335.154 398.18C335.434 398.673 335.794 399.053 336.234 399.32C336.688 399.587 337.168 399.72 337.674 399.72C338.194 399.72 338.681 399.593 339.134 399.34C339.588 399.073 339.948 398.7 340.214 398.22C340.481 397.727 340.614 397.14 340.614 396.46ZM356.769 390.92L349.909 407.24H346.929L349.329 401.72L344.889 390.92H348.029L350.889 398.66L353.789 390.92H356.769ZM367.864 402.14C366.891 402.14 366.011 401.973 365.224 401.64C364.451 401.307 363.837 400.827 363.384 400.2C362.931 399.573 362.697 398.833 362.684 397.98H365.684C365.724 398.553 365.924 399.007 366.284 399.34C366.657 399.673 367.164 399.84 367.804 399.84C368.457 399.84 368.971 399.687 369.344 399.38C369.717 399.06 369.904 398.647 369.904 398.14C369.904 397.727 369.777 397.387 369.524 397.12C369.271 396.853 368.951 396.647 368.564 396.5C368.191 396.34 367.671 396.167 367.004 395.98C366.097 395.713 365.357 395.453 364.784 395.2C364.224 394.933 363.737 394.54 363.324 394.02C362.924 393.487 362.724 392.78 362.724 391.9C362.724 391.073 362.931 390.353 363.344 389.74C363.757 389.127 364.337 388.66 365.084 388.34C365.831 388.007 366.684 387.84 367.644 387.84C369.084 387.84 370.251 388.193 371.144 388.9C372.051 389.593 372.551 390.567 372.644 391.82H369.564C369.537 391.34 369.331 390.947 368.944 390.64C368.571 390.32 368.071 390.16 367.444 390.16C366.897 390.16 366.457 390.3 366.124 390.58C365.804 390.86 365.644 391.267 365.644 391.8C365.644 392.173 365.764 392.487 366.004 392.74C366.257 392.98 366.564 393.18 366.924 393.34C367.297 393.487 367.817 393.66 368.484 393.86C369.391 394.127 370.131 394.393 370.704 394.66C371.277 394.927 371.771 395.327 372.184 395.86C372.597 396.393 372.804 397.093 372.804 397.96C372.804 398.707 372.611 399.4 372.224 400.04C371.837 400.68 371.271 401.193 370.524 401.58C369.777 401.953 368.891 402.14 367.864 402.14ZM378.492 393.22V398.58C378.492 398.953 378.578 399.227 378.752 399.4C378.938 399.56 379.245 399.64 379.672 399.64H380.972V402H379.212C376.852 402 375.672 400.853 375.672 398.56V393.22H374.352V390.92H375.672V388.18H378.492V390.92H380.972V393.22H378.492ZM387.905 402.18C386.839 402.18 385.879 401.947 385.025 401.48C384.172 401 383.499 400.327 383.005 399.46C382.525 398.593 382.285 397.593 382.285 396.46C382.285 395.327 382.532 394.327 383.025 393.46C383.532 392.593 384.219 391.927 385.085 391.46C385.952 390.98 386.919 390.74 387.985 390.74C389.052 390.74 390.019 390.98 390.885 391.46C391.752 391.927 392.432 392.593 392.925 393.46C393.432 394.327 393.685 395.327 393.685 396.46C393.685 397.593 393.425 398.593 392.905 399.46C392.399 400.327 391.705 401 390.825 401.48C389.959 401.947 388.985 402.18 387.905 402.18ZM387.905 399.74C388.412 399.74 388.885 399.62 389.325 399.38C389.779 399.127 390.139 398.753 390.405 398.26C390.672 397.767 390.805 397.167 390.805 396.46C390.805 395.407 390.525 394.6 389.965 394.04C389.419 393.467 388.745 393.18 387.945 393.18C387.145 393.18 386.472 393.467 385.925 394.04C385.392 394.6 385.125 395.407 385.125 396.46C385.125 397.513 385.385 398.327 385.905 398.9C386.439 399.46 387.105 399.74 387.905 399.74ZM398.539 392.64C398.899 392.053 399.366 391.593 399.939 391.26C400.526 390.927 401.193 390.76 401.939 390.76V393.7H401.199C400.319 393.7 399.653 393.907 399.199 394.32C398.759 394.733 398.539 395.453 398.539 396.48V402H395.739V390.92H398.539V392.64ZM414.125 396.22C414.125 396.62 414.099 396.98 414.045 397.3H405.945C406.012 398.1 406.292 398.727 406.785 399.18C407.279 399.633 407.885 399.86 408.605 399.86C409.645 399.86 410.385 399.413 410.825 398.52H413.845C413.525 399.587 412.912 400.467 412.005 401.16C411.099 401.84 409.985 402.18 408.665 402.18C407.599 402.18 406.639 401.947 405.785 401.48C404.945 401 404.285 400.327 403.805 399.46C403.339 398.593 403.105 397.593 403.105 396.46C403.105 395.313 403.339 394.307 403.805 393.44C404.272 392.573 404.925 391.907 405.765 391.44C406.605 390.973 407.572 390.74 408.665 390.74C409.719 390.74 410.659 390.967 411.485 391.42C412.325 391.873 412.972 392.52 413.425 393.36C413.892 394.187 414.125 395.14 414.125 396.22ZM411.225 395.42C411.212 394.7 410.952 394.127 410.445 393.7C409.939 393.26 409.319 393.04 408.585 393.04C407.892 393.04 407.305 393.253 406.825 393.68C406.359 394.093 406.072 394.673 405.965 395.42H411.225Z" fill="#3AAFA9"/>
<rect x="247.5" y="367.5" width="199" height="54" rx="9.5" stroke="#3AAFA9"/>
<defs>
<linearGradient id="paint0_linear_12_724" x1="231.746" y1="367" x2="20.0882" y2="382.67" gradientUnits="userSpaceOnUse">
<stop stop-color="#2B7A78"/>
<stop offset="1" stop-color="#3AAFA9"/>
</linearGradient>
<clipPath id="clip0_12_724">
<rect width="25" height="26.7578" fill="white" transform="translate(278.5 381.121)"/>
</clipPath>
</defs>
</svg>
