<svg width="46" height="46" viewBox="0 0 46 46" fill="none" xmlns="http://www.w3.org/2000/svg">
<circle cx="23" cy="22.7844" r="22.5" fill="#FDE7F5"/>
<path d="M25.5 25.4368H28V27.9368H25.5V25.4368ZM16.75 12.9368H29.25C29.3416 12.9368 29.4321 12.957 29.515 12.9959C29.598 13.0347 29.6714 13.0914 29.73 13.1618L32.855 16.9118C33.0013 17.0868 33 17.1755 33 17.2893V19.1868C33 20.2968 32.5175 21.2955 31.75 21.9818V32.3118C31.75 32.4775 31.6842 32.6365 31.5669 32.7537C31.4497 32.8709 31.2908 32.9368 31.125 32.9368H23V24.8118C23 24.646 22.9342 24.487 22.8169 24.3698C22.6997 24.2526 22.5408 24.1868 22.375 24.1868H17.375C17.2092 24.1868 17.0503 24.2526 16.9331 24.3698C16.8158 24.487 16.75 24.646 16.75 24.8118V32.9368H14.875C14.7092 32.9368 14.5503 32.8709 14.4331 32.7537C14.3158 32.6365 14.25 32.4775 14.25 32.3118V21.9818C13.4825 21.2943 13 20.2968 13 19.1868V17.3118C13.0001 17.1656 13.0514 17.024 13.145 16.9118L16.27 13.1618C16.3286 13.0914 16.402 13.0347 16.485 12.9959C16.5679 12.957 16.6584 12.9368 16.75 12.9368ZM14.25 17.9368V19.1868C14.25 19.8498 14.5134 20.4857 14.9822 20.9545C15.4511 21.4234 16.087 21.6868 16.75 21.6868C17.413 21.6868 18.0489 21.4234 18.5178 20.9545C18.9866 20.4857 19.25 19.8498 19.25 19.1868V17.9368H14.25ZM20.5 17.9368V19.1868C20.5 19.8498 20.7634 20.4857 21.2322 20.9545C21.7011 21.4234 22.337 21.6868 23 21.6868C23.663 21.6868 24.2989 21.4234 24.7678 20.9545C25.2366 20.4857 25.5 19.8498 25.5 19.1868V17.9368H20.5ZM26.75 17.9368V19.1868C26.75 19.8498 27.0134 20.4857 27.4822 20.9545C27.9511 21.4234 28.587 21.6868 29.25 21.6868C29.913 21.6868 30.5489 21.4234 31.0178 20.9545C31.4866 20.4857 31.75 19.8498 31.75 19.1868V17.9368H26.75ZM17.0425 14.1868L14.96 16.6868H19.425L20.2575 14.1868H17.0425ZM25.2575 16.6868L24.425 14.1868H21.575L20.7425 16.6868H25.2575V16.6868ZM26.575 16.6868H31.0413L28.9575 14.1868H25.7425L26.575 16.6868V16.6868ZM24.25 24.8118V28.5618C24.25 28.7275 24.3158 28.8865 24.4331 29.0037C24.5503 29.1209 24.7092 29.1868 24.875 29.1868H28.625C28.7908 29.1868 28.9497 29.1209 29.0669 29.0037C29.1842 28.8865 29.25 28.7275 29.25 28.5618V24.8118C29.25 24.646 29.1842 24.487 29.0669 24.3698C28.9497 24.2526 28.7908 24.1868 28.625 24.1868H24.875C24.7092 24.1868 24.5503 24.2526 24.4331 24.3698C24.3158 24.487 24.25 24.646 24.25 24.8118ZM21.75 32.9368V25.4368H18V32.9368H21.75Z" fill="#DE0394"/>
</svg>
