<svg width="169" height="169" viewBox="0 0 169 169" fill="none" xmlns="http://www.w3.org/2000/svg">
<g filter="url(#filter0_d_12_637)">
<circle cx="61" cy="61" r="37" fill="white"/>
<circle cx="61" cy="61" r="36.5316" stroke="#DFDFDF" stroke-width="0.936709"/>
</g>
<path d="M72.9705 45.5587C73.4 50.6177 72.745 55.7101 71.0493 60.4958C70.6224 61.7307 70.4705 63.044 70.6043 64.3438C70.7382 65.6436 71.1545 66.8984 71.8242 68.0204C74.1684 72.0102 74.9552 76.7257 74.0335 81.2605C73.9897 81.4583 73.8891 81.6391 73.7439 81.7806C73.5988 81.922 73.4155 82.018 73.2166 82.0568C73.0177 82.0956 72.8118 82.0754 72.6241 81.9988C72.4365 81.9222 72.2753 81.7924 72.1604 81.6255C68.8483 76.928 64.4557 73.0954 59.3526 70.4507C57.7631 69.6223 56.1125 68.9169 54.4152 68.3406C50.6974 67.0644 46.7933 66.4151 42.8625 66.4194C42.6577 66.4223 42.4564 66.3652 42.2836 66.2552C42.1108 66.1452 41.9739 65.987 41.8898 65.8002C41.8058 65.6134 41.7782 65.406 41.8105 65.2037C41.8428 65.0014 41.9336 64.8129 42.0717 64.6615C45.1447 61.4115 49.2786 59.3673 53.7268 58.898C54.9898 58.7775 56.212 58.3854 57.3095 57.7488C58.407 57.1122 59.3541 56.2459 60.0858 55.2094C63.0478 50.9407 66.9064 47.3706 71.3919 44.7486C71.5448 44.6606 71.7173 44.6122 71.8937 44.608C72.07 44.6037 72.2446 44.6437 72.4016 44.7242C72.5585 44.8048 72.6928 44.9233 72.7922 45.0691C72.8916 45.2148 72.9529 45.3832 72.9705 45.5587V45.5587Z" fill="#3AAFA9"/>
<defs>
<filter id="filter0_d_12_637" x="0.582279" y="0.582279" width="167.671" height="167.671" filterUnits="userSpaceOnUse" color-interpolation-filters="sRGB">
<feFlood flood-opacity="0" result="BackgroundImageFix"/>
<feColorMatrix in="SourceAlpha" type="matrix" values="0 0 0 0 0 0 0 0 0 0 0 0 0 0 0 0 0 0 127 0" result="hardAlpha"/>
<feOffset dx="23.4177" dy="23.4177"/>
<feGaussianBlur stdDeviation="23.4177"/>
<feComposite in2="hardAlpha" operator="out"/>
<feColorMatrix type="matrix" values="0 0 0 0 0 0 0 0 0 0 0 0 0 0 0 0 0 0 0.05 0"/>
<feBlend mode="normal" in2="BackgroundImageFix" result="effect1_dropShadow_12_637"/>
<feBlend mode="normal" in="SourceGraphic" in2="effect1_dropShadow_12_637" result="shape"/>
</filter>
</defs>
</svg>
