<svg width="256" height="200" viewBox="0 0 256 200" fill="none" xmlns="http://www.w3.org/2000/svg">
<path d="M25.7009 148.726C29.2089 138.164 32.9367 127.14 40.1785 121.716C43.4654 119.205 47.5893 118.265 52.2612 118.963C56.6649 119.656 61.3187 121.298 65.88 122.602C70.4412 123.907 75.0734 124.903 78.9884 124.144C82.8339 123.386 85.8629 120.859 87.7848 116.807C91.6289 108.84 91.6534 96.6297 95.4108 88.5601C97.4172 84.3347 100.402 81.4431 104.161 80.0844C107.92 78.7257 112.362 78.9323 117.182 80.69C122.318 82.6084 127.693 85.8449 132.569 86.6035C137.168 87.3361 141.224 86.4316 144.443 83.9558C147.597 81.5244 149.846 77.6092 151.026 72.497C152.112 67.7948 152.095 62.1013 152.123 56.4865C152.149 51.2359 152.101 45.649 153.43 41.5708C154.938 36.9256 158.131 35.1406 162.314 35.2432C166.787 35.3454 171.924 37.3994 176.804 39.0059C182.031 40.7669 187.081 41.782 191.885 42.0371C201.362 42.4501 209.603 39.5503 216.07 33.5267C217.716 31.9677 219.243 30.2174 220.646 28.2826C221.493 27.1372 220.006 23.9495 218.719 22.4626C217.96 21.5633 217.13 20.9538 216.375 20.7424C215.621 20.531 214.991 20.7314 214.598 21.3079C209.107 28.6443 201.625 32.8428 192.696 33.5977C188.267 33.9965 183.51 33.5136 178.518 32.1587C173.548 30.8131 168.384 28.6598 163.483 27.5849C158.583 26.51 153.77 26.4111 150.575 29.3991C147.781 31.9559 146.486 36.538 146.034 41.9148C145.582 47.2916 145.835 52.933 145.633 58.3527C145.428 63.9894 144.565 68.8162 142.435 72.4521C140.275 76.003 137.123 78.0799 133.255 78.4998C129.129 78.946 124.469 76.9101 119.663 74.7331C114.242 72.268 109.158 70.6295 104.46 70.8913C100.012 71.1448 96.1765 72.9056 93.175 76.0727C90.3851 79.1343 88.3457 83.3194 87.15 88.4375C85.9469 93.2675 85.2047 98.5656 84.0062 103.393C82.8698 107.963 81.2687 112.179 78.3411 114.351C75.4135 116.522 71.3484 116.371 67.1842 115.499C57.9061 113.491 47.8052 108.649 40.0128 111.269C31.3467 114.187 26.3354 123.564 22.4676 133.867C21.511 136.463 20.6002 139.148 19.6986 141.852C18.5247 145.375 24.6668 152.12 25.7512 148.836L25.7009 148.726Z" fill="#F5F5F5"/>
<path d="M37.7043 172.3C41.2123 161.739 44.9401 150.714 52.182 145.291C55.4689 142.78 59.5928 141.84 64.2647 142.537C68.6684 143.23 73.3222 144.873 77.8834 146.177C82.4447 147.481 87.0768 148.477 90.9919 147.719C94.8374 146.96 97.8663 144.433 99.7882 140.381C103.632 132.415 103.657 120.204 107.414 112.135C109.421 107.909 112.406 105.017 116.164 103.659C119.923 102.3 124.365 102.507 129.185 104.264C134.322 106.183 139.696 109.419 144.572 110.178C149.171 110.91 153.228 110.006 156.447 107.53C159.6 105.099 161.849 101.184 163.03 96.0713C164.116 91.3691 164.098 85.6756 164.127 80.0609C164.153 74.8102 164.104 69.2234 165.434 65.1452C166.942 60.5 170.135 58.715 174.317 58.8177C178.791 58.9199 183.927 60.9739 188.808 62.5804C194.035 64.3414 199.085 65.3564 203.889 65.6116C213.366 66.0245 221.607 63.1248 228.074 57.1011C229.719 55.5421 231.246 53.7917 232.649 51.857C233.496 50.7115 232.009 47.5238 230.722 46.0369C229.963 45.1376 229.133 44.5282 228.379 44.3168C227.625 44.1055 226.995 44.3058 226.601 44.8823C221.11 52.2186 213.628 56.4171 204.7 57.172C200.27 57.5708 195.513 57.0879 190.522 55.733C185.552 54.3874 180.387 52.2343 175.487 51.1594C170.587 50.0844 165.773 49.9854 162.578 52.9734C159.807 55.5752 158.489 60.1124 158.037 65.4892C157.586 70.866 157.839 76.5075 157.637 81.9271C157.432 87.5639 156.569 92.3906 154.415 95.9815C152.256 99.5324 149.103 101.609 145.235 102.029C141.11 102.475 136.45 100.439 131.643 98.2625C126.223 95.7974 121.138 94.1589 116.44 94.4207C111.992 94.6742 108.157 96.435 105.155 99.6021C102.366 102.664 100.326 106.849 99.1305 111.967C97.9274 116.797 97.1853 122.095 95.9867 126.923C94.8503 131.492 93.2492 135.708 90.3216 137.88C87.394 140.051 83.329 139.9 79.1647 139.028C69.8866 137.021 59.7857 132.178 51.9934 134.798C43.3272 137.716 38.3159 147.094 34.4252 157.351C33.4686 159.947 32.5578 162.633 31.6562 165.337C30.4824 168.859 36.6244 175.605 37.7089 172.32L37.7043 172.3Z" fill="#F5F5F5"/>
<path d="M49.5422 195.532C53.0502 184.97 56.778 173.945 64.0198 168.522C67.3067 166.011 71.4306 165.071 76.1025 165.768C80.5062 166.461 85.16 168.104 89.7213 169.408C94.2826 170.713 98.9147 171.709 102.83 170.95C106.675 170.191 109.704 167.665 111.626 163.613C115.47 155.646 115.495 143.436 119.252 135.366C121.259 131.141 124.244 128.249 128.002 126.89C131.761 125.532 136.203 125.738 141.023 127.496C146.159 129.414 151.534 132.651 156.41 133.409C161.009 134.142 165.066 133.237 168.285 130.762C171.438 128.33 173.687 124.415 174.868 119.303C175.953 114.601 175.936 108.907 175.965 103.292C175.991 98.0417 175.942 92.4549 177.272 88.3767C178.78 83.7315 181.972 81.9464 186.155 82.0491C190.628 82.1513 195.765 84.2054 200.646 85.8119C205.872 87.5729 210.923 88.5879 215.726 88.843C225.204 89.256 233.444 86.3562 239.912 80.3326C241.557 78.7735 243.084 77.0232 244.487 75.0885C245.334 73.9431 243.847 70.7553 242.56 69.2684C241.801 68.3691 240.971 67.7596 240.217 67.5483C239.462 67.3369 238.833 67.5373 238.439 68.1138C232.948 75.4501 225.466 79.6486 216.538 80.4035C212.108 80.8023 207.351 80.3194 202.36 78.9645C197.39 77.6189 192.225 75.4657 187.325 74.3908C182.425 73.3158 177.611 73.2169 174.416 76.2049C171.622 78.7617 170.327 83.3439 169.875 88.7207C169.424 94.0975 169.677 99.7389 169.475 105.159C169.269 110.795 168.406 115.622 166.276 119.258C164.116 122.809 160.964 124.886 157.096 125.306C152.971 125.752 148.31 123.716 143.504 121.539C138.084 119.074 132.999 117.435 128.301 117.697C123.853 117.951 120.018 119.711 117.016 122.879C114.226 125.94 112.187 130.125 110.991 135.243C109.788 140.073 109.046 145.371 107.848 150.199C106.711 154.768 105.11 158.985 102.182 161.156C99.2548 163.328 95.1898 163.176 91.0255 162.305C81.7474 160.297 71.6465 155.455 63.8542 158.075C55.188 160.993 50.1767 170.37 46.286 180.628C45.3294 183.223 44.4186 185.909 43.517 188.613C42.3431 192.136 48.4852 198.881 49.5697 195.597L49.5422 195.532Z" fill="#F5F5F5"/>
</svg>
