<svg width="1919" height="260" viewBox="0 0 1919 260" fill="none" xmlns="http://www.w3.org/2000/svg">
<rect width="1919" height="260" fill="#242323"/>
<path d="M319.565 85.4771L314.152 93.6952C310.458 90.8741 307.463 87.2389 305.403 83.0722C303.342 78.9055 302.27 74.3196 302.27 69.6711H312.078C312.078 72.6957 312.749 75.6825 314.044 78.416C315.339 81.1494 317.224 83.5612 319.565 85.4771V85.4771Z" fill="#FEFFFF"/>
<path d="M340.872 61.6855C340.841 61.6451 340.807 61.6075 340.769 61.5733C340.681 61.4892 340.583 61.4175 340.476 61.3601C340.346 61.2912 340.207 61.2426 340.062 61.2161H340.019C339.942 61.2035 339.864 61.1985 339.785 61.2011C339.565 61.2075 339.349 61.2668 339.157 61.3738C338.964 61.4809 338.8 61.6327 338.678 61.8164L337.698 63.2978L321.916 87.1516L316.504 95.3342L312.185 101.863L308.781 107.011L308.024 108.153L306.638 110.252L305.89 111.395L298.151 123.095C298.053 123.243 298 123.416 298 123.593C298 123.769 298.051 123.943 298.148 124.091C298.245 124.239 298.383 124.355 298.545 124.426C298.708 124.496 298.887 124.517 299.061 124.487V124.487C299.185 124.465 299.303 124.418 299.408 124.348C299.512 124.279 299.601 124.188 299.669 124.083L307.524 111.776C307.6 111.66 307.703 111.566 307.825 111.5C307.946 111.435 308.082 111.401 308.22 111.402V111.402C308.365 111.402 308.508 111.44 308.634 111.513C308.759 111.585 308.863 111.69 308.936 111.816C309.008 111.942 309.045 112.084 309.044 112.229C309.044 112.375 309.005 112.517 308.931 112.642L307.764 114.643L306.528 116.727L305.86 117.871L303.556 121.823C303.449 122.008 303.397 122.219 303.406 122.432C303.414 122.646 303.484 122.852 303.606 123.027C303.728 123.202 303.897 123.339 304.094 123.421C304.291 123.503 304.507 123.528 304.717 123.492C304.882 123.462 305.037 123.397 305.173 123.3C305.309 123.203 305.422 123.077 305.503 122.931L308.028 118.414C308.121 118.248 308.256 118.109 308.421 118.013C308.585 117.917 308.772 117.867 308.963 117.868V117.868C309.146 117.868 309.326 117.915 309.486 118.005C309.645 118.095 309.779 118.224 309.874 118.38C309.97 118.537 310.023 118.715 310.029 118.898C310.036 119.081 309.995 119.263 309.911 119.426L309.137 120.922C309.042 121.104 309.001 121.309 309.017 121.514C309.033 121.719 309.105 121.915 309.227 122.081C309.349 122.246 309.514 122.374 309.705 122.451C309.895 122.527 310.103 122.549 310.306 122.513V122.513C310.476 122.483 310.637 122.413 310.776 122.309C310.915 122.205 311.027 122.07 311.104 121.915L313.092 117.869L313.653 116.725L314.684 114.628L315.281 113.414C315.355 113.264 315.47 113.137 315.612 113.049C315.755 112.96 315.919 112.913 316.087 112.913H316.208C316.358 112.913 316.506 112.951 316.638 113.023C316.769 113.095 316.881 113.198 316.962 113.325C317.044 113.451 317.092 113.595 317.103 113.745C317.114 113.895 317.088 114.045 317.026 114.181L314.297 120.187C314.22 120.357 314.19 120.544 314.211 120.73C314.233 120.915 314.305 121.091 314.419 121.239C314.533 121.386 314.685 121.5 314.859 121.567C315.033 121.635 315.222 121.653 315.406 121.621V121.621C315.574 121.592 315.732 121.521 315.865 121.416C315.999 121.31 316.105 121.173 316.173 121.017L319.659 112.913L320.151 111.769L321.054 109.672L325.59 99.129L329.555 89.9084L341.085 63.1089C341.159 62.9384 341.197 62.7542 341.196 62.5683C341.195 62.2451 341.08 61.9325 340.872 61.6855V61.6855ZM314.164 101.858C314.269 101.858 314.371 101.885 314.462 101.938C314.553 101.99 314.628 102.065 314.68 102.156C314.732 102.247 314.759 102.35 314.759 102.454C314.759 102.559 314.731 102.661 314.678 102.752L312.481 106.522C312.395 106.669 312.272 106.791 312.124 106.875C311.976 106.96 311.809 107.005 311.639 107.005C311.532 107.004 311.428 106.975 311.336 106.921C311.245 106.866 311.169 106.788 311.118 106.695C311.067 106.601 311.042 106.495 311.045 106.389C311.049 106.282 311.081 106.178 311.138 106.088L313.663 102.133C313.716 102.048 313.79 101.979 313.878 101.931C313.966 101.883 314.064 101.858 314.164 101.858V101.858ZM309.232 109.075L309.606 108.494C309.674 108.388 309.767 108.3 309.877 108.24C309.987 108.179 310.111 108.148 310.236 108.148C310.368 108.148 310.496 108.183 310.61 108.249C310.723 108.315 310.817 108.409 310.882 108.523C310.948 108.636 310.982 108.765 310.982 108.896C310.982 109.028 310.947 109.156 310.882 109.27L310.534 109.868C310.466 109.983 310.37 110.077 310.254 110.143C310.139 110.208 310.008 110.243 309.875 110.242V110.242C309.739 110.242 309.606 110.206 309.489 110.136C309.372 110.067 309.275 109.968 309.209 109.849C309.144 109.73 309.111 109.595 309.115 109.459C309.119 109.323 309.16 109.19 309.232 109.075V109.075ZM310.717 116.727C310.542 116.728 310.37 116.682 310.218 116.594C310.067 116.506 309.942 116.379 309.856 116.226C309.77 116.074 309.727 115.901 309.73 115.726C309.734 115.551 309.784 115.38 309.875 115.231L310.717 113.839C310.801 113.7 310.919 113.586 311.059 113.507C311.2 113.427 311.36 113.386 311.521 113.386V113.386C311.684 113.385 311.844 113.426 311.986 113.506C312.128 113.586 312.247 113.701 312.331 113.841C312.414 113.98 312.46 114.139 312.463 114.302C312.467 114.465 312.428 114.626 312.35 114.769L311.585 116.201C311.502 116.359 311.377 116.492 311.224 116.585C311.071 116.677 310.896 116.726 310.717 116.727ZM317.542 111.77H317.531C317.378 111.771 317.228 111.732 317.094 111.658C316.961 111.584 316.849 111.477 316.768 111.347C316.687 111.218 316.641 111.07 316.633 110.917C316.626 110.765 316.657 110.613 316.725 110.476L316.872 110.175C316.947 110.025 317.061 109.898 317.204 109.809C317.346 109.721 317.511 109.674 317.678 109.674V109.674C317.828 109.674 317.976 109.712 318.108 109.783C318.24 109.855 318.351 109.959 318.432 110.085C318.514 110.211 318.562 110.356 318.573 110.505C318.584 110.655 318.558 110.805 318.496 110.942L318.359 111.243C318.288 111.4 318.173 111.533 318.028 111.627C317.883 111.721 317.714 111.77 317.542 111.77V111.77Z" fill="#FEFFFF"/>
<path d="M347.696 47.9084C347.878 50.0347 347.604 52.1753 346.892 54.187C346.712 54.7059 346.647 55.2581 346.704 55.8045C346.76 56.351 346.935 56.8785 347.217 57.3498C348.205 59.0261 348.538 61.0086 348.153 62.9158C348.135 62.9994 348.093 63.076 348.032 63.136C347.971 63.1959 347.894 63.2366 347.81 63.253C347.726 63.2693 347.639 63.2606 347.56 63.2279C347.481 63.1952 347.413 63.14 347.365 63.0691C346.369 61.6582 345.137 60.4306 343.722 59.4407C343.162 59.0481 342.577 58.6926 341.971 58.3765C341.302 58.0299 340.608 57.7336 339.895 57.49C338.33 56.9531 336.687 56.6794 335.032 56.6802C334.947 56.6812 334.862 56.6571 334.79 56.611C334.718 56.5649 334.66 56.4987 334.625 56.4205C334.59 56.3424 334.578 56.2556 334.591 56.1708C334.604 56.0861 334.642 56.007 334.699 55.9433C335.99 54.5738 337.728 53.7113 339.6 53.5119C340.131 53.4605 340.644 53.2955 341.106 53.0279C341.567 52.7604 341.966 52.3966 342.274 51.9614C343.518 50.1664 345.141 48.6656 347.027 47.5643C347.091 47.525 347.165 47.503 347.24 47.5003C347.316 47.4976 347.391 47.5143 347.458 47.5488C347.525 47.5834 347.582 47.6346 347.624 47.6975C347.666 47.7605 347.691 47.8331 347.696 47.9084V47.9084Z" fill="#FEFFFF"/>
<path d="M338.016 98.6161C339.583 98.6095 341.134 98.9233 342.576 99.5381C343.973 100.116 345.242 100.963 346.311 102.032C347.38 103.101 348.228 104.371 348.806 105.768C349.787 108.087 349.995 110.661 349.4 113.107C348.804 115.554 347.436 117.744 345.499 119.352C343.561 120.961 341.157 121.902 338.643 122.038C336.128 122.173 333.637 121.495 331.538 120.104C329.439 118.712 327.844 116.682 326.989 114.313C326.134 111.945 326.065 109.364 326.792 106.953C327.519 104.542 329.003 102.429 331.025 100.928C333.046 99.426 335.498 98.6154 338.016 98.6161V98.6161ZM334.391 113.953C335.232 114.801 336.342 115.33 337.53 115.452C338.719 115.573 339.912 115.277 340.907 114.616C341.902 113.955 342.637 112.97 342.986 111.827C343.335 110.685 343.277 109.457 342.822 108.352C342.366 107.248 341.541 106.336 340.488 105.772C339.435 105.208 338.219 105.028 337.047 105.26C335.876 105.493 334.821 106.126 334.064 107.05C333.307 107.973 332.893 109.132 332.895 110.326C332.883 111.001 333.01 111.672 333.268 112.296C333.526 112.92 333.91 113.485 334.395 113.954L334.391 113.953Z" fill="#FEFFFF"/>
<path d="M369.33 99.3848C371.264 100.367 372.605 101.748 373.352 103.527C374.098 105.307 374.472 107.574 374.474 110.328V121.03C374.468 121.221 374.39 121.402 374.255 121.537C374.12 121.672 373.939 121.75 373.748 121.755H368.622C368.525 121.758 368.429 121.739 368.339 121.701C368.25 121.663 368.171 121.606 368.105 121.535C368.039 121.469 367.986 121.39 367.95 121.303C367.914 121.217 367.895 121.124 367.896 121.03V110.328C367.896 109.142 367.683 108.15 367.258 107.35C366.909 106.635 366.369 106.031 365.698 105.604C365.185 105.339 364.616 105.204 364.039 105.209C363.223 105.222 362.414 105.366 361.643 105.637C360.593 105.984 359.581 106.436 358.623 106.988C358.496 107.036 358.389 107.124 358.317 107.239C358.246 107.355 358.215 107.49 358.228 107.625V121.03C358.228 121.219 358.153 121.401 358.019 121.535C357.953 121.606 357.873 121.663 357.784 121.701C357.695 121.739 357.599 121.757 357.503 121.755H352.563C352.468 121.755 352.374 121.736 352.288 121.698C352.201 121.66 352.123 121.604 352.058 121.535C351.989 121.47 351.934 121.392 351.896 121.305C351.858 121.218 351.838 121.125 351.837 121.03V99.6522C351.837 99.56 351.855 99.4686 351.891 99.3837C351.927 99.2988 351.98 99.2222 352.047 99.1585C352.114 99.0899 352.194 99.0359 352.283 98.9998C352.372 98.9638 352.467 98.9465 352.563 98.949H357.508C357.604 98.9468 357.699 98.9642 357.788 99.0003C357.877 99.0363 357.957 99.0902 358.024 99.1585C358.091 99.2222 358.144 99.2988 358.18 99.3837C358.216 99.4686 358.234 99.56 358.234 99.6522C358.231 99.7699 358.26 99.8861 358.318 99.9885C358.376 100.091 358.461 100.176 358.563 100.234C358.666 100.302 358.784 100.344 358.907 100.353C359.03 100.363 359.154 100.341 359.266 100.29C361.346 99.3386 363.177 98.7775 364.759 98.6067C366.326 98.4351 367.909 98.7046 369.33 99.3848V99.3848Z" fill="#FEFFFF"/>
<path d="M407.364 122.135C409.482 122.135 411.199 120.418 411.199 118.301C411.199 116.183 409.482 114.467 407.364 114.467C405.247 114.467 403.53 116.183 403.53 118.301C403.53 120.418 405.247 122.135 407.364 122.135Z" fill="#FEFFFF"/>
<path d="M397.183 117.282C397.135 117.24 397.076 117.214 397.013 117.206C396.95 117.197 396.886 117.208 396.829 117.235C394.824 118.15 392.56 118.329 390.435 117.741C388.311 117.153 386.461 115.835 385.211 114.02C385.181 113.982 385.153 113.942 385.129 113.9C385.064 113.787 385.029 113.66 385.024 113.529C385.02 113.399 385.048 113.27 385.104 113.152C385.163 112.994 385.271 112.858 385.412 112.766C385.554 112.673 385.721 112.628 385.89 112.638H399.53C399.728 112.639 399.92 112.573 400.076 112.451C400.231 112.336 400.339 112.169 400.381 111.981C400.707 109.574 400.26 107.125 399.104 104.988C397.973 102.808 396.161 101.057 393.943 100.002C393.415 99.746 392.869 99.5296 392.309 99.3549C390.401 98.7579 388.371 98.6642 386.416 99.083C384.461 99.5018 382.648 100.419 381.152 101.745C380.013 102.752 379.085 103.976 378.425 105.346C377.422 107.345 377.042 109.599 377.333 111.817C377.611 114.125 378.551 116.304 380.039 118.09C380.056 118.091 380.072 118.1 380.083 118.112C380.088 118.119 380.095 118.124 380.103 118.128C380.11 118.132 380.119 118.134 380.127 118.135C381.27 119.388 382.659 120.39 384.208 121.08C385.666 121.726 387.242 122.061 388.836 122.062C390.403 122.061 391.954 121.743 393.395 121.127C394.843 120.527 396.15 119.634 397.237 118.505C397.323 118.412 397.386 118.301 397.422 118.18C397.458 118.059 397.466 117.932 397.445 117.807C397.439 117.707 397.412 117.608 397.367 117.518C397.322 117.428 397.26 117.347 397.183 117.282ZM392.32 107.397C392.264 107.564 392.155 107.708 392.009 107.807C391.864 107.906 391.69 107.954 391.514 107.943H386.202C386.028 107.955 385.856 107.908 385.713 107.808C385.57 107.709 385.464 107.564 385.415 107.397C385.345 107.238 385.333 107.059 385.381 106.892C385.429 106.725 385.533 106.579 385.677 106.481C386.123 106.108 386.633 105.82 387.182 105.63C387.732 105.448 388.307 105.353 388.886 105.346C389.648 105.353 390.399 105.525 391.089 105.849C391.458 106.031 391.803 106.258 392.116 106.524C392.252 106.618 392.349 106.759 392.388 106.92C392.427 107.081 392.405 107.251 392.327 107.397H392.32Z" fill="#FEFFFF"/>
<circle cx="746.6" cy="86" r="25" fill="#DEF2F1"/>
<path d="M748.761 98.7779V87.6458H753.039L753.675 83.2872H748.761V80.511C748.761 79.2533 749.16 78.3921 751.216 78.3921H753.822V74.5062C752.554 74.387 751.28 74.3294 750.005 74.3337C746.224 74.3337 743.628 76.3602 743.628 80.0804V83.2791H739.377V87.6377H743.637V98.7779H748.761Z" fill="#3AAFA9"/>
<circle cx="828.6" cy="86" r="25" fill="#DEF2F1"/>
<path d="M828.035 80.2581C826.37 80.2581 824.773 80.9183 823.596 82.0936C822.419 83.2689 821.758 84.8629 821.758 86.525C821.758 88.1871 822.419 89.7812 823.596 90.9564C824.773 92.1317 826.37 92.792 828.035 92.792C829.699 92.792 831.296 92.1317 832.473 90.9564C833.65 89.7812 834.311 88.1871 834.311 86.525C834.311 84.8629 833.65 83.2689 832.473 82.0936C831.296 80.9183 829.699 80.2581 828.035 80.2581V80.2581ZM828.035 90.595C826.953 90.595 825.916 90.1661 825.151 89.4026C824.386 88.639 823.957 87.6035 823.957 86.5237C823.957 85.4439 824.386 84.4083 825.151 83.6448C825.916 82.8813 826.953 82.4523 828.035 82.4523C829.116 82.4523 830.153 82.8813 830.918 83.6448C831.683 84.4083 832.112 85.4439 832.112 86.5237C832.112 87.6035 831.683 88.639 830.918 89.4026C830.153 90.1661 829.116 90.595 828.035 90.595V90.595Z" fill="#3AAFA9"/>
<path d="M834.559 81.4895C835.368 81.4895 836.023 80.8353 836.023 80.0284C836.023 79.2215 835.368 78.5674 834.559 78.5674C833.751 78.5674 833.096 79.2215 833.096 80.0284C833.096 80.8353 833.751 81.4895 834.559 81.4895Z" fill="#3AAFA9"/>
<path d="M839.619 78.5431C839.304 77.7329 838.824 76.9971 838.209 76.3828C837.593 75.7686 836.856 75.2894 836.045 74.9759C835.095 74.62 834.092 74.4275 833.077 74.4067C831.77 74.3498 831.356 74.3335 828.041 74.3335C824.726 74.3335 824.302 74.3335 823.005 74.4067C821.992 74.4264 820.989 74.6189 820.041 74.9759C819.229 75.289 818.492 75.7681 817.876 76.3824C817.261 76.9967 816.78 77.7327 816.467 78.5431C816.11 79.4913 815.918 80.4932 815.898 81.5058C815.839 82.8096 815.822 83.223 815.822 86.534C815.822 89.8437 815.822 90.2652 815.898 91.5622C815.918 92.576 816.11 93.5762 816.467 94.5263C816.781 95.3365 817.262 96.0722 817.878 96.6864C818.493 97.3006 819.23 97.7799 820.042 98.0935C820.989 98.4638 821.992 98.67 823.008 98.7034C824.315 98.7603 824.729 98.7779 828.044 98.7779C831.359 98.7779 831.784 98.7779 833.08 98.7034C834.094 98.6828 835.097 98.4908 836.047 98.1355C836.859 97.8213 837.596 97.3417 838.211 96.7273C838.826 96.1129 839.307 95.3771 839.621 94.567C839.978 93.6183 840.17 92.618 840.19 91.6043C840.249 90.3005 840.266 89.8871 840.266 86.576C840.266 83.265 840.266 82.8449 840.19 81.5478C840.174 80.5209 839.981 79.5044 839.619 78.5431V78.5431ZM837.965 91.462C837.957 92.243 837.814 93.0168 837.543 93.7497C837.339 94.2768 837.027 94.7554 836.627 95.1548C836.227 95.5541 835.747 95.8654 835.219 96.0687C834.493 96.3376 833.727 96.4802 832.952 96.4902C831.663 96.5498 831.299 96.5647 827.992 96.5647C824.683 96.5647 824.345 96.5647 823.031 96.4902C822.257 96.4807 821.491 96.3381 820.766 96.0687C820.236 95.8667 819.754 95.5559 819.352 95.1565C818.95 94.757 818.637 94.2778 818.432 93.7497C818.165 93.0247 818.023 92.26 818.01 91.4877C817.952 90.2002 817.938 89.8369 817.938 86.5354C817.938 83.2325 817.938 82.895 818.01 81.5817C818.019 80.8011 818.162 80.0277 818.432 79.2953C818.846 78.226 819.695 77.3843 820.766 76.975C821.491 76.7068 822.257 76.5643 823.031 76.5535C824.322 76.4952 824.684 76.479 827.992 76.479C831.3 76.479 831.64 76.479 832.952 76.5535C833.727 76.5628 834.494 76.7054 835.219 76.975C835.747 77.1787 836.227 77.4903 836.627 77.8899C837.027 78.2895 837.339 78.7682 837.543 79.2953C837.81 80.0203 837.953 80.785 837.965 81.5573C838.024 82.8462 838.039 83.2081 838.039 86.511C838.039 89.8125 838.039 90.1676 837.98 91.4633H837.965V91.462Z" fill="#3AAFA9"/>
<circle cx="910.6" cy="86" r="25" fill="#DEF2F1"/>
<path d="M900.538 79.8858C902.16 79.8858 903.475 78.5682 903.475 76.9429C903.475 75.3176 902.16 74 900.538 74C898.915 74 897.6 75.3176 897.6 76.9429C897.6 78.5682 898.915 79.8858 900.538 79.8858Z" fill="#3AAFA9"/>
<path d="M906.25 82.1164V98.4436H911.31V90.3694C911.31 88.2389 911.71 86.1757 914.348 86.1757C916.949 86.1757 916.981 88.6115 916.981 90.5039V98.445H922.044V89.4911C922.044 85.0929 921.099 81.7129 915.967 81.7129C913.503 81.7129 911.851 83.0673 911.176 84.3491H911.108V82.1164H906.25V82.1164ZM898.002 82.1164H903.071V98.4436H898.002V82.1164Z" fill="#3AAFA9"/>
<circle cx="992.6" cy="86" r="25" fill="#DEF2F1"/>
<path d="M1001.75 80.4255C1001.77 80.6935 1001.77 80.9599 1001.77 81.2264C1001.77 89.3812 996.73 98.7779 987.516 98.7779C984.678 98.7779 982.041 97.7657 979.822 96.0076C980.225 96.0643 980.613 96.0842 981.032 96.0842C983.287 96.0909 985.478 95.1625 987.253 93.4486C986.207 93.4253 985.194 93.0006 984.353 92.2338C983.513 91.467 982.889 90.3963 982.567 89.1714C982.877 89.228 983.188 89.2663 983.514 89.2663C983.963 89.2663 984.414 89.1898 984.833 89.0565C983.699 88.7745 982.678 88.0172 981.946 86.9136C981.213 85.81 980.814 84.428 980.816 83.0028V82.9263C981.484 83.3842 982.259 83.6705 983.079 83.7088C982.392 83.1462 981.828 82.3826 981.438 81.4864C981.048 80.5902 980.845 79.5891 980.845 78.5725C980.845 77.427 981.093 76.3764 981.527 75.4606C982.786 77.3673 984.356 78.9271 986.136 80.039C987.916 81.151 989.865 81.7903 991.859 81.9155C991.782 81.4561 991.734 80.9798 991.734 80.502C991.734 79.6919 991.863 78.8895 992.115 78.141C992.367 77.3924 992.736 76.7122 993.201 76.1393C993.666 75.5664 994.219 75.1121 994.827 74.8022C995.435 74.4924 996.087 74.3331 996.745 74.3335C998.187 74.3335 999.49 75.0778 1000.41 76.2815C1001.53 76.0144 1002.6 75.5103 1003.58 74.7914C1003.21 76.2169 1002.43 77.4256 1001.38 78.1911C1002.38 78.0514 1003.35 77.7293 1004.27 77.2355C1003.58 78.4654 1002.73 79.5439 1001.75 80.4255V80.4255Z" fill="#3AAFA9"/>
<path d="M1336.69 57H1339.06L1335.04 45.816H1332.43L1328.42 57H1330.77L1331.5 54.872H1335.95L1336.69 57ZM1335.34 53.08H1332.11L1333.73 48.408L1335.34 53.08ZM1339.61 48.136L1342.88 57H1345.6L1348.88 48.136H1346.49L1344.25 54.936L1342.01 48.136H1339.61ZM1349.56 52.536C1349.56 55.304 1351.35 57.144 1353.59 57.144C1355 57.144 1356.01 56.472 1356.54 55.704V57H1358.79V48.136H1356.54V49.4C1356.01 48.664 1355.03 47.992 1353.61 47.992C1351.35 47.992 1349.56 49.768 1349.56 52.536ZM1356.54 52.568C1356.54 54.248 1355.42 55.176 1354.18 55.176C1352.98 55.176 1351.85 54.216 1351.85 52.536C1351.85 50.856 1352.98 49.96 1354.18 49.96C1355.42 49.96 1356.54 50.888 1356.54 52.568ZM1360.98 57H1363.22V45.16H1360.98V57ZM1365.43 57H1367.67V48.136H1365.43V57ZM1366.57 47.08C1367.35 47.08 1367.94 46.504 1367.94 45.768C1367.94 45.032 1367.35 44.456 1366.57 44.456C1365.77 44.456 1365.19 45.032 1365.19 45.768C1365.19 46.504 1365.77 47.08 1366.57 47.08ZM1369.31 52.536C1369.31 55.304 1371.1 57.144 1373.34 57.144C1374.75 57.144 1375.76 56.472 1376.29 55.704V57H1378.54V48.136H1376.29V49.4C1375.76 48.664 1374.78 47.992 1373.36 47.992C1371.1 47.992 1369.31 49.768 1369.31 52.536ZM1376.29 52.568C1376.29 54.248 1375.17 55.176 1373.93 55.176C1372.73 55.176 1371.6 54.216 1371.6 52.536C1371.6 50.856 1372.73 49.96 1373.93 49.96C1375.17 49.96 1376.29 50.888 1376.29 52.568ZM1382.97 49.432V45.16H1380.73V57H1382.97V55.736C1383.51 56.504 1384.51 57.144 1385.9 57.144C1388.17 57.144 1389.95 55.304 1389.95 52.536C1389.95 49.768 1388.17 47.992 1385.9 47.992C1384.55 47.992 1383.51 48.616 1382.97 49.432ZM1387.66 52.536C1387.66 54.216 1386.52 55.176 1385.31 55.176C1384.11 55.176 1382.97 54.248 1382.97 52.568C1382.97 50.888 1384.11 49.96 1385.31 49.96C1386.52 49.96 1387.66 50.856 1387.66 52.536ZM1391.57 57H1393.81V45.16H1391.57V57ZM1399.83 49.832C1400.99 49.832 1401.91 50.568 1401.95 51.736H1397.74C1397.91 50.52 1398.76 49.832 1399.83 49.832ZM1404.04 54.216H1401.63C1401.34 54.808 1400.81 55.288 1399.85 55.288C1398.73 55.288 1397.83 54.552 1397.72 53.24H1404.2C1404.25 52.952 1404.27 52.664 1404.27 52.376C1404.27 49.736 1402.46 47.992 1399.9 47.992C1397.27 47.992 1395.45 49.768 1395.45 52.568C1395.45 55.352 1397.32 57.144 1399.9 57.144C1402.09 57.144 1403.56 55.848 1404.04 54.216ZM1417.03 45.816V53.496L1411.95 45.816H1409.71V57H1411.95V49.336L1417.03 57H1419.27V45.816H1417.03ZM1430.04 52.568C1430.04 49.768 1428.04 47.992 1425.48 47.992C1422.92 47.992 1420.92 49.768 1420.92 52.568C1420.92 55.352 1422.86 57.144 1425.42 57.144C1427.99 57.144 1430.04 55.352 1430.04 52.568ZM1423.19 52.568C1423.19 50.792 1424.26 49.944 1425.45 49.944C1426.63 49.944 1427.74 50.792 1427.74 52.568C1427.74 54.328 1426.6 55.192 1425.42 55.192C1424.22 55.192 1423.19 54.328 1423.19 52.568ZM1433.3 57H1435.73L1437.35 50.808L1438.96 57H1441.38L1443.97 48.136H1441.83L1440.26 54.872L1438.59 48.136H1436.23L1434.53 54.888L1432.96 48.136H1430.69L1433.3 57ZM1459.89 51.384C1459.89 48.04 1457.36 45.672 1454.18 45.672C1451.03 45.672 1448.45 48.04 1448.45 51.384C1448.45 54.744 1451.03 57.112 1454.18 57.112C1457.35 57.112 1459.89 54.744 1459.89 51.384ZM1450.75 51.384C1450.75 49.112 1452.15 47.688 1454.18 47.688C1456.19 47.688 1457.59 49.112 1457.59 51.384C1457.59 53.656 1456.19 55.112 1454.18 55.112C1452.15 55.112 1450.75 53.656 1450.75 51.384ZM1467.77 57H1470.01V51.8C1470.01 49.352 1468.53 48.008 1466.47 48.008C1465.33 48.008 1464.37 48.488 1463.8 49.24V48.136H1461.56V57H1463.8V52.104C1463.8 50.68 1464.58 49.912 1465.8 49.912C1466.98 49.912 1467.77 50.68 1467.77 52.104V57Z" fill="white"/>
<rect x="1328" y="88" width="135" height="45" rx="10" fill="url(#paint0_linear_38_1573)"/>
<path d="M1356.25 111.079C1356.24 109.414 1356.99 108.159 1358.52 107.233C1357.66 106.013 1356.37 105.341 1354.67 105.212C1353.07 105.085 1351.31 106.149 1350.66 106.149C1349.98 106.149 1348.42 105.256 1347.2 105.256C1344.67 105.295 1341.98 107.272 1341.98 111.296C1341.98 112.485 1342.2 113.713 1342.63 114.978C1343.21 116.643 1345.31 120.722 1347.49 120.656C1348.63 120.629 1349.44 119.846 1350.93 119.846C1352.37 119.846 1353.12 120.656 1354.39 120.656C1356.6 120.625 1358.49 116.916 1359.04 115.246C1356.09 113.852 1356.25 111.164 1356.25 111.079V111.079ZM1353.68 103.632C1354.92 102.163 1354.81 100.825 1354.77 100.344C1353.68 100.407 1352.41 101.088 1351.69 101.926C1350.9 102.824 1350.43 103.935 1350.53 105.187C1351.71 105.278 1352.79 104.67 1353.68 103.632V103.632Z" fill="white"/>
<path d="M1381.69 116H1384.06L1380.04 104.816H1377.43L1373.42 116H1375.77L1376.5 113.872H1380.95L1381.69 116ZM1380.34 112.08H1377.11L1378.73 107.408L1380.34 112.08ZM1387.8 108.416V107.136H1385.56V120.224H1387.8V114.736C1388.34 115.456 1389.33 116.144 1390.73 116.144C1393 116.144 1394.77 114.304 1394.77 111.536C1394.77 108.768 1393 106.992 1390.73 106.992C1389.35 106.992 1388.33 107.664 1387.8 108.416ZM1392.49 111.536C1392.49 113.216 1391.35 114.176 1390.13 114.176C1388.93 114.176 1387.8 113.248 1387.8 111.568C1387.8 109.888 1388.93 108.96 1390.13 108.96C1391.35 108.96 1392.49 109.856 1392.49 111.536ZM1398.64 108.416V107.136H1396.4V120.224H1398.64V114.736C1399.18 115.456 1400.18 116.144 1401.57 116.144C1403.84 116.144 1405.62 114.304 1405.62 111.536C1405.62 108.768 1403.84 106.992 1401.57 106.992C1400.19 106.992 1399.17 107.664 1398.64 108.416ZM1403.33 111.536C1403.33 113.216 1402.19 114.176 1400.98 114.176C1399.78 114.176 1398.64 113.248 1398.64 111.568C1398.64 109.888 1399.78 108.96 1400.98 108.96C1402.19 108.96 1403.33 109.856 1403.33 111.536ZM1418.87 112.768C1418.87 108.832 1413.14 110.08 1413.14 107.84C1413.14 106.928 1413.79 106.496 1414.67 106.528C1415.63 106.544 1416.23 107.12 1416.27 107.856H1418.74C1418.59 105.84 1417.03 104.672 1414.74 104.672C1412.43 104.672 1410.8 105.888 1410.8 107.904C1410.79 111.952 1416.55 110.496 1416.55 112.912C1416.55 113.712 1415.92 114.272 1414.87 114.272C1413.83 114.272 1413.23 113.68 1413.17 112.784H1410.77C1410.8 114.896 1412.59 116.112 1414.91 116.112C1417.46 116.112 1418.87 114.528 1418.87 112.768ZM1421.16 113.248C1421.16 115.28 1422.3 116 1423.99 116H1425.4V114.112H1424.36C1423.66 114.112 1423.42 113.856 1423.42 113.264V108.976H1425.4V107.136H1423.42V104.944H1421.16V107.136H1420.1V108.976H1421.16V113.248ZM1435.57 111.568C1435.57 108.768 1433.57 106.992 1431.01 106.992C1428.45 106.992 1426.45 108.768 1426.45 111.568C1426.45 114.352 1428.39 116.144 1430.95 116.144C1433.52 116.144 1435.57 114.352 1435.57 111.568ZM1428.72 111.568C1428.72 109.792 1429.79 108.944 1430.98 108.944C1432.16 108.944 1433.27 109.792 1433.27 111.568C1433.27 113.328 1432.13 114.192 1430.95 114.192C1429.75 114.192 1428.72 113.328 1428.72 111.568ZM1439.45 111.584C1439.45 109.872 1440.25 109.36 1441.58 109.36H1442.17V107.008C1440.94 107.008 1440.01 107.6 1439.45 108.512V107.136H1437.21V116H1439.45V111.584ZM1447.49 108.832C1448.64 108.832 1449.57 109.568 1449.6 110.736H1445.39C1445.57 109.52 1446.42 108.832 1447.49 108.832ZM1451.7 113.216H1449.28C1448.99 113.808 1448.47 114.288 1447.51 114.288C1446.39 114.288 1445.49 113.552 1445.38 112.24H1451.86C1451.91 111.952 1451.92 111.664 1451.92 111.376C1451.92 108.736 1450.11 106.992 1447.55 106.992C1444.93 106.992 1443.11 108.768 1443.11 111.568C1443.11 114.352 1444.98 116.144 1447.55 116.144C1449.75 116.144 1451.22 114.848 1451.7 113.216Z" fill="white"/>
<rect x="1487.5" y="88.5" width="134" height="44" rx="9.5" fill="white"/>
<g clip-path="url(#clip0_38_1573)">
<path d="M1514.44 114.589C1517.61 112.849 1520.01 111.523 1520.22 111.42C1520.88 111.067 1521.57 110.135 1520.22 109.41C1519.78 109.182 1517.44 107.897 1514.44 106.24L1510.27 110.446L1514.44 114.589V114.589Z" fill="#FFD900"/>
<path d="M1510.27 110.446L1497.02 123.809C1497.33 123.851 1497.68 123.768 1498.09 123.54C1498.96 123.064 1508.18 118.029 1514.44 114.59L1510.27 110.446Z" fill="#F43249"/>
<path d="M1510.27 110.446L1514.44 106.261C1514.44 106.261 1499.02 97.8486 1498.09 97.352C1497.74 97.1439 1497.35 97.0821 1496.99 97.1439L1510.27 110.446V110.446Z" fill="#00EE76"/>
<path d="M1510.27 110.446L1496.99 97.144C1496.46 97.2687 1496 97.7448 1496 98.7187V122.235C1496 123.126 1496.35 123.768 1497.02 123.83L1510.27 110.446Z" fill="#00D3FF"/>
</g>
<path d="M1534.34 109.904V106.656H1536.12C1537.38 106.656 1537.94 107.264 1537.94 108.288C1537.94 109.28 1537.38 109.904 1536.12 109.904H1534.34ZM1540.25 108.288C1540.25 106.352 1538.9 104.832 1536.22 104.832H1532.1V116H1534.34V111.712H1536.22C1539.1 111.712 1540.25 109.984 1540.25 108.288ZM1541.84 116H1544.08V104.16H1541.84V116ZM1545.72 111.536C1545.72 114.304 1547.51 116.144 1549.75 116.144C1551.16 116.144 1552.16 115.472 1552.69 114.704V116H1554.95V107.136H1552.69V108.4C1552.16 107.664 1551.19 106.992 1549.76 106.992C1547.51 106.992 1545.72 108.768 1545.72 111.536ZM1552.69 111.568C1552.69 113.248 1551.57 114.176 1550.34 114.176C1549.14 114.176 1548 113.216 1548 111.536C1548 109.856 1549.14 108.96 1550.34 108.96C1551.57 108.96 1552.69 109.888 1552.69 111.568ZM1560.91 113.328L1558.62 107.136H1556.11L1559.66 115.776L1557.74 120.192H1560.13L1565.62 107.136H1563.23L1560.91 113.328ZM1578.44 112.768C1578.44 108.832 1572.72 110.08 1572.72 107.84C1572.72 106.928 1573.37 106.496 1574.25 106.528C1575.21 106.544 1575.8 107.12 1575.85 107.856H1578.32C1578.17 105.84 1576.6 104.672 1574.32 104.672C1572.01 104.672 1570.38 105.888 1570.38 107.904C1570.36 111.952 1576.12 110.496 1576.12 112.912C1576.12 113.712 1575.5 114.272 1574.44 114.272C1573.4 114.272 1572.81 113.68 1572.75 112.784H1570.35C1570.38 114.896 1572.17 116.112 1574.49 116.112C1577.04 116.112 1578.44 114.528 1578.44 112.768ZM1580.74 113.248C1580.74 115.28 1581.87 116 1583.57 116H1584.98V114.112H1583.94C1583.23 114.112 1582.99 113.856 1582.99 113.264V108.976H1584.98V107.136H1582.99V104.944H1580.74V107.136H1579.68V108.976H1580.74V113.248ZM1595.15 111.568C1595.15 108.768 1593.15 106.992 1590.59 106.992C1588.03 106.992 1586.03 108.768 1586.03 111.568C1586.03 114.352 1587.96 116.144 1590.52 116.144C1593.1 116.144 1595.15 114.352 1595.15 111.568ZM1588.3 111.568C1588.3 109.792 1589.37 108.944 1590.56 108.944C1591.74 108.944 1592.84 109.792 1592.84 111.568C1592.84 113.328 1591.71 114.192 1590.52 114.192C1589.32 114.192 1588.3 113.328 1588.3 111.568ZM1599.03 111.584C1599.03 109.872 1599.83 109.36 1601.16 109.36H1601.75V107.008C1600.52 107.008 1599.59 107.6 1599.03 108.512V107.136H1596.79V116H1599.03V111.584ZM1607.07 108.832C1608.22 108.832 1609.15 109.568 1609.18 110.736H1604.97C1605.15 109.52 1606 108.832 1607.07 108.832ZM1611.28 113.216H1608.86C1608.57 113.808 1608.04 114.288 1607.08 114.288C1605.96 114.288 1605.07 113.552 1604.96 112.24H1611.44C1611.48 111.952 1611.5 111.664 1611.5 111.376C1611.5 108.736 1609.69 106.992 1607.13 106.992C1604.51 106.992 1602.68 108.768 1602.68 111.568C1602.68 114.352 1604.56 116.144 1607.13 116.144C1609.32 116.144 1610.8 114.848 1611.28 113.216Z" fill="#3AAFA9"/>
<rect x="1487.5" y="88.5" width="134" height="44" rx="9.5" stroke="#3AAFA9"/>
<path d="M308.72 226H310.256L306.24 214.912H304.56L300.528 226H302.064L302.96 223.52H307.824L308.72 226ZM307.408 222.336H303.376L305.392 216.704L307.408 222.336ZM312.013 226H313.469V214.16H312.013V226ZM315.951 226H317.407V214.16H315.951V226ZM325.61 221.232C325.61 219.2 326.666 218.576 328.058 218.576H328.442V217.072C327.05 217.072 326.106 217.68 325.61 218.656V217.232H324.154V226H325.61V221.232ZM330.123 226H331.579V217.232H330.123V226ZM330.875 215.808C331.403 215.808 331.835 215.376 331.835 214.816C331.835 214.256 331.403 213.824 330.875 213.824C330.315 213.824 329.883 214.256 329.883 214.816C329.883 215.376 330.315 215.808 330.875 215.808ZM333.516 221.584C333.516 224.304 335.324 226.144 337.676 226.144C339.276 226.144 340.412 225.296 340.94 224.352V226.192C340.94 228.064 339.772 229.056 338.22 229.056C336.78 229.056 335.74 228.336 335.42 227.28H333.98C334.268 229.152 335.916 230.32 338.22 230.32C340.796 230.32 342.412 228.608 342.412 226.192V217.232H340.94V218.832C340.428 217.888 339.276 217.088 337.676 217.088C335.324 217.088 333.516 218.848 333.516 221.584ZM340.94 221.6C340.94 223.664 339.564 224.864 337.964 224.864C336.364 224.864 335.004 223.648 335.004 221.584C335.004 219.52 336.364 218.352 337.964 218.352C339.564 218.352 340.94 219.568 340.94 221.6ZM344.873 226H346.329V221.152C346.329 219.264 347.353 218.336 348.841 218.336C350.313 218.336 351.289 219.248 351.289 221.04V226H352.729V220.832C352.729 218.32 351.177 217.072 349.225 217.072C347.993 217.072 346.905 217.568 346.329 218.496V214.16H344.873V226ZM355.427 223.6C355.427 225.36 356.307 226 357.859 226H359.171V224.768H358.099C357.203 224.768 356.883 224.464 356.883 223.6V218.432H359.171V217.232H356.883V215.024H355.427V217.232H354.291V218.432H355.427V223.6ZM367.239 223.616C367.175 220.48 362.087 221.616 362.087 219.536C362.087 218.832 362.727 218.32 363.799 218.32C364.967 218.32 365.639 218.96 365.703 219.84H367.159C367.063 218.128 365.783 217.088 363.847 217.088C361.895 217.088 360.631 218.192 360.631 219.536C360.631 222.8 365.815 221.664 365.815 223.616C365.815 224.336 365.175 224.912 364.023 224.912C362.791 224.912 362.039 224.272 361.959 223.424H360.455C360.551 225.024 361.991 226.144 364.039 226.144C365.975 226.144 367.239 225.056 367.239 223.616ZM375.016 221.232C375.016 219.2 376.072 218.576 377.464 218.576H377.848V217.072C376.456 217.072 375.512 217.68 375.016 218.656V217.232H373.56V226H375.016V221.232ZM383.257 218.32C384.761 218.32 386.041 219.264 386.025 220.976H380.489C380.649 219.264 381.833 218.32 383.257 218.32ZM387.353 223.296H385.785C385.465 224.24 384.633 224.912 383.321 224.912C381.833 224.912 380.585 223.936 380.473 222.16H387.481C387.513 221.856 387.529 221.6 387.529 221.28C387.529 218.88 385.865 217.088 383.321 217.088C380.761 217.088 378.985 218.832 378.985 221.6C378.985 224.384 380.825 226.144 383.321 226.144C385.497 226.144 386.905 224.896 387.353 223.296ZM395.755 223.616C395.691 220.48 390.603 221.616 390.603 219.536C390.603 218.832 391.243 218.32 392.315 218.32C393.483 218.32 394.155 218.96 394.219 219.84H395.675C395.579 218.128 394.299 217.088 392.363 217.088C390.411 217.088 389.147 218.192 389.147 219.536C389.147 222.8 394.331 221.664 394.331 223.616C394.331 224.336 393.691 224.912 392.539 224.912C391.307 224.912 390.555 224.272 390.475 223.424H388.971C389.067 225.024 390.507 226.144 392.555 226.144C394.491 226.144 395.755 225.056 395.755 223.616ZM401.538 218.32C403.042 218.32 404.322 219.264 404.306 220.976H398.77C398.93 219.264 400.114 218.32 401.538 218.32ZM405.634 223.296H404.066C403.746 224.24 402.914 224.912 401.602 224.912C400.114 224.912 398.866 223.936 398.754 222.16H405.762C405.794 221.856 405.81 221.6 405.81 221.28C405.81 218.88 404.146 217.088 401.602 217.088C399.042 217.088 397.266 218.832 397.266 221.6C397.266 224.384 399.106 226.144 401.602 226.144C403.778 226.144 405.186 224.896 405.634 223.296ZM409.188 221.232C409.188 219.2 410.244 218.576 411.636 218.576H412.02V217.072C410.628 217.072 409.684 217.68 409.188 218.656V217.232H407.732V226H409.188V221.232ZM412.661 217.232L416.101 226H417.797L421.237 217.232H419.685L416.965 224.656L414.229 217.232H412.661ZM426.398 218.32C427.902 218.32 429.182 219.264 429.166 220.976H423.63C423.789 219.264 424.974 218.32 426.398 218.32ZM430.494 223.296H428.926C428.606 224.24 427.774 224.912 426.462 224.912C424.974 224.912 423.726 223.936 423.614 222.16H430.622C430.654 221.856 430.67 221.6 430.67 221.28C430.67 218.88 429.006 217.088 426.462 217.088C423.902 217.088 422.126 218.832 422.126 221.6C422.126 224.384 423.966 226.144 426.462 226.144C428.638 226.144 430.046 224.896 430.494 223.296ZM432.047 221.584C432.047 224.304 433.855 226.144 436.207 226.144C437.807 226.144 438.943 225.328 439.471 224.352V226H440.943V214.16H439.471V218.8C438.863 217.792 437.599 217.088 436.223 217.088C433.855 217.088 432.047 218.848 432.047 221.584ZM439.471 221.6C439.471 223.664 438.095 224.864 436.495 224.864C434.895 224.864 433.535 223.648 433.535 221.584C433.535 219.52 434.895 218.352 436.495 218.352C438.095 218.352 439.471 219.568 439.471 221.6ZM447.67 226H449.126V220.976H453.062V219.792H449.126V216.032H453.974V214.848H447.67V226ZM464.052 221.6C464.052 218.832 462.116 217.088 459.62 217.088C457.14 217.088 455.188 218.832 455.188 221.6C455.188 224.384 457.076 226.144 459.556 226.144C462.052 226.144 464.052 224.384 464.052 221.6ZM456.676 221.6C456.676 219.392 458.068 218.352 459.604 218.352C461.108 218.352 462.564 219.392 462.564 221.6C462.564 223.824 461.076 224.864 459.556 224.864C458.036 224.864 456.676 223.824 456.676 221.6ZM467.422 221.232C467.422 219.2 468.478 218.576 469.87 218.576H470.254V217.072C468.862 217.072 467.918 217.68 467.422 218.656V217.232H465.966V226H467.422V221.232ZM518.453 225.104C518.453 224.544 518.021 224.112 517.493 224.112C516.933 224.112 516.501 224.544 516.501 225.104C516.501 225.664 516.933 226.096 517.493 226.096C518.021 226.096 518.453 225.664 518.453 225.104ZM519.844 221.6C519.844 224.384 521.62 226.144 524.116 226.144C526.292 226.144 527.716 224.928 528.164 223.184H526.596C526.276 224.288 525.412 224.912 524.116 224.912C522.516 224.912 521.332 223.776 521.332 221.6C521.332 219.456 522.516 218.32 524.116 218.32C525.412 218.32 526.292 218.992 526.596 220.048H528.164C527.716 218.208 526.292 217.088 524.116 217.088C521.62 217.088 519.844 218.848 519.844 221.6ZM538.427 221.6C538.427 218.832 536.491 217.088 533.995 217.088C531.515 217.088 529.563 218.832 529.563 221.6C529.563 224.384 531.451 226.144 533.931 226.144C536.427 226.144 538.427 224.384 538.427 221.6ZM531.051 221.6C531.051 219.392 532.443 218.352 533.979 218.352C535.483 218.352 536.939 219.392 536.939 221.6C536.939 223.824 535.451 224.864 533.931 224.864C532.411 224.864 531.051 223.824 531.051 221.6ZM552.997 226H554.437V220.832C554.437 218.32 552.885 217.072 550.885 217.072C549.541 217.072 548.293 217.76 547.781 219.024C547.205 217.712 546.005 217.072 544.565 217.072C543.413 217.072 542.373 217.568 541.797 218.496V217.232H540.341V226H541.797V221.168C541.797 219.28 542.805 218.336 544.277 218.336C545.717 218.336 546.677 219.248 546.677 221.04V226H548.117V221.168C548.117 219.28 549.125 218.336 550.597 218.336C552.037 218.336 552.997 219.248 552.997 221.04V226ZM560.643 220.416C560.643 223.744 562.915 226.096 566.211 226.096C569.491 226.096 571.747 223.744 571.747 220.416C571.747 217.088 569.491 214.736 566.211 214.736C562.915 214.736 560.643 217.088 560.643 220.416ZM571.059 220.416C571.059 223.408 569.187 225.472 566.211 225.472C563.203 225.472 561.331 223.408 561.331 220.416C561.331 217.408 563.203 215.376 566.211 215.376C569.187 215.376 571.059 217.408 571.059 220.416ZM569.459 219.088H568.115C567.843 218.224 567.091 217.76 566.179 217.76C564.963 217.76 564.003 218.656 564.003 220.416C564.003 222.16 564.963 223.056 566.179 223.056C567.171 223.056 567.811 222.576 568.115 221.728H569.459C569.043 223.168 567.795 224.112 566.179 224.112C564.259 224.112 562.707 222.704 562.707 220.4C562.707 218.096 564.259 216.704 566.179 216.704C567.795 216.704 569.043 217.568 569.459 219.088ZM573.347 225.872H581.043V224.656H575.539C577.603 222.976 580.707 220.528 580.707 217.648C580.707 215.504 579.299 214.224 577.123 214.224C575.043 214.224 573.491 215.504 573.395 217.968H574.803C574.867 216.512 575.635 215.472 577.139 215.472C578.707 215.472 579.267 216.432 579.267 217.712C579.267 220.08 576.387 222.384 573.347 224.832V225.872ZM582.726 220.096C582.726 223.456 583.558 226 586.758 226C589.942 226 590.774 223.456 590.774 220.096C590.774 216.784 589.942 214.256 586.758 214.256C583.558 214.256 582.726 216.784 582.726 220.096ZM589.334 220.096C589.334 222.592 589.03 224.672 586.758 224.672C584.47 224.672 584.166 222.592 584.166 220.096C584.166 217.696 584.47 215.584 586.758 215.584C589.03 215.584 589.334 217.696 589.334 220.096ZM592.597 225.872H600.293V224.656H594.789C596.853 222.976 599.957 220.528 599.957 217.648C599.957 215.504 598.549 214.224 596.373 214.224C594.293 214.224 592.741 215.504 592.645 217.968H594.053C594.117 216.512 594.885 215.472 596.389 215.472C597.957 215.472 598.517 216.432 598.517 217.712C598.517 220.08 595.637 222.384 592.597 224.832V225.872ZM601.8 225.872H609.496V224.656H603.992C606.056 222.976 609.16 220.528 609.16 217.648C609.16 215.504 607.752 214.224 605.576 214.224C603.496 214.224 601.944 215.504 601.848 217.968H603.256C603.32 216.512 604.088 215.472 605.592 215.472C607.16 215.472 607.72 216.432 607.72 217.712C607.72 220.08 604.84 222.384 601.8 224.832V225.872Z" fill="#B5B3B3"/>
<path d="M478.937 222.112V226H481.177V222.112L484.953 214.832H482.457L480.073 219.936L477.673 214.832H475.145L478.937 222.112ZM494.805 221.568C494.805 218.768 492.805 216.992 490.245 216.992C487.685 216.992 485.685 218.768 485.685 221.568C485.685 224.352 487.621 226.144 490.181 226.144C492.757 226.144 494.805 224.352 494.805 221.568ZM487.957 221.568C487.957 219.792 489.029 218.944 490.213 218.944C491.397 218.944 492.501 219.792 492.501 221.568C492.501 223.328 491.365 224.192 490.181 224.192C488.981 224.192 487.957 223.328 487.957 221.568ZM502.656 226H504.896V220.8C504.896 218.352 503.424 217.008 501.36 217.008C500.224 217.008 499.264 217.488 498.688 218.24V217.136H496.448V226H498.688V221.104C498.688 219.68 499.472 218.912 500.688 218.912C501.872 218.912 502.656 219.68 502.656 221.104V226ZM510.834 218.832C511.986 218.832 512.914 219.568 512.946 220.736H508.738C508.914 219.52 509.762 218.832 510.834 218.832ZM515.042 223.216H512.626C512.338 223.808 511.81 224.288 510.85 224.288C509.73 224.288 508.834 223.552 508.722 222.24H515.202C515.25 221.952 515.266 221.664 515.266 221.376C515.266 218.736 513.458 216.992 510.898 216.992C508.274 216.992 506.45 218.768 506.45 221.568C506.45 224.352 508.322 226.144 510.898 226.144C513.09 226.144 514.562 224.848 515.042 223.216Z" fill="white"/>
<path d="M1326.51 216.64H1329.49V226H1331.73V216.64H1334.7V214.832H1326.51V216.64ZM1340.15 218.832C1341.3 218.832 1342.23 219.568 1342.26 220.736H1338.05C1338.23 219.52 1339.07 218.832 1340.15 218.832ZM1344.35 223.216H1341.94C1341.65 223.808 1341.12 224.288 1340.16 224.288C1339.04 224.288 1338.15 223.552 1338.03 222.24H1344.51C1344.56 221.952 1344.58 221.664 1344.58 221.376C1344.58 218.736 1342.77 216.992 1340.21 216.992C1337.59 216.992 1335.76 218.768 1335.76 221.568C1335.76 224.352 1337.63 226.144 1340.21 226.144C1342.4 226.144 1343.87 224.848 1344.35 223.216ZM1348.45 221.584C1348.45 219.872 1349.25 219.36 1350.58 219.36H1351.17V217.008C1349.94 217.008 1349.01 217.6 1348.45 218.512V217.136H1346.21V226H1348.45V221.584ZM1365.08 226H1367.32V220.8C1367.32 218.352 1365.82 217.008 1363.69 217.008C1362.39 217.008 1361.23 217.696 1360.65 218.704C1360.04 217.6 1358.91 217.008 1357.53 217.008C1356.43 217.008 1355.48 217.472 1354.92 218.208V217.136H1352.68V226H1354.92V221.104C1354.92 219.696 1355.71 218.96 1356.92 218.96C1358.11 218.96 1358.89 219.696 1358.89 221.104V226H1361.13V221.104C1361.13 219.696 1361.91 218.96 1363.11 218.96C1364.3 218.96 1365.08 219.696 1365.08 221.104V226ZM1376.33 223.472C1376.26 220.224 1371.35 221.232 1371.35 219.616C1371.35 219.104 1371.78 218.768 1372.62 218.768C1373.5 218.768 1374.04 219.232 1374.1 219.92H1376.25C1376.12 218.16 1374.82 216.992 1372.68 216.992C1370.49 216.992 1369.18 218.176 1369.18 219.648C1369.18 222.896 1374.18 221.888 1374.18 223.472C1374.18 223.984 1373.7 224.384 1372.82 224.384C1371.93 224.384 1371.3 223.872 1371.22 223.2H1368.97C1369.06 224.848 1370.62 226.144 1372.84 226.144C1375 226.144 1376.33 224.992 1376.33 223.472ZM1389.47 217.424C1389.55 215.888 1388.46 214.592 1386.36 214.592C1384.32 214.592 1383.08 215.776 1383.08 217.296C1383.08 218.032 1383.31 218.64 1383.9 219.36C1382.25 220.096 1381.44 221.328 1381.44 222.768C1381.44 224.848 1383.07 226.192 1385.56 226.192C1387.08 226.192 1388.32 225.728 1389.36 224.8L1390.57 226H1393.32L1390.62 223.328C1390.86 222.96 1391.08 222.576 1391.31 222.144L1392.43 220.176H1390.09L1389.18 221.696C1389.15 221.744 1389.13 221.792 1389.1 221.824L1386.28 219.04C1385.58 218.304 1385.26 217.824 1385.26 217.28C1385.26 216.736 1385.69 216.336 1386.3 216.336C1386.89 216.336 1387.32 216.704 1387.29 217.424H1389.47ZM1385.63 224.336C1384.41 224.336 1383.64 223.584 1383.64 222.64C1383.64 221.824 1384.14 221.152 1385.2 220.688L1387.95 223.408C1387.29 224.016 1386.54 224.336 1385.63 224.336ZM1397.7 220.4C1397.7 223.744 1400.15 226.096 1403.36 226.096C1405.84 226.096 1407.86 224.784 1408.61 222.48H1406.04C1405.51 223.568 1404.55 224.096 1403.35 224.096C1401.4 224.096 1400 222.656 1400 220.4C1400 218.128 1401.4 216.704 1403.35 216.704C1404.55 216.704 1405.51 217.232 1406.04 218.304H1408.61C1407.86 216.016 1405.84 214.688 1403.36 214.688C1400.15 214.688 1397.7 217.056 1397.7 220.4ZM1419.09 221.568C1419.09 218.768 1417.09 216.992 1414.53 216.992C1411.97 216.992 1409.97 218.768 1409.97 221.568C1409.97 224.352 1411.9 226.144 1414.46 226.144C1417.04 226.144 1419.09 224.352 1419.09 221.568ZM1412.24 221.568C1412.24 219.792 1413.31 218.944 1414.49 218.944C1415.68 218.944 1416.78 219.792 1416.78 221.568C1416.78 223.328 1415.65 224.192 1414.46 224.192C1413.26 224.192 1412.24 223.328 1412.24 221.568ZM1426.94 226H1429.18V220.8C1429.18 218.352 1427.7 217.008 1425.64 217.008C1424.51 217.008 1423.55 217.488 1422.97 218.24V217.136H1420.73V226H1422.97V221.104C1422.97 219.68 1423.75 218.912 1424.97 218.912C1426.15 218.912 1426.94 219.68 1426.94 221.104V226ZM1430.73 221.536C1430.73 224.304 1432.52 226.144 1434.78 226.144C1436.17 226.144 1437.16 225.504 1437.69 224.688V226H1439.96V214.16H1437.69V218.368C1437.08 217.536 1435.96 216.992 1434.8 216.992C1432.52 216.992 1430.73 218.768 1430.73 221.536ZM1437.71 221.568C1437.71 223.248 1436.59 224.176 1435.36 224.176C1434.16 224.176 1433.02 223.216 1433.02 221.536C1433.02 219.856 1434.16 218.96 1435.36 218.96C1436.59 218.96 1437.71 219.888 1437.71 221.568ZM1442.15 226H1444.39V217.136H1442.15V226ZM1443.29 216.08C1444.07 216.08 1444.66 215.504 1444.66 214.768C1444.66 214.032 1444.07 213.456 1443.29 213.456C1442.49 213.456 1441.91 214.032 1441.91 214.768C1441.91 215.504 1442.49 216.08 1443.29 216.08ZM1446.96 223.248C1446.96 225.28 1448.09 226 1449.79 226H1451.2V224.112H1450.16C1449.45 224.112 1449.21 223.856 1449.21 223.264V218.976H1451.2V217.136H1449.21V214.944H1446.96V217.136H1445.9V218.976H1446.96V223.248ZM1452.81 226H1455.05V217.136H1452.81V226ZM1453.94 216.08C1454.73 216.08 1455.32 215.504 1455.32 214.768C1455.32 214.032 1454.73 213.456 1453.94 213.456C1453.14 213.456 1452.57 214.032 1452.57 214.768C1452.57 215.504 1453.14 216.08 1453.94 216.08ZM1465.82 221.568C1465.82 218.768 1463.82 216.992 1461.26 216.992C1458.7 216.992 1456.7 218.768 1456.7 221.568C1456.7 224.352 1458.64 226.144 1461.2 226.144C1463.77 226.144 1465.82 224.352 1465.82 221.568ZM1458.97 221.568C1458.97 219.792 1460.04 218.944 1461.23 218.944C1462.41 218.944 1463.52 219.792 1463.52 221.568C1463.52 223.328 1462.38 224.192 1461.2 224.192C1460 224.192 1458.97 223.328 1458.97 221.568ZM1473.67 226H1475.91V220.8C1475.91 218.352 1474.44 217.008 1472.38 217.008C1471.24 217.008 1470.28 217.488 1469.7 218.24V217.136H1467.46V226H1469.7V221.104C1469.7 219.68 1470.49 218.912 1471.7 218.912C1472.89 218.912 1473.67 219.68 1473.67 221.104V226Z" fill="#B5B3B3"/>
<path d="M1326 227.6H1476.94V228.4H1326V227.6Z" fill="#B5B3B3"/>
<path d="M1520.34 219.904V216.656H1522.12C1523.38 216.656 1523.94 217.264 1523.94 218.288C1523.94 219.28 1523.38 219.904 1522.12 219.904H1520.34ZM1526.25 218.288C1526.25 216.352 1524.9 214.832 1522.22 214.832H1518.1V226H1520.34V221.712H1522.22C1525.1 221.712 1526.25 219.984 1526.25 218.288ZM1530.08 221.584C1530.08 219.872 1530.88 219.36 1532.21 219.36H1532.8V217.008C1531.57 217.008 1530.64 217.6 1530.08 218.512V217.136H1527.84V226H1530.08V221.584ZM1534.31 226H1536.55V217.136H1534.31V226ZM1535.44 216.08C1536.23 216.08 1536.82 215.504 1536.82 214.768C1536.82 214.032 1536.23 213.456 1535.44 213.456C1534.64 213.456 1534.07 214.032 1534.07 214.768C1534.07 215.504 1534.64 216.08 1535.44 216.08ZM1537.82 217.136L1541.08 226H1543.8L1547.08 217.136H1544.7L1542.46 223.936L1540.22 217.136H1537.82ZM1547.76 221.536C1547.76 224.304 1549.55 226.144 1551.79 226.144C1553.2 226.144 1554.21 225.472 1554.74 224.704V226H1556.99V217.136H1554.74V218.4C1554.21 217.664 1553.23 216.992 1551.81 216.992C1549.55 216.992 1547.76 218.768 1547.76 221.536ZM1554.74 221.568C1554.74 223.248 1553.62 224.176 1552.39 224.176C1551.19 224.176 1550.05 223.216 1550.05 221.536C1550.05 219.856 1551.19 218.96 1552.39 218.96C1553.62 218.96 1554.74 219.888 1554.74 221.568ZM1558.61 221.568C1558.61 224.352 1560.43 226.144 1562.99 226.144C1565.2 226.144 1566.69 224.896 1567.17 223.008H1564.75C1564.48 223.808 1563.9 224.224 1562.97 224.224C1561.73 224.224 1560.89 223.296 1560.89 221.568C1560.89 219.84 1561.73 218.896 1562.97 218.896C1563.9 218.896 1564.49 219.376 1564.75 220.128H1567.17C1566.69 218.144 1565.2 216.992 1562.99 216.992C1560.43 216.992 1558.61 218.784 1558.61 221.568ZM1572.58 223.328L1570.3 217.136H1567.78L1571.34 225.776L1569.42 230.192H1571.8L1577.29 217.136H1574.9L1572.58 223.328ZM1584.55 219.904V216.656H1586.32C1587.59 216.656 1588.15 217.264 1588.15 218.288C1588.15 219.28 1587.59 219.904 1586.32 219.904H1584.55ZM1590.45 218.288C1590.45 216.352 1589.11 214.832 1586.42 214.832H1582.31V226H1584.55V221.712H1586.42C1589.3 221.712 1590.45 219.984 1590.45 218.288ZM1600.6 221.568C1600.6 218.768 1598.6 216.992 1596.04 216.992C1593.48 216.992 1591.48 218.768 1591.48 221.568C1591.48 224.352 1593.42 226.144 1595.98 226.144C1598.55 226.144 1600.6 224.352 1600.6 221.568ZM1593.75 221.568C1593.75 219.792 1594.83 218.944 1596.01 218.944C1597.19 218.944 1598.3 219.792 1598.3 221.568C1598.3 223.328 1597.16 224.192 1595.98 224.192C1594.78 224.192 1593.75 223.328 1593.75 221.568ZM1602.24 226H1604.48V214.16H1602.24V226ZM1606.7 226H1608.94V217.136H1606.7V226ZM1607.83 216.08C1608.62 216.08 1609.21 215.504 1609.21 214.768C1609.21 214.032 1608.62 213.456 1607.83 213.456C1607.03 213.456 1606.46 214.032 1606.46 214.768C1606.46 215.504 1607.03 216.08 1607.83 216.08ZM1610.57 221.568C1610.57 224.352 1612.4 226.144 1614.96 226.144C1617.17 226.144 1618.65 224.896 1619.13 223.008H1616.72C1616.45 223.808 1615.87 224.224 1614.94 224.224C1613.69 224.224 1612.86 223.296 1612.86 221.568C1612.86 219.84 1613.69 218.896 1614.94 218.896C1615.87 218.896 1616.46 219.376 1616.72 220.128H1619.13C1618.65 218.144 1617.17 216.992 1614.96 216.992C1612.4 216.992 1610.57 218.784 1610.57 221.568Z" fill="#B5B3B3"/>
<path d="M1517 227.6H1619.68V228.4H1517V227.6Z" fill="#B5B3B3"/>
<path d="M1 180H1919" stroke="#696868"/>
<defs>
<linearGradient id="paint0_linear_38_1573" x1="1468.9" y1="88" x2="1325.79" y2="96.7414" gradientUnits="userSpaceOnUse">
<stop stop-color="#2B7A78"/>
<stop offset="1" stop-color="#3AAFA9"/>
</linearGradient>
<clipPath id="clip0_38_1573">
<rect width="25" height="26.7578" fill="white" transform="translate(1496 97.1211)"/>
</clipPath>
</defs>
</svg>
