<svg width="350" height="351" viewBox="0 0 350 351" fill="none" xmlns="http://www.w3.org/2000/svg">
<path d="M30.484 93.5708C30.1687 93.8381 29.6964 93.7992 29.4291 93.4839C29.1618 93.1686 29.2007 92.6964 29.516 92.4291L30.484 93.5708ZM149.502 224.768L149.71 225.487L149.502 224.768ZM197.4 103.026L197.032 102.374C197.103 102.335 197.179 102.307 197.258 102.291L197.4 103.026ZM287.21 181.859L286.517 182.142L287.21 181.859ZM234.322 341.52L227.567 336.131L235.612 332.975L234.322 341.52ZM33.5903 89.5265C33.9477 89.3188 34.4058 89.4401 34.6135 89.7974C34.8212 90.1547 34.6999 90.6128 34.3426 90.8206L33.5903 89.5265ZM43.1753 88.1204C42.7624 88.1397 42.4121 87.8205 42.3928 87.4077C42.3736 86.9948 42.6927 86.6445 43.1056 86.6252L43.1753 88.1204ZM52.869 88.4567C53.2516 88.613 53.4351 89.05 53.2787 89.4326C53.1223 89.8152 52.6854 89.9986 52.3028 89.8423L52.869 88.4567ZM60.5037 94.6255C60.1727 94.3779 60.1052 93.9088 60.3528 93.5779C60.6004 93.2469 61.0695 93.1794 61.4004 93.427L60.5037 94.6255ZM68.7239 99.8553C69.0159 100.148 69.0155 100.622 68.7229 100.914C68.4304 101.206 67.9565 101.205 67.6645 100.913L68.7239 99.8553ZM74.1514 108.076C73.8871 107.758 73.9305 107.286 74.2483 107.022C74.5661 106.758 75.0379 106.801 75.3022 107.119L74.1514 108.076ZM81.2646 114.777C81.509 115.11 81.4371 115.578 81.1038 115.823C80.7705 116.067 80.3021 115.995 80.0576 115.662L81.2646 114.777ZM85.5942 123.585C85.3645 123.242 85.4569 122.777 85.8005 122.547C86.1442 122.318 86.6089 122.41 86.8386 122.754L85.5942 123.585ZM92.1088 130.936C92.3272 131.287 92.2198 131.749 91.8689 131.967C91.518 132.186 91.0565 132.078 90.838 131.727L92.1088 130.936ZM95.8463 140.008C95.6366 139.652 95.7552 139.193 96.1114 138.983C96.4675 138.773 96.9263 138.892 97.1361 139.248L95.8463 140.008ZM101.98 147.658C102.183 148.018 102.056 148.474 101.696 148.677C101.336 148.88 100.88 148.753 100.677 148.393L101.98 147.658ZM105.377 156.864C105.179 156.501 105.313 156.046 105.675 155.848C106.038 155.65 106.493 155.783 106.691 156.146L105.377 156.864ZM111.302 164.685C111.497 165.05 111.36 165.503 110.995 165.698C110.631 165.893 110.177 165.755 109.982 165.391L111.302 164.685ZM114.523 173.947C114.33 173.582 114.47 173.129 114.836 172.936C115.201 172.743 115.654 172.883 115.847 173.249L114.523 173.947ZM120.358 181.811C120.551 182.176 120.411 182.629 120.045 182.822C119.679 183.014 119.227 182.874 119.034 182.509L120.358 181.811ZM123.59 191.109C123.395 190.744 123.533 190.291 123.897 190.096C124.262 189.902 124.715 190.039 124.91 190.404L123.59 191.109ZM129.522 198.918C129.722 199.28 129.59 199.735 129.228 199.935C128.866 200.135 128.411 200.003 128.211 199.641L129.522 198.918ZM133.022 208.091C132.812 207.736 132.929 207.277 133.285 207.066C133.641 206.856 134.1 206.973 134.31 207.329L133.022 208.091ZM139.451 215.45C139.686 215.79 139.601 216.256 139.261 216.492C138.922 216.727 138.455 216.642 138.22 216.302L139.451 215.45ZM144.657 223.845C144.335 223.586 144.285 223.114 144.545 222.793C144.805 222.472 145.276 222.421 145.597 222.681L144.657 223.845ZM152.679 221.481C152.929 221.152 153.399 221.089 153.728 221.34C154.056 221.59 154.12 222.06 153.869 222.389L152.679 221.481ZM157.958 213.391C157.838 213.786 157.421 214.011 157.025 213.891C156.629 213.772 156.405 213.354 156.525 212.958L157.958 213.391ZM158.776 203.665C158.857 203.26 159.252 202.997 159.657 203.079C160.062 203.16 160.325 203.555 160.243 203.96L158.776 203.665ZM161.967 194.428C161.899 194.836 161.513 195.111 161.105 195.044C160.698 194.976 160.422 194.59 160.49 194.182L161.967 194.428ZM162.019 184.67C162.084 184.262 162.467 183.984 162.875 184.048C163.283 184.113 163.562 184.496 163.497 184.904L162.019 184.67ZM165.031 175.386C164.963 175.794 164.578 176.07 164.17 176.002C163.762 175.934 163.487 175.549 163.554 175.141L165.031 175.386ZM165.225 165.629C165.301 165.223 165.692 164.955 166.098 165.031C166.504 165.107 166.772 165.498 166.696 165.904L165.225 165.629ZM168.607 156.476C168.518 156.88 168.119 157.135 167.715 157.046C167.312 156.957 167.057 156.557 167.146 156.154L168.607 156.476ZM169.438 146.748C169.545 146.349 169.956 146.112 170.355 146.22C170.754 146.327 170.991 146.738 170.883 147.137L169.438 146.748ZM173.661 137.95C173.528 138.341 173.103 138.551 172.711 138.418C172.32 138.285 172.11 137.86 172.243 137.469L173.661 137.95ZM175.742 128.412C175.909 128.034 176.351 127.862 176.729 128.029C177.107 128.196 177.279 128.637 177.112 129.016L175.742 128.412ZM181.457 120.514C181.246 120.869 180.786 120.986 180.431 120.775C180.076 120.563 179.959 120.104 180.171 119.749L181.457 120.514ZM185.813 111.79C186.081 111.476 186.553 111.438 186.868 111.706C187.182 111.974 187.22 112.446 186.952 112.761L185.813 111.79ZM193.814 106.261C193.483 106.509 193.014 106.441 192.766 106.11C192.519 105.779 192.586 105.31 192.917 105.063L193.814 106.261ZM202.655 101.709C203.068 101.697 203.413 102.021 203.426 102.434C203.438 102.848 203.114 103.193 202.7 103.205L202.655 101.709ZM213.107 104.196C212.703 104.111 212.443 103.714 212.528 103.31C212.613 102.905 213.009 102.646 213.414 102.731L213.107 104.196ZM223.701 105.899C224.084 106.054 224.269 106.491 224.114 106.874C223.959 107.257 223.523 107.442 223.14 107.287L223.701 105.899ZM232.585 111.954C232.228 111.745 232.108 111.287 232.316 110.93C232.525 110.573 232.983 110.453 233.34 110.661L232.585 111.954ZM242.248 116.646C242.577 116.896 242.641 117.366 242.39 117.694C242.14 118.023 241.67 118.087 241.341 117.836L242.248 116.646ZM249.397 124.682C249.096 124.398 249.082 123.925 249.365 123.624C249.649 123.323 250.122 123.309 250.423 123.592L249.397 124.682ZM257.871 131.285C258.145 131.595 258.116 132.068 257.807 132.342C257.498 132.616 257.025 132.587 256.751 132.278L257.871 131.285ZM263.449 140.486C263.201 140.156 263.266 139.687 263.597 139.438C263.927 139.189 264.396 139.255 264.645 139.585L263.449 140.486ZM270.778 148.356C271.003 148.702 270.904 149.166 270.558 149.391C270.211 149.616 269.748 149.518 269.522 149.171L270.778 148.356ZM275.013 158.233C274.81 157.873 274.936 157.416 275.296 157.213C275.656 157.01 276.113 157.136 276.316 157.496L275.013 158.233ZM281.312 166.937C281.496 167.308 281.344 167.757 280.974 167.94C280.603 168.124 280.154 167.972 279.971 167.602L281.312 166.937ZM284.446 177.234C284.281 176.855 284.454 176.414 284.833 176.249C285.212 176.084 285.653 176.258 285.818 176.637L284.446 177.234ZM289.621 186.261C289.749 186.654 289.534 187.076 289.141 187.204C288.748 187.332 288.325 187.117 288.198 186.724L289.621 186.261ZM290.47 196.131C290.405 195.723 290.683 195.339 291.091 195.274C291.5 195.209 291.883 195.487 291.949 195.895L290.47 196.131ZM292.73 205.776C292.73 206.19 292.395 206.525 291.982 206.525C291.568 206.525 291.233 206.19 291.233 205.777L292.73 205.776ZM290.509 215.443C290.569 215.034 290.95 214.751 291.359 214.812C291.768 214.872 292.05 215.253 291.99 215.662L290.509 215.443ZM289.9 225.339C289.788 225.737 289.375 225.969 288.977 225.857C288.579 225.745 288.348 225.331 288.46 224.933L289.9 225.339ZM285.319 234.143C285.472 233.759 285.907 233.572 286.291 233.725C286.675 233.878 286.862 234.313 286.709 234.697L285.319 234.143ZM282.666 243.702C282.482 244.072 282.033 244.222 281.663 244.038C281.293 243.854 281.142 243.405 281.326 243.035L282.666 243.702ZM276.686 251.633C276.893 251.275 277.351 251.153 277.709 251.361C278.066 251.568 278.188 252.026 277.981 252.383L276.686 251.633ZM272.836 260.779C272.612 261.126 272.149 261.227 271.802 261.003C271.454 260.779 271.354 260.316 271.577 259.969L272.836 260.779ZM266.137 268.109C266.371 267.769 266.837 267.683 267.178 267.918C267.518 268.153 267.603 268.619 267.369 268.959L266.137 268.109ZM261.701 276.992C261.461 277.328 260.993 277.405 260.657 277.164C260.321 276.923 260.244 276.455 260.485 276.119L261.701 276.992ZM254.737 284.077C254.979 283.742 255.447 283.667 255.782 283.909C256.117 284.151 256.192 284.619 255.949 284.954L254.737 284.077ZM250.248 292.913C250.01 293.251 249.543 293.332 249.205 293.094C248.868 292.856 248.787 292.389 249.025 292.051L250.248 292.913ZM243.474 300.193C243.7 299.847 244.163 299.75 244.51 299.976C244.856 300.202 244.953 300.666 244.727 301.012L243.474 300.193ZM239.639 309.351C239.438 309.712 238.982 309.841 238.621 309.639C238.26 309.437 238.131 308.981 238.333 308.621L239.639 309.351ZM234.009 317.527C234.163 317.143 234.599 316.957 234.982 317.11C235.366 317.264 235.552 317.7 235.399 318.083L234.009 317.527ZM232.806 327.325C232.748 327.735 232.369 328.019 231.96 327.961C231.551 327.903 231.266 327.525 231.324 327.115L232.806 327.325ZM231.808 337.145C231.701 336.746 231.939 336.336 232.338 336.229C232.738 336.123 233.148 336.361 233.254 336.76L231.808 337.145ZM29.516 92.4291C30.8614 91.2884 32.2197 90.3233 33.5903 89.5265L34.3426 90.8206C33.0547 91.5693 31.768 92.4822 30.484 93.5708L29.516 92.4291ZM43.1056 86.6252C46.3624 86.4734 49.6241 87.1305 52.869 88.4567L52.3028 89.8423C49.2237 88.5839 46.1793 87.9804 43.1753 88.1204L43.1056 86.6252ZM61.4004 93.427C63.8524 95.2616 66.2955 97.4225 68.7239 99.8553L67.6645 100.913C65.2765 98.5204 62.8874 96.409 60.5037 94.6255L61.4004 93.427ZM75.3022 107.119C77.3018 109.523 79.2904 112.086 81.2646 114.777L80.0576 115.662C78.0988 112.992 76.1289 110.454 74.1514 108.076L75.3022 107.119ZM86.8386 122.754C88.6102 125.404 90.3679 128.139 92.1088 130.936L90.838 131.727C89.1045 128.942 87.3557 126.221 85.5942 123.585L86.8386 122.754ZM97.1361 139.248C98.7689 142.02 100.384 144.83 101.98 147.658L100.677 148.393C99.0848 145.573 97.4739 142.771 95.8463 140.008L97.1361 139.248ZM106.691 156.146C108.251 159 109.789 161.853 111.302 164.685L109.982 165.391C108.47 162.562 106.935 159.713 105.377 156.864L106.691 156.146ZM115.847 173.249C117.381 176.155 118.886 179.018 120.358 181.811L119.034 182.509C117.561 179.713 116.057 176.853 114.523 173.947L115.847 173.249ZM124.91 190.404C126.494 193.371 128.032 196.22 129.522 198.918L128.211 199.641C126.717 196.935 125.175 194.079 123.59 191.109L124.91 190.404ZM134.31 207.329C136.123 210.389 137.839 213.12 139.451 215.45L138.22 216.302C136.581 213.933 134.846 211.17 133.022 208.091L134.31 207.329ZM145.597 222.681C147.183 223.963 148.386 224.312 149.294 224.049L149.71 225.487C148.072 225.961 146.347 225.212 144.657 223.845L145.597 222.681ZM149.294 224.049C150.516 223.696 151.636 222.848 152.679 221.481L153.869 222.389C152.698 223.924 151.33 225.018 149.71 225.487L149.294 224.049ZM156.525 212.958C157.346 210.236 158.082 207.111 158.776 203.665L160.243 203.96C159.544 207.431 158.798 210.607 157.958 213.391L156.525 212.958ZM160.49 194.182C160.997 191.138 161.499 187.955 162.019 184.67L163.497 184.904C162.978 188.187 162.474 191.377 161.967 194.428L160.49 194.182ZM163.554 175.141C164.075 172.008 164.627 168.826 165.225 165.629L166.696 165.904C166.1 169.089 165.551 172.26 165.031 175.386L163.554 175.141ZM167.146 156.154C167.843 152.992 168.602 149.846 169.438 146.748L170.883 147.137C170.054 150.21 169.301 153.334 168.607 156.476L167.146 156.154ZM172.243 137.469C173.301 134.351 174.461 131.32 175.742 128.412L177.112 129.016C175.851 131.878 174.706 134.868 173.661 137.95L172.243 137.469ZM180.171 119.749C181.873 116.887 183.746 114.218 185.813 111.79L186.952 112.761C184.947 115.116 183.123 117.715 181.457 120.514L180.171 119.749ZM192.917 105.063C194.228 104.083 195.598 103.184 197.032 102.374L197.768 103.678C196.392 104.455 195.075 105.318 193.814 106.261L192.917 105.063ZM197.258 102.291C198.941 101.966 200.745 101.768 202.655 101.709L202.7 103.205C200.865 103.261 199.141 103.452 197.543 103.761L197.258 102.291ZM213.414 102.731C216.691 103.417 220.138 104.458 223.701 105.899L223.14 107.287C219.655 105.878 216.293 104.863 213.107 104.196L213.414 102.731ZM233.34 110.661C236.274 112.377 239.252 114.364 242.248 116.646L241.341 117.836C238.392 115.591 235.464 113.637 232.585 111.954L233.34 110.661ZM250.423 123.592C252.914 125.937 255.401 128.497 257.871 131.285L256.751 132.278C254.31 129.523 251.854 126.995 249.397 124.682L250.423 123.592ZM264.645 139.585C266.714 142.332 268.762 145.253 270.778 148.356L269.522 149.171C267.525 146.096 265.497 143.204 263.449 140.486L264.645 139.585ZM276.316 157.496C278.013 160.498 279.681 163.643 281.312 166.937L279.971 167.602C278.351 164.331 276.697 161.21 275.013 158.233L276.316 157.496ZM285.818 176.637C286.522 178.252 287.217 179.898 287.903 181.576L286.517 182.142C285.835 180.475 285.145 178.839 284.446 177.234L285.818 176.637ZM287.903 181.576C288.544 183.143 289.115 184.705 289.621 186.261L288.198 186.724C287.703 185.203 287.144 183.676 286.517 182.142L287.903 181.576ZM291.949 195.895C292.479 199.219 292.729 202.513 292.73 205.776L291.233 205.777C291.232 202.59 290.988 199.375 290.47 196.131L291.949 195.895ZM291.99 215.662C291.506 218.923 290.799 222.15 289.9 225.339L288.46 224.933C289.342 221.8 290.036 218.636 290.509 215.443L291.99 215.662ZM286.709 234.697C285.5 237.734 284.141 240.736 282.666 243.702L281.326 243.035C282.785 240.102 284.126 237.138 285.319 234.143L286.709 234.697ZM277.981 252.383C276.339 255.217 274.614 258.016 272.836 260.779L271.577 259.969C273.345 257.222 275.058 254.444 276.686 251.633L277.981 252.383ZM267.369 268.959C265.494 271.674 263.595 274.353 261.701 276.992L260.485 276.119C262.376 273.484 264.269 270.814 266.137 268.109L267.369 268.959ZM255.949 284.954C253.997 287.652 252.086 290.305 250.248 292.913L249.025 292.051C250.868 289.435 252.784 286.775 254.737 284.077L255.949 284.954ZM244.727 301.012C242.87 303.854 241.158 306.634 239.639 309.351L238.333 308.621C239.872 305.866 241.603 303.056 243.474 300.193L244.727 301.012ZM235.399 318.083C234.12 321.276 233.227 324.356 232.806 327.325L231.324 327.115C231.766 324 232.697 320.801 234.009 317.527L235.399 318.083Z" fill="#EDEDED"/>
<path d="M230.585 329.006C230.517 330.639 229.482 332.085 227.947 332.631C226.489 333.157 224.951 333.728 224.851 333.719C223.901 333.635 223.248 335.896 224.052 336.496C228.717 339.907 233.172 345.416 235.222 348.748C238.311 353.733 239.478 349.073 239.387 343.242C239.335 339.255 239.856 334.487 240.975 328.662C241.304 326.927 240.904 326.891 238.144 328.463C234.878 330.343 234.644 330.423 234.554 329.734C234.035 324.748 234.859 320.259 236.307 316.706C237.077 314.833 237.058 314.756 235.838 314.876C230.979 315.38 230.508 329.302 230.585 329.006Z" fill="#EDEDED"/>
</svg>
