<svg width="219" height="383" viewBox="0 0 219 383" fill="none" xmlns="http://www.w3.org/2000/svg">
<g opacity="0.2">
<path d="M184.516 37.1585C179.445 46.9163 174.721 57.0453 170.363 67.5057C165.864 77.9501 161.343 88.385 156.8 98.8106C147.69 119.653 138.455 140.383 129.097 160.999C110.403 202.236 91.2045 242.986 71.5022 283.248C60.4626 305.84 49.2689 328.279 37.9208 350.566C36.9998 352.369 39.9946 355.228 40.9586 353.354C61.1711 313.646 80.9082 273.445 100.17 232.751C119.432 192.058 138.206 150.893 156.491 109.256C161.626 97.564 166.717 85.8435 171.763 74.0945C176.768 62.4658 181.752 50.7898 187.56 39.9521C188.5 38.1816 185.515 35.3203 184.522 37.1644L184.516 37.1585Z" fill="#DFDFDF"/>
<path d="M197.488 50.3694C192.418 60.1281 187.693 70.255 183.329 80.7108C178.838 91.1632 174.319 101.6 169.772 112.022C160.662 132.864 151.428 153.594 142.07 174.21C123.375 215.447 104.177 256.197 84.4744 296.459C73.4348 319.051 62.241 341.49 50.893 363.777C49.972 365.58 52.9668 368.439 53.9308 366.565C74.1433 326.857 93.8804 286.656 113.142 245.962C132.404 205.269 151.178 164.104 169.463 122.467C174.599 110.775 179.689 99.0544 184.735 87.3054C189.74 75.6767 194.725 64.0007 200.532 53.163C201.472 51.3925 198.487 48.5312 197.494 50.3753L197.488 50.3694Z" fill="#DFDFDF"/>
<path d="M210.813 63.9397C205.737 73.6923 201.011 83.8197 196.654 94.2811C192.158 104.729 187.64 115.167 183.097 125.592C173.986 146.435 164.752 167.164 155.394 187.781C136.7 229.018 117.499 269.765 97.793 310.023C86.7534 332.615 75.5597 355.055 64.2116 377.341C63.2965 379.15 66.2913 382.009 67.2494 380.129C87.4619 340.421 107.199 300.22 126.461 259.527C145.723 218.833 164.494 177.666 182.776 136.025C187.915 124.337 193.008 112.619 198.054 100.87C203.053 89.2351 208.043 77.5653 213.845 66.7216C214.791 64.9571 211.8 62.0898 210.807 63.9339L210.813 63.9397Z" fill="#DFDFDF"/>
<path d="M173.107 25.5396C168.034 35.2952 163.308 45.4224 158.948 55.8809C154.457 66.3333 149.938 76.7701 145.391 87.1917C136.28 108.034 127.046 128.764 117.689 149.38C98.9745 190.598 79.7759 231.347 60.0931 271.629C49.0496 294.217 37.854 316.655 26.506 338.941C25.5909 340.75 28.5857 343.609 29.5437 341.729C49.7563 302.021 69.4934 261.82 88.7553 221.127C108.017 180.433 126.791 139.268 145.076 97.6313C150.212 85.9393 155.302 74.2185 160.348 62.4694C165.347 50.8347 170.337 39.1649 176.139 28.3212C177.085 26.5567 174.094 23.6894 173.101 25.5335L173.107 25.5396Z" fill="#DFDFDF"/>
<path d="M161.698 13.9206C156.623 23.6731 151.897 33.8005 147.54 44.2619C143.04 54.7063 138.521 65.1434 133.983 75.573C124.872 96.4156 115.638 117.145 106.28 137.761C87.5658 178.979 68.3654 219.726 48.6787 260.004C37.6391 282.596 26.4454 305.036 15.0974 327.322C14.1764 329.125 17.177 331.99 18.1351 330.11C38.3476 290.402 58.0869 250.203 77.3527 209.514C96.6185 168.824 115.39 127.657 133.668 86.0123C138.807 74.3242 143.899 62.6056 148.945 50.8565C153.945 39.2218 158.929 27.546 164.736 16.7083C165.682 14.9438 162.692 12.0765 161.698 13.9206Z" fill="#DFDFDF"/>
<path d="M150.284 2.29599C145.213 12.0537 140.49 22.183 136.131 32.6435C131.633 43.0927 127.124 53.5444 122.568 63.9484C113.458 84.791 104.223 105.52 94.8656 126.137C76.1711 167.374 56.9728 208.124 37.2705 248.385C26.2308 270.978 15.0368 293.417 3.68882 315.704C2.76781 317.507 5.76259 320.365 6.72656 318.491C26.9391 278.783 46.6765 238.582 65.9384 197.889C85.2003 157.196 103.974 116.03 122.259 74.3935C127.394 62.7015 132.487 50.9831 137.537 39.2381C142.536 27.6034 147.521 15.9276 153.328 5.08987C154.274 3.32535 151.283 0.45806 150.29 2.30212L150.284 2.29599Z" fill="#DFDFDF"/>
</g>
</svg>
