<svg width="248" height="602" viewBox="0 0 248 602" fill="none" xmlns="http://www.w3.org/2000/svg">
<g opacity="0.04">
<path d="M241.345 263.914L-91.0396 595.728C-81.9175 597.439 -72.7955 599.149 -63.6734 600.29L245.336 291.28C244.766 282.158 243.056 273.036 241.345 263.914Z" fill="#9D9D9D"/>
<path d="M221.961 206.331L-148.052 576.914C-140.641 580.335 -133.229 583.186 -125.247 586.036L231.653 229.136C228.802 221.724 225.382 213.743 221.961 206.331Z" fill="#9D9D9D"/>
<path d="M166.088 125.943C163.808 123.663 160.957 121.382 158.106 117.961L-236.422 512.49C-233.572 515.911 -230.721 518.191 -228.441 520.472C-226.16 522.752 -223.309 525.033 -220.459 528.453L174.07 133.925C170.649 130.504 168.369 128.224 166.088 125.943Z" fill="#9D9D9D"/>
<path d="M166.088 520.472C191.744 494.816 211.699 465.739 225.382 432.672L78.2886 579.765C110.786 566.082 140.433 546.128 166.088 520.472Z" fill="#9D9D9D"/>
<path d="M15.0045 598.009L243.626 369.388C245.336 357.415 247.047 345.442 247.047 334.04L-20.9136 602C-8.37075 601.43 3.03181 600.29 15.0045 598.009Z" fill="#9D9D9D"/>
<path d="M62.3251 60.3782L-294.575 417.278C-291.725 424.69 -288.874 432.672 -285.453 440.083L84.5601 70.0704C77.7185 66.0795 70.3069 63.2288 62.3251 60.3782Z" fill="#9D9D9D"/>
<path d="M114.207 84.8938L-269.489 468.59C-265.498 475.432 -260.937 481.703 -256.946 487.404L133.021 97.4367C127.32 93.4458 121.049 89.4548 114.207 84.8938Z" fill="#9D9D9D"/>
<path d="M0.180877 46.125L-308.829 355.135C-307.688 364.257 -306.548 373.379 -304.268 382.501L27.547 50.686C18.9951 48.4054 9.30293 47.2653 0.180877 46.125Z" fill="#9D9D9D"/>
<path d="M193.455 158.44L-196.513 548.408C-190.242 552.969 -183.97 556.96 -177.699 560.951L205.997 177.255C202.577 170.983 198.016 164.142 193.455 158.44Z" fill="#9D9D9D"/>
<path d="M193.454 197.21L-138.36 529.025C-129.238 530.735 -120.116 532.445 -110.994 533.585L198.015 224.576C196.875 215.454 195.165 206.332 193.454 197.21Z" fill="black"/>
<path d="M174.64 139.627L-195.373 509.64C-187.961 513.061 -180.55 515.911 -172.568 518.762L184.332 161.862C180.912 154.45 178.061 147.038 174.64 139.627Z" fill="black"/>
<path d="M118.197 59.2388C115.917 56.9583 113.066 54.6776 110.215 51.2568L-284.313 445.786C-281.463 449.206 -278.612 451.487 -276.332 453.768C-274.051 456.048 -271.201 458.328 -268.35 461.749L126.179 67.2207C122.758 63.7999 120.478 61.5193 118.197 59.2388Z" fill="black"/>
<path d="M118.197 453.768C143.853 428.112 163.807 399.035 177.491 365.968L30.3975 513.061C63.4649 499.378 92.5414 479.423 118.197 453.768Z" fill="black"/>
<path d="M-32.8871 531.305L195.734 302.684C197.445 290.711 199.155 279.308 199.155 267.336L-68.8052 535.296C-56.2624 534.726 -44.2897 533.585 -32.8871 531.305Z" fill="black"/>
<path d="M15.0038 -6.32593L-341.896 350.574C-339.046 357.986 -336.195 365.968 -332.774 373.379L37.2388 3.36632C29.8271 -0.624576 22.4154 -3.47529 15.0038 -6.32593Z" fill="black"/>
<path d="M66.3154 18.1895L-317.381 401.886C-313.39 408.727 -308.829 414.999 -304.838 420.7L85.6998 31.3023C79.4284 26.7413 73.1569 22.1804 66.3154 18.1895Z" fill="black"/>
<path d="M146.134 91.7361L-243.834 481.704C-237.563 486.265 -231.291 490.256 -225.02 494.246L158.677 110.55C154.686 104.279 150.695 97.4374 146.134 91.7361Z" fill="black"/>
</g>
</svg>
