<svg width="45" height="46" viewBox="0 0 45 46" fill="none" xmlns="http://www.w3.org/2000/svg">
<circle cx="22.5" cy="22.6074" r="22.5" fill="#FFF4EA"/>
<path d="M30.6636 22.9618C30.6636 22.9172 30.6675 22.8727 30.6675 22.8241C30.6675 20.8567 29.1429 19.2617 27.2624 19.2617H21.3809V22.8241C21.3809 23.7188 20.6883 24.4434 19.8331 24.4434C18.978 24.4434 18.2854 23.7188 18.2854 22.8241V17.9663H18.3008C18.4556 16.509 19.6358 15.3755 21.0713 15.3755H25.4051C25.5134 15.3755 25.6218 15.3836 25.7262 15.3957L27.2779 13.7724C28.1253 12.8859 29.495 12.8859 30.3424 13.7724L33.3645 16.934C34.2119 17.8206 34.2119 19.2537 33.3645 20.1402L30.6675 22.9618H30.6636ZM17.0472 17.9663V22.8241C17.0472 24.4353 18.2931 25.7388 19.8331 25.7388C21.3732 25.7388 22.6191 24.4353 22.6191 22.8241V20.5572H27.2624C28.458 20.5572 29.4293 21.5733 29.4293 22.8241C29.4293 23.9252 28.6786 24.8442 27.6803 25.0506C27.9976 25.3988 28.1911 25.8684 28.1911 26.3865C28.1911 27.4593 27.3591 28.3297 26.3337 28.3297H26.2293C26.2989 28.5321 26.3337 28.7507 26.3337 28.9774C26.3337 30.0501 25.5018 30.9205 24.4764 30.9205H18.2854C18.2505 30.9205 18.2157 30.9205 18.1809 30.9164L16.7221 32.4426C15.8747 33.3292 14.505 33.3292 13.6576 32.4426L10.6356 29.285C9.78815 28.3985 9.78815 26.9654 10.6356 26.0789L13.3325 23.2573V21.8526C13.3325 19.707 14.9964 17.9663 17.0472 17.9663Z" fill="#DF6B00"/>
</svg>
