<svg width="679" height="636" viewBox="0 0 679 636" fill="none" xmlns="http://www.w3.org/2000/svg">
<path d="M408.992 51.8664C394.734 60.3046 390.661 74.8533 388.973 80.8473C388.566 82.3022 383.794 100.168 392.057 118.79C394.501 124.319 397.12 130.022 403.056 132.757C406.489 134.386 409.574 134.27 421.678 133.222C427.323 132.757 433.434 132.175 439.951 131.477C444.549 125.599 452.463 113.844 454.791 97.3164C455.198 94.2321 459.97 57.4531 439.951 47.6764C426.858 41.2168 411.087 50.5861 408.992 51.8664Z" fill="#3AAFA9"/>
<ellipse cx="145.719" cy="124.086" rx="13.152" ry="14.5487" fill="#2B7A78"/>
<ellipse cx="443.967" cy="362.335" rx="9.7767" ry="9.42753" fill="#2B7A78"/>
<circle cx="145.836" cy="307.573" r="7.27433" fill="#2B7A78"/>
<ellipse cx="132.277" cy="121.641" rx="11.5807" ry="12.1627" fill="#3AAFA9"/>
<ellipse cx="441.29" cy="349.415" rx="7.15794" ry="7.44891" fill="#3AAFA9"/>
<ellipse cx="536.962" cy="143.057" rx="7.85627" ry="8.38002" fill="#3AAFA9"/>
<path d="M366.335 203.23C365.055 201.194 362.96 203.114 362.087 204.511C360.283 207.42 359.119 211.028 360.458 214.346C361.447 216.848 363.891 218.943 366.743 218.536C369.361 218.186 371.34 216.033 371.282 213.414C371.282 212.716 370.293 212.192 369.769 212.774C366.685 216.673 362.902 222.202 365.986 227.207C368.139 230.64 373.435 231.106 375.53 227.381C375.006 227.323 374.483 227.265 373.959 227.148C374.25 228.778 374.541 230.407 374.774 232.037C374.948 233.142 376.636 232.677 376.461 231.571C376.17 229.942 375.879 228.312 375.646 226.683C375.53 225.926 374.366 225.868 374.075 226.45C373.144 228.08 371.049 228.661 369.361 227.847C367.499 226.916 366.685 224.821 366.685 222.784C366.685 219.409 369.07 216.441 371.049 213.938C370.525 213.705 370.06 213.531 369.536 213.298C369.594 215.509 367.441 217.139 365.288 216.673C363.658 216.324 362.611 214.928 362.029 213.414C361.447 211.843 361.505 210.272 361.971 208.701C362.029 208.584 364.415 203.405 364.764 203.987C365.404 205.034 366.917 204.162 366.335 203.23Z" fill="#2B7A78"/>
<path d="M128.727 208.468C130.007 204.976 134.255 206.489 135.594 208.933C136.059 209.748 136.292 210.679 136.408 211.61C136.641 213.356 136.467 214.054 134.953 215.102C133.324 216.731 132.917 216.091 133.79 213.182C134.197 213.007 134.663 212.832 135.07 212.658C136.176 212.367 137.456 212.425 138.562 212.774C141.355 213.705 142.752 216.673 142.344 219.408C142.228 220.107 142.926 220.805 143.624 220.398C147.407 218.244 152.412 220.63 153.285 224.879C153.518 225.984 155.205 225.519 154.972 224.413C153.867 219.059 147.524 216.266 142.752 218.943C143.159 219.292 143.624 219.583 144.032 219.932C144.788 214.811 140.889 210.039 135.477 210.854C133.615 211.145 130.822 212.309 130.589 214.52C130.414 216.324 132.102 217.663 133.79 217.837C138.794 218.303 138.678 211.028 137.048 208.119C134.837 204.161 128.727 203.172 126.981 208.06C126.632 209.05 128.319 209.515 128.727 208.468Z" fill="#2B7A78"/>
<path d="M435.121 427.513C439.602 430.481 443.385 434.263 446.411 438.686C447.051 439.617 448.564 438.744 447.924 437.813C444.723 433.158 440.766 429.2 436.052 426.058C435.063 425.359 434.19 426.873 435.121 427.513Z" fill="#3AAFA9"/>
<path d="M446.469 430.713C447.4 431.819 448.273 432.983 449.204 434.088C449.903 434.961 451.125 433.739 450.426 432.866C449.495 431.761 448.622 430.597 447.691 429.491C446.993 428.618 445.771 429.898 446.469 430.713Z" fill="#3AAFA9"/>
<path d="M441.115 414.419C445.131 418.143 448.448 422.391 451.008 427.222C451.532 428.211 453.045 427.338 452.522 426.349C449.903 421.402 446.469 416.979 442.337 413.197C441.523 412.382 440.301 413.662 441.115 414.419Z" fill="#3AAFA9"/>
<path d="M38.7575 479.945C40.0378 492.573 42.2492 505.027 45.3335 517.364C45.6245 518.47 47.3121 518.005 47.0212 516.899C43.995 504.736 41.7836 492.399 40.5034 479.945C40.387 478.84 38.6411 478.84 38.7575 479.945Z" fill="#E8E8E8"/>
<path d="M45.6827 517.947C57.1471 520.915 69.077 520.915 80.5413 517.947C81.647 517.656 81.1815 515.968 80.0758 516.259C68.9024 519.169 57.3217 519.169 46.1483 516.259C45.1008 515.968 44.6352 517.656 45.6827 517.947Z" fill="#E8E8E8"/>
<path d="M81.8796 516.2C82.6361 503.805 83.6254 491.409 84.7893 479.014C84.9057 477.908 83.1599 477.908 83.0435 479.014C81.8796 491.409 80.8903 503.805 80.1337 516.2C80.0756 517.306 81.8214 517.306 81.8796 516.2Z" fill="#E8E8E8"/>
<path d="M39.747 480.877C54.2374 483.844 69.1353 483.728 83.6257 480.469C84.7314 480.236 84.2659 478.549 83.1602 478.782C69.0189 481.924 54.412 482.099 40.2125 479.189C39.1068 478.956 38.6413 480.644 39.747 480.877Z" fill="#E8E8E8"/>
<path d="M39.5721 485.066C40.0377 487.452 43.0638 487.336 44.926 487.511C49.6398 487.918 54.4118 488.034 59.1255 487.918C63.6647 487.801 68.2039 487.452 72.7431 486.929C76.3511 486.463 79.8428 485.997 83.0435 484.193C84.0328 483.67 83.1599 482.157 82.1706 482.68C76.4093 485.881 68.4367 485.765 61.9771 486.056C58.7764 486.172 55.5175 486.23 52.3168 486.172C50.6291 486.114 41.609 486.521 41.2598 484.601C41.027 483.495 39.3976 483.961 39.5721 485.066Z" fill="#E8E8E8"/>
<path d="M42.8894 505.26C45.6827 510.207 49.2326 514.571 53.4808 518.354C54.2955 519.11 55.5758 517.888 54.7029 517.132C50.5128 513.465 47.0794 509.217 44.4024 504.387C43.8787 503.398 42.3656 504.271 42.8894 505.26Z" fill="#E8E8E8"/>
<path d="M40.6197 491.817C46.5555 501.827 53.7716 511.021 62.0353 519.285C62.85 520.1 64.0721 518.819 63.2574 518.063C55.1101 509.916 48.0104 500.837 42.1327 490.944C41.5508 490.013 40.0377 490.886 40.6197 491.817Z" fill="#E8E8E8"/>
<path d="M50.3386 487.627C56.5072 498.626 63.6651 509.043 71.7542 518.761C72.4525 519.634 73.6746 518.412 72.9763 517.539C65.0036 507.937 57.9039 497.637 51.8516 486.754C51.3279 485.765 49.8148 486.638 50.3386 487.627Z" fill="#E8E8E8"/>
<path d="M61.4535 488.034C67.4475 496.996 73.4998 505.9 79.6102 514.804C80.2504 515.735 81.7634 514.862 81.1233 513.931C75.0128 505.027 68.9606 496.123 62.9666 487.161C62.3264 486.23 60.8134 487.103 61.4535 488.034Z" fill="#E8E8E8"/>
<path d="M70.7647 487.511C73.7908 492.399 77.0497 497.171 80.425 501.827C81.0651 502.7 82.5782 501.827 81.938 500.954C78.5628 496.298 75.3039 491.526 72.2777 486.638C71.6958 485.707 70.1827 486.58 70.7647 487.511Z" fill="#E8E8E8"/>
<path d="M20.4263 428.734C21.1246 432.75 21.823 436.823 22.5795 440.839C22.8123 441.945 22.9869 443.108 23.918 443.807C24.5581 444.331 26.6531 444.272 27.0605 444.854C27.1187 444.505 27.1769 444.156 27.1769 443.807C26.304 444.68 25.431 445.553 24.4999 446.367C24.2672 446.6 24.209 446.949 24.2672 447.24C24.7909 448.811 25.1401 451.139 26.1876 452.478C26.7113 453.176 27.6424 453.06 28.0498 453.467C28.399 453.816 28.2826 453.583 28.108 454.631C27.9916 455.504 27.9916 456.435 28.108 457.366C28.2826 458.763 28.6899 460.101 29.2137 461.382C32.2398 468.714 38.1175 474.65 43.7623 480.12C44.5771 480.877 45.7992 479.655 44.9844 478.898C41.3764 475.406 37.7683 471.798 34.8004 467.725C31.8906 463.709 28.4572 458.297 30.2612 453.176C30.3776 452.885 30.2612 452.478 30.0284 452.303C28.9227 451.43 27.817 451.779 27.0605 450.383C25.6056 447.764 26.4204 446.891 28.2826 445.087C28.5736 444.854 28.6317 444.331 28.399 444.04C27.9334 443.341 27.5842 443.108 26.8277 442.876C26.3622 442.701 25.6638 442.876 25.1983 442.643C24.209 442.119 24.209 440.839 24.0344 439.908C23.336 436.067 22.6377 432.168 21.9976 428.327C21.8812 427.163 20.1935 427.629 20.4263 428.734Z" fill="#E8E8E8"/>
<path d="M21.7067 428.502C44.4026 436.067 59.9405 457.25 60.4061 481.226C60.4061 482.332 62.1519 482.332 62.1519 481.226C61.6864 456.493 45.6247 434.67 22.1722 426.814C21.1247 426.465 20.6592 428.152 21.7067 428.502Z" fill="#E8E8E8"/>
<path d="M56.565 457.366C62.2099 441.711 70.5317 426.581 83.8583 416.28C84.7312 415.582 83.8583 414.069 82.9854 414.767C69.2514 425.417 60.6968 440.78 54.8774 456.9C54.5282 457.948 56.2158 458.413 56.565 457.366Z" fill="#E8E8E8"/>
<path d="M82.3452 415.931C82.7525 421.285 83.2181 426.639 83.6255 432.051C83.7418 433.157 85.4877 433.157 85.3713 432.051C84.9639 426.697 84.4984 421.343 84.091 415.931C84.0328 414.825 82.287 414.825 82.3452 415.931Z" fill="#E8E8E8"/>
<path d="M84.3822 431.469C83.6257 431.644 82.8691 431.818 82.1708 432.051C81.0651 432.342 81.5307 434.03 82.6364 433.739C83.3929 433.564 84.1494 433.389 84.8478 433.157C85.9535 432.866 85.4879 431.236 84.3822 431.469Z" fill="#E8E8E8"/>
<path d="M81.2977 433.622C81.5305 434.728 82.4616 435.426 83.5091 435.543C83.9747 435.601 84.382 435.135 84.382 434.67C84.382 434.146 83.9747 433.855 83.5091 433.797C83.6837 433.797 83.5091 433.797 83.4509 433.797C83.3927 433.797 83.2763 433.739 83.3927 433.797C83.3345 433.739 83.2763 433.739 83.2181 433.681C83.1018 433.622 83.3345 433.797 83.16 433.622C83.1018 433.564 83.1018 433.564 83.0436 433.506C83.16 433.622 83.0436 433.506 83.0436 433.448C82.9854 433.39 82.9854 433.273 82.9854 433.39C82.9854 433.331 82.9272 433.215 82.9272 433.157C82.8108 432.691 82.287 432.4 81.8797 432.575C81.4141 432.691 81.1813 433.157 81.2977 433.622Z" fill="#E8E8E8"/>
<path d="M82.6365 434.903C82.6947 438.22 82.5783 441.479 82.2291 444.738C82.1127 445.785 82.2873 448.229 81.589 449.044C81.5308 449.102 80.4833 449.277 80.2505 449.451C79.3776 450.15 80.5997 451.372 81.4726 450.673C81.7636 450.441 82.4619 450.673 82.9275 450.15C83.6258 449.451 83.5094 447.822 83.6258 447.007C84.1495 442.992 84.3823 438.918 84.3241 434.844C84.3823 433.797 82.6365 433.797 82.6365 434.903Z" fill="#E8E8E8"/>
<path d="M79.552 450.964C81.4143 453.176 80.8905 456.842 80.7159 459.519C80.4831 462.603 79.9594 465.455 78.4463 468.132C76.2931 472.089 73.267 475.406 71.6958 479.713C71.2884 480.76 72.976 481.226 73.3834 480.178C75.4784 474.533 80.3086 470.343 81.7634 464.407C82.8109 460.159 83.8002 453.35 80.7741 449.742C80.0758 448.928 78.8537 450.15 79.552 450.964Z" fill="#E8E8E8"/>
<path d="M65.8183 480.527C67.4477 464 71.8123 447.88 78.7957 432.866C79.2613 431.877 77.7482 430.945 77.2826 431.993C70.1829 447.356 65.7019 463.709 64.0725 480.585C63.9561 481.691 65.7019 481.633 65.8183 480.527Z" fill="#E8E8E8"/>
<path d="M31.4834 438.22C41.6675 451.023 49.1164 465.746 53.481 481.458C53.772 482.564 55.4596 482.099 55.1686 480.993C50.6876 464.931 43.0641 450.033 32.7055 436.998C32.0072 436.125 30.7851 437.347 31.4834 438.22Z" fill="#E8E8E8"/>
<path d="M32.5887 459.694C37.4771 459.403 42.0163 460.567 46.1481 463.127C47.0792 463.709 48.0103 462.196 47.021 461.614C42.6564 458.937 37.7099 457.657 32.5887 457.948C31.4248 458.006 31.4248 459.752 32.5887 459.694Z" fill="#E8E8E8"/>
<path d="M43.2384 451.895C42.8892 448.695 43.2966 445.61 44.5186 442.584C44.926 441.537 43.2384 441.071 42.831 442.119C41.5507 445.261 41.1434 448.52 41.4925 451.895C41.6089 453.001 43.3547 453.001 43.2384 451.895Z" fill="#E8E8E8"/>
<path d="M62.0937 442.235C64.0141 446.949 66.8075 451.954 67.5058 456.959C67.6804 458.064 69.368 457.599 69.1934 456.493C68.4369 451.43 65.6436 446.425 63.7813 441.77C63.374 440.722 61.6863 441.188 62.0937 442.235Z" fill="#E8E8E8"/>
<path d="M72.8014 447.764C74.4891 445.843 76.1185 443.574 78.2717 442.119C80.0758 440.897 82.0544 440.082 83.4511 438.394C84.1494 437.521 82.9273 436.299 82.229 437.172C80.7159 438.976 78.5045 439.733 76.7005 441.129C74.7219 442.642 73.2088 444.679 71.5794 446.541C70.8228 447.414 72.0449 448.636 72.8014 447.764Z" fill="#E8E8E8"/>
<path d="M73.3832 479.945C76.1765 479.189 79.0281 478.898 81.9378 479.072C83.0435 479.131 83.0435 477.385 81.9378 477.327C78.8535 477.152 75.8856 477.443 72.9176 478.258C71.8701 478.549 72.2775 480.236 73.3832 479.945Z" fill="#E8E8E8"/>
<path d="M73.1506 480.644C76.4095 480.935 79.552 480.527 82.6945 479.538C83.742 479.189 83.2764 477.501 82.2289 477.85C79.261 478.781 76.2349 479.131 73.1506 478.898C72.0449 478.84 72.0449 480.585 73.1506 480.644Z" fill="#E8E8E8"/>
<path d="M40.5036 480.353C41.2601 480.353 41.9585 480.353 42.715 480.353C43.8207 480.353 43.8207 478.607 42.715 478.607C41.9585 478.607 41.2601 478.607 40.5036 478.607C39.3979 478.607 39.3979 480.353 40.5036 480.353Z" fill="#E8E8E8"/>
<path d="M83.1603 494.436C101.608 494.436 120.114 494.436 138.562 494.436C139.667 494.436 139.667 492.69 138.562 492.69C120.114 492.69 101.608 492.69 83.1603 492.69C82.0546 492.69 82.0546 494.436 83.1603 494.436Z" fill="#E8E8E8"/>
<path d="M395.432 482.913C406.431 482.913 417.372 482.913 428.37 482.913C429.476 482.913 429.476 481.167 428.37 481.167C417.372 481.167 406.431 481.167 395.432 481.167C394.327 481.167 394.327 482.913 395.432 482.913Z" fill="#E8E8E8"/>
<path d="M495.294 483.961C542.723 483.961 590.151 483.961 637.58 483.961C651.081 483.961 664.582 483.961 678.083 483.961C679.189 483.961 679.189 482.215 678.083 482.215C630.655 482.215 583.226 482.215 535.798 482.215C522.296 482.215 508.795 482.215 495.294 482.215C494.188 482.215 494.188 483.961 495.294 483.961Z" fill="#E8E8E8"/>
<path d="M425.053 292.908C420.63 302.045 415.858 311.007 410.796 319.794C410.563 320.259 410.737 321.016 411.319 321.074C436.285 324.857 458.632 337.252 480.164 349.764C481.153 350.346 482.026 348.833 481.036 348.251C459.33 335.681 436.867 323.227 411.727 319.387C411.901 319.794 412.076 320.259 412.25 320.667C417.372 311.879 422.085 302.917 426.508 293.781C427.032 292.792 425.577 291.86 425.053 292.908Z" fill="#E8E8E8"/>
<path d="M428.894 324.624C430.64 319.619 432.386 314.556 434.132 309.552C434.888 307.457 435.412 305.129 436.401 303.092C436.634 301.87 437.391 300.939 438.554 300.24C439.253 300.415 439.951 300.59 440.649 300.764C441.697 301.055 442.744 301.288 443.734 301.579C446.12 302.161 449.961 302.161 449.553 305.362C449.262 307.631 447.924 310.075 447.167 312.287C445.421 317.233 443.734 322.18 441.988 327.126C441.639 328.174 443.326 328.639 443.676 327.592C445.945 321.074 448.215 314.498 450.484 307.98C451.008 306.467 452.463 303.907 451.299 302.277C450.019 300.531 446.178 300.415 444.199 299.891C442.279 299.426 438.904 297.68 436.925 298.611C435.237 299.368 434.888 302.277 434.364 303.732C431.978 310.541 429.592 317.408 427.206 324.217C426.857 325.206 428.545 325.672 428.894 324.624Z" fill="#E8E8E8"/>
<path d="M451.357 330.851C455.082 322.995 458.865 315.08 462.589 307.224C464.451 303.267 466.313 299.368 468.234 295.41C469.107 293.606 469.805 291.453 470.911 289.765C471.842 288.311 472.075 287.961 473.704 288.602C474.577 288.951 475.625 289.824 476.381 290.347C477.37 291.046 478.942 291.802 479.64 292.733C480.513 293.839 480.164 295.003 479.64 296.4C478.942 298.262 477.894 300.066 477.021 301.87C475.101 305.827 473.18 309.784 471.144 313.742C467.303 321.249 463.287 328.698 459.155 336.088C458.574 337.078 460.087 337.951 460.669 336.961C465.731 327.999 470.562 318.921 475.101 309.726C477.37 305.187 479.873 300.531 481.793 295.818C483.132 292.384 480.222 290.988 477.661 289.184C475.625 287.787 472.424 284.586 470.212 287.205C468.816 288.834 468.059 291.57 467.128 293.548C465.964 295.934 464.859 298.32 463.695 300.764C459.039 310.541 454.384 320.318 449.786 330.094C449.379 330.967 450.892 331.898 451.357 330.851Z" fill="#E8E8E8"/>
<path d="M470.678 342.955C475.683 335.099 481.328 327.65 487.555 320.783C487.205 320.841 486.856 320.9 486.507 320.9C488.719 322.413 490.872 323.867 493.083 325.381C492.967 324.973 492.85 324.566 492.792 324.158C487.846 331.898 482.899 339.58 477.952 347.32C477.371 348.251 478.825 349.124 479.466 348.193C484.412 340.453 489.359 332.771 494.305 325.031C494.596 324.624 494.363 324.1 494.014 323.809C491.803 322.296 489.65 320.841 487.438 319.328C487.147 319.096 486.623 319.212 486.391 319.445C480.048 326.486 474.286 333.993 469.223 341.966C468.583 343.072 470.096 343.945 470.678 342.955Z" fill="#E8E8E8"/>
<path d="M540.104 287.612C534.285 285.401 530.619 279.581 531.666 273.355C532.714 267.011 538.94 261.366 545.342 265.149C549.765 267.768 552.034 273.704 550.347 278.534C548.601 283.713 542.898 286.797 537.602 285.983C536.496 285.808 536.031 287.496 537.136 287.67C543.363 288.601 549.939 285.168 552.034 278.999C554.129 272.831 550.754 265.382 544.702 262.879C537.602 259.97 531.142 266.08 529.92 272.889C528.64 280.105 532.888 286.739 539.581 289.3C540.686 289.707 541.152 288.02 540.104 287.612Z" fill="#E8E8E8"/>
<path d="M552.034 286.507C540.454 286.158 544.818 267.593 555.06 268.292C565.303 269.048 561.113 289.94 549.881 286.099C548.834 285.75 548.368 287.438 549.416 287.787C562.393 292.21 568.212 268.583 555.817 266.604C549.765 265.615 544.294 271.318 543.363 276.963C542.432 282.549 546.215 288.02 552.034 288.194C553.14 288.311 553.14 286.565 552.034 286.507Z" fill="#E8E8E8"/>
<path d="M543.363 233.84C542.374 232.793 541.908 231.105 542.665 229.825C543.421 228.603 545.283 228.021 546.447 228.952C547.495 229.767 547.728 231.513 546.738 232.386C545.574 233.433 543.712 232.909 542.606 232.036C541.734 231.338 540.511 232.56 541.384 233.259C543.188 234.655 545.982 235.354 547.902 233.666C549.648 232.095 549.473 229.185 547.728 227.672C545.924 226.101 543.072 226.566 541.559 228.312C539.871 230.291 540.337 233.259 542.083 235.063C542.897 235.877 544.119 234.655 543.363 233.84Z" fill="#E8E8E8"/>
<path d="M374.482 277.661C372.853 267.768 378.614 255.838 389.788 255.954C395.491 256.013 401.019 258.34 406.781 257.526C410.854 256.944 414.346 254.616 416.79 251.415C419.234 248.215 420.631 244.199 420.864 240.184C421.155 234.248 418.885 228.196 420.514 222.318C421.329 219.35 423.075 216.615 426.043 215.509C428.894 214.52 431.979 215.102 434.947 214.985C439.253 214.811 442.628 212.949 444.782 209.166C447.808 203.87 447.109 197.527 449.204 191.94C451.707 185.19 458.748 179.428 466.197 182.746C467.187 183.211 468.118 181.698 467.07 181.233C456.944 176.693 448.506 185.83 446.527 195.025C445.247 201.019 445.48 210.33 438.322 212.716C433.317 214.403 427.672 211.785 423.075 215.218C419.292 218.012 418.187 223.133 418.245 227.614C418.419 234.19 420.456 240.591 417.547 246.876C414.87 252.812 409.574 256.362 402.998 255.954C397.178 255.605 391.417 253.219 385.539 254.732C375.588 257.235 371.34 268.99 372.911 278.185C373.028 279.174 374.715 278.709 374.482 277.661Z" fill="#E8E8E8"/>
<path d="M448.04 236.168C445.887 231.28 448.855 226.624 453.569 225.053C457.002 223.889 460.785 223.831 463.753 221.503C466.08 219.699 466.837 217.429 466.546 214.52C466.255 211.785 466.255 209.631 468.408 207.769C470.212 206.198 472.598 205.616 474.926 205.5C481.327 205.267 490.115 208.526 494.77 202.299C496.924 199.389 496.283 195.781 497.273 192.522C498.611 187.983 502.976 185.19 507.631 185.422C508.737 185.481 508.737 183.735 507.631 183.677C504.082 183.502 500.648 184.84 498.204 187.401C495.178 190.602 495.585 194.21 494.654 198.225C492.152 209.224 476.846 201.484 469.63 204.918C466.953 206.198 464.8 208.467 464.567 211.494C464.276 215.043 465.906 217.953 462.298 220.397C460.377 221.678 458.166 222.085 455.955 222.609C452.288 223.482 448.68 224.587 446.818 228.137C445.305 230.931 445.305 234.131 446.585 236.983C446.993 238.089 448.448 237.157 448.04 236.168Z" fill="#E8E8E8"/>
<path d="M551.743 158.653C551.51 158.129 551.278 157.547 551.103 156.965C551.859 156.092 552.558 155.219 553.314 154.346C553.547 154.288 554.595 154.986 554.944 154.986C555.817 155.103 556.573 154.87 557.272 154.346C559.425 152.659 558.668 149.982 559.308 147.712C560.356 143.813 564.953 146.49 567.048 143.58C569.143 140.729 568.387 134.677 573.973 136.306C575.079 136.597 575.545 134.909 574.439 134.618C571.238 133.687 568.329 135.2 567.165 138.285C566.815 139.158 566.699 140.147 566.35 141.02C565.593 143.057 564.779 143.348 562.567 143.464C560.938 143.58 559.658 143.464 558.552 144.861C557.621 146.083 557.621 147.654 557.446 149.109C557.272 151.262 557.446 153.066 554.245 152.833C553.605 152.775 553.082 152.193 552.383 152.193C548.542 152.135 549.182 156.849 550.114 159.118C550.463 160.166 552.209 159.7 551.743 158.653Z" fill="#E8E8E8"/>
<path d="M562.684 163.483C561.753 162.261 560.182 158.711 562.917 157.78C563.906 157.431 565.186 157.838 566.234 157.838C567.165 157.838 567.98 157.838 568.736 157.198C571.064 155.336 569.376 152.019 570.598 149.691C572.577 145.908 576.534 148.876 579.328 146.898C581.306 145.501 581.83 142.824 582.179 140.613C582.354 139.507 580.666 139.041 580.491 140.147C580.084 142.766 579.619 145.675 576.36 145.966C574.672 146.141 573.392 145.559 571.82 146.316C569.26 147.538 568.445 149.807 568.387 152.426C568.329 154.637 568.853 155.743 565.128 155.918C564.663 155.918 564.197 155.801 563.731 155.801C562.393 155.918 561.229 156.616 560.473 157.722C558.843 160.05 559.774 162.727 561.404 164.763C562.16 165.636 563.382 164.356 562.684 163.483Z" fill="#E8E8E8"/>
<path d="M67.9133 195.024C72.7434 189.205 79.6104 184.433 87.5249 185.248C96.1377 186.121 100.386 192.988 101.201 201.018C102.597 214.345 99.3384 230.29 108.359 241.638C111.908 246.119 117.204 248.505 122.907 247.109C129.774 245.479 135.128 240.067 141.239 236.866C148.455 233.084 158.406 231.047 164.924 237.39C169.696 242.046 170.743 249.145 172.314 255.314C173.769 260.901 176.272 267.069 181.276 270.386C184.303 272.365 187.62 272.54 191.111 272.307C195.01 272.016 202.983 271.783 202.168 277.894C202.052 278.999 203.798 278.999 203.914 277.894C204.205 275.508 203.099 273.587 201.179 272.19C198.153 269.979 194.661 270.328 191.111 270.561C187.096 270.852 183.662 270.503 180.578 267.651C177.785 265.091 176.097 261.483 174.875 257.933C172.838 251.822 172.256 245.13 168.765 239.543C165.331 234.015 159.395 231.338 152.994 231.571C144.905 231.862 138.096 236.517 131.636 240.824C128.552 242.86 125.235 245.014 121.452 245.654C116.913 246.41 112.898 244.432 109.988 241.056C104.518 234.655 103.645 225.518 103.354 217.488C103.063 209.98 104.052 201.833 101.55 194.559C99.2802 187.925 93.5189 183.793 86.5938 183.444C78.5629 183.036 71.5214 187.866 66.5748 193.802C65.9347 194.675 67.1568 195.897 67.9133 195.024Z" fill="#E8E8E8"/>
<path d="M38.5249 284.819C47.6033 299.949 55.6923 315.604 62.8503 331.724C63.3158 332.771 64.8289 331.84 64.3633 330.851C57.2054 314.731 49.0582 299.077 40.038 283.946C39.456 282.957 37.943 283.83 38.5249 284.819Z" fill="#E8E8E8"/>
<path d="M39.6304 284.121C53.7717 275.333 68.3203 267.128 83.2763 259.679C84.2656 259.155 83.3927 257.642 82.4034 258.166C67.5056 265.615 52.9569 273.82 38.7575 282.607C37.7681 283.248 38.6411 284.761 39.6304 284.121Z" fill="#E8E8E8"/>
<path d="M82.2288 258.922C89.6195 274.46 97.4175 289.765 105.681 304.838C106.205 305.827 107.718 304.954 107.194 303.965C98.9306 288.892 91.0743 273.587 83.7418 258.049C83.2181 257.002 81.7632 257.875 82.2288 258.922Z" fill="#E8E8E8"/>
<path d="M64.8286 332.073C78.7371 323.693 92.4711 315.08 106.089 306.234C107.02 305.652 106.147 304.139 105.216 304.721C91.5981 313.567 77.8642 322.18 63.9557 330.56C63.0246 331.142 63.8975 332.655 64.8286 332.073Z" fill="#E8E8E8"/>
<path d="M63.7233 278.999C63.3741 290.172 64.0143 301.288 65.6437 312.345C65.8183 313.45 67.5059 312.985 67.3314 311.879C65.7019 300.997 65.12 289.998 65.4691 278.999C65.5273 277.893 63.7815 277.893 63.7233 278.999Z" fill="#E8E8E8"/>
<path d="M63.7813 278.417C71.8703 284.761 79.9594 290.987 88.1648 297.156C89.0377 297.854 89.9106 296.341 89.0377 295.643C80.9487 289.591 72.9178 283.422 65.0033 277.195C64.1304 276.497 62.9083 277.719 63.7813 278.417Z" fill="#E8E8E8"/>
<path d="M67.4474 312.694C74.1398 306.7 82.869 303.499 89.2122 297.04C90.0269 296.225 88.7466 295.003 87.9901 295.818C81.6469 302.219 72.9759 305.478 66.2253 311.472C65.3524 312.17 66.6327 313.392 67.4474 312.694Z" fill="#E8E8E8"/>
<path d="M40.8525 293.955C42.7148 293.024 44.577 292.151 46.4392 291.22C47.4285 290.755 46.5556 289.242 45.5663 289.707C43.7041 290.638 41.8419 291.511 39.9796 292.442C38.9903 292.966 39.8632 294.421 40.8525 293.955Z" fill="#E8E8E8"/>
<path d="M46.8469 303.848C48.4182 302.801 50.1058 301.928 51.8516 301.171C52.8991 300.764 52.4336 299.076 51.3861 299.484C49.4657 300.299 47.6616 301.23 45.9158 302.335C45.0429 302.976 45.9158 304.489 46.8469 303.848Z" fill="#E8E8E8"/>
<path d="M53.4229 315.254C55.0523 314.44 56.6818 313.625 58.3112 312.868C59.3005 312.345 58.4276 310.89 57.4383 311.355C55.8088 312.17 54.1794 312.985 52.5499 313.741C51.5606 314.207 52.4335 315.72 53.4229 315.254Z" fill="#E8E8E8"/>
<path d="M56.7978 326.661C58.6018 325.09 60.464 323.751 62.5591 322.587C63.5484 322.005 62.6754 320.55 61.6861 321.074C59.5329 322.296 57.4961 323.751 55.5757 325.439C54.7028 326.195 55.9249 327.417 56.7978 326.661Z" fill="#E8E8E8"/>
<path d="M85.5461 270.387C86.8846 269.456 88.2813 268.816 89.8525 268.408C90.9582 268.117 90.4927 266.488 89.387 266.721C87.6993 267.128 86.0699 267.826 84.615 268.874C83.7421 269.514 84.615 271.027 85.5461 270.387Z" fill="#E8E8E8"/>
<path d="M90.7256 280.338C92.5878 279.174 94.45 278.01 96.2541 276.788C97.1852 276.206 96.3123 274.693 95.3812 275.275C93.5189 276.439 91.6567 277.603 89.8527 278.825C88.8634 279.465 89.7363 280.978 90.7256 280.338Z" fill="#E8E8E8"/>
<path d="M96.661 292.268C98.6397 291.395 100.676 290.522 102.655 289.649C103.703 289.183 102.771 287.67 101.782 288.136C99.8035 289.009 97.7667 289.882 95.7881 290.755C94.7406 291.22 95.6717 292.733 96.661 292.268Z" fill="#E8E8E8"/>
<path d="M100.909 300.066C102.48 298.553 104.226 297.273 106.147 296.167C107.136 295.643 106.263 294.13 105.274 294.654C103.237 295.818 101.375 297.156 99.6871 298.786C98.8724 299.6 100.095 300.822 100.909 300.066Z" fill="#E8E8E8"/>
<path d="M69.7753 324.391C71.2301 326.544 72.4522 328.814 73.3833 331.2C73.7907 332.247 75.4783 331.782 75.071 330.734C74.0817 328.174 72.8596 325.73 71.2883 323.46C70.6482 322.587 69.1351 323.46 69.7753 324.391Z" fill="#E8E8E8"/>
<path d="M78.6789 319.561C79.7846 321.539 80.8321 323.46 81.9378 325.438C82.4616 326.428 83.9746 325.555 83.4509 324.566C82.3452 322.587 81.2977 320.666 80.192 318.688C79.6682 317.699 78.1552 318.571 78.6789 319.561Z" fill="#E8E8E8"/>
<path d="M88.9797 312.17C90.1436 314.265 91.3075 316.36 92.4714 318.455C92.9951 319.445 94.5082 318.572 93.9844 317.583C92.8205 315.488 91.6566 313.393 90.4927 311.297C89.969 310.308 88.4559 311.181 88.9797 312.17Z" fill="#E8E8E8"/>
<path d="M98.2324 306.642C99.1635 308.853 100.095 311.065 101.084 313.218C101.55 314.266 103.004 313.334 102.597 312.345C101.666 310.134 100.735 307.922 99.7455 305.769C99.2799 304.78 97.7669 305.653 98.2324 306.642Z" fill="#E8E8E8"/>
<path d="M45.4502 275.158C46.5559 276.962 47.6034 278.766 48.7091 280.512C49.2911 281.502 50.8041 280.57 50.2222 279.639C49.1165 277.835 48.069 276.031 46.9633 274.285C46.3813 273.354 44.8683 274.227 45.4502 275.158Z" fill="#E8E8E8"/>
<path d="M55.4592 269.339C56.5067 271.667 57.5542 273.994 58.6017 276.322C59.0673 277.37 60.5803 276.439 60.1148 275.449C59.0673 273.121 58.0198 270.794 56.9723 268.466C56.4485 267.418 54.9937 268.291 55.4592 269.339Z" fill="#E8E8E8"/>
<path d="M64.4799 263.752C66.0511 265.847 67.2732 268.117 68.0879 270.561C68.4371 271.608 70.1247 271.143 69.7756 270.095C68.9027 267.477 67.6806 265.032 65.9929 262.879C65.3528 262.006 63.8397 262.821 64.4799 263.752Z" fill="#E8E8E8"/>
<path d="M74.1981 259.271C75.4202 261.134 76.5841 262.938 77.8062 264.8C78.3881 265.731 79.9012 264.858 79.3192 263.927C78.0972 262.065 76.9333 260.261 75.7112 258.398C75.071 257.467 73.558 258.34 74.1981 259.271Z" fill="#E8E8E8"/>
<path d="M164.691 143.871C159.046 142.125 158.755 136.131 161.432 131.65C164.051 127.286 169.114 126.122 173.071 129.73C176.33 132.756 176.621 137.935 173.595 141.253C170.569 144.628 165.622 144.57 162.13 142.009C161.257 141.311 160.384 142.824 161.257 143.522C165.68 146.781 172.14 146.257 175.457 141.66C178.89 137.004 177.668 130.487 172.838 127.344C161.199 119.837 151.19 141.485 164.225 145.559C165.331 145.908 165.797 144.22 164.691 143.871Z" fill="#E8E8E8"/>
<path d="M174.06 145.385C169.695 146.723 168.648 141.485 170.568 138.692C172.139 136.423 175.224 135.084 178.017 135.841C180.694 136.539 182.614 139.274 181.916 142.009C181.043 145.443 177.435 146.665 174.234 146.141C173.129 145.966 172.663 147.654 173.769 147.829C178.075 148.585 182.731 146.723 183.662 142.067C184.477 138.052 181.334 134.386 177.435 133.92C173.129 133.396 168.415 136.539 167.833 140.962C167.309 144.803 170.801 148.236 174.642 147.014C175.631 146.723 175.166 145.035 174.06 145.385Z" fill="#E8E8E8"/>
<path d="M136.932 183.269C135.535 186.121 137.514 188.972 140.424 189.729C142.635 190.311 144.963 189.787 147.233 189.903C149.677 190.02 152.121 190.602 154.332 191.591C159.221 193.803 162.363 197.818 162.538 203.23C162.712 207.769 161.374 212.483 163.352 216.789C167.542 225.868 179.065 218.943 185.001 224.82C189.947 229.767 187.911 238.787 194.545 242.57C195.534 243.152 196.407 241.638 195.418 241.057C189.482 237.681 190.878 228.894 186.688 224.006C184.477 221.445 181.276 220.747 178.017 220.514C174.06 220.281 168.939 221.096 166.029 217.721C162.654 213.763 164.458 207.827 164.284 203.172C164.167 199.506 162.945 196.189 160.385 193.57C158.115 191.3 155.147 189.729 152.063 188.914C150.491 188.507 148.862 188.216 147.233 188.158C145.138 188.041 136.059 189.089 138.503 184.142C138.969 183.153 137.456 182.28 136.932 183.269Z" fill="#E8E8E8"/>
<path d="M0.872919 497.404C11.4061 497.404 21.8812 497.404 32.4144 497.404C33.5201 497.404 33.5201 495.658 32.4144 495.658C21.8812 495.658 11.4061 495.658 0.872919 495.658C-0.290973 495.658 -0.290973 497.404 0.872919 497.404Z" fill="#E8E8E8"/>
<path d="M17.8656 536.86C38.1173 536.86 58.3109 536.86 78.5626 536.86C79.6683 536.86 79.6683 535.114 78.5626 535.114C58.3109 535.114 38.1173 535.114 17.8656 535.114C16.7017 535.114 16.7017 536.86 17.8656 536.86Z" fill="#E8E8E8"/>
<path d="M76.1185 525.919C94.9154 525.919 113.77 525.919 132.567 525.919C133.673 525.919 133.673 524.173 132.567 524.173C113.77 524.173 94.9154 524.173 76.1185 524.173C74.9546 524.173 74.9546 525.919 76.1185 525.919Z" fill="#E8E8E8"/>
<path d="M389.147 522.893C398.633 520.565 408.177 520.332 417.837 521.845C421.911 522.486 426.043 523.126 430.175 522.776C434.19 522.427 438.089 521.205 441.988 520.158C446.411 518.936 450.834 518.005 455.489 518.354C460.261 518.703 464.859 520.041 469.514 521.089C473.53 522.02 477.603 522.66 481.735 522.602C486.1 522.486 490.406 521.729 494.654 521.089C506.293 519.227 517.234 520.391 528.756 522.311C529.862 522.486 530.328 520.798 529.222 520.623C519.911 519.11 510.541 517.539 501.056 518.47C491.163 519.459 481.968 521.904 471.958 519.867C463.578 518.179 455.606 515.56 446.993 517.19C442.395 518.063 438.031 519.692 433.434 520.565C428.312 521.554 423.366 520.972 418.245 520.158C408.293 518.645 398.459 518.761 388.624 521.205C387.634 521.496 388.1 523.184 389.147 522.893Z" fill="#E8E8E8"/>
<path d="M478.534 505.202C496.808 504.213 515.081 503.223 533.354 502.292C542.374 501.827 551.103 502.001 560.065 503.223C564.081 503.747 567.921 503.863 571.937 503.398C576.418 502.874 581.073 502.176 585.263 504.329C586.253 504.853 587.126 503.34 586.136 502.816C579.037 499.208 570.831 502.583 563.208 501.885C558.668 501.477 554.246 500.605 549.706 500.372C544.993 500.139 540.279 500.255 535.565 500.488C516.536 501.361 497.506 502.525 478.476 503.514C477.429 503.514 477.429 505.26 478.534 505.202Z" fill="#E8E8E8"/>
<path d="M120.695 555.191C129.308 556.006 137.979 556.82 146.592 555.831C150.608 555.365 154.448 554.492 158.347 553.329C163.41 551.816 167.95 551.408 173.187 552.339C177.202 553.038 181.16 554.027 185.175 554.376C189.423 554.725 193.672 554.492 197.92 554.085C206.824 553.212 215.727 551.699 224.573 553.678C225.679 553.911 226.144 552.223 225.038 551.99C216.542 550.128 208.046 551.35 199.491 552.223C195.243 552.63 190.995 553.038 186.746 552.805C181.916 552.572 177.261 551.292 172.547 550.535C168.59 549.895 164.807 549.895 160.908 550.826C156.718 551.874 152.761 553.27 148.454 553.911C139.26 555.249 129.89 554.318 120.695 553.503C119.532 553.329 119.59 555.074 120.695 555.191Z" fill="#E8E8E8"/>
<path d="M212.759 85.6187C210.49 84.0474 207.405 81.545 208.337 78.4025C209.326 75.1436 211.77 76.7149 214.04 75.9584C217.066 74.9691 216.891 71.3028 216.018 68.9168C215.145 66.589 213.283 60.9442 218.113 62.8646C219.219 63.3301 220.034 64.0867 221.314 63.6793C222.478 63.3301 223.06 62.2826 223.351 61.1769C223.584 60.1876 223.409 59.1401 223.351 58.0926C223.234 57.3943 223.176 56.6378 223.176 55.9394C222.943 54.2518 223.991 53.5534 226.202 53.8444C226.26 54.9501 228.006 54.9501 227.948 53.8444C227.832 52.215 226.61 51.0511 224.864 51.1093C222.827 51.1675 221.721 53.1461 221.488 55.0083C221.314 56.2886 222.361 59.2565 221.779 60.304C221.081 60.7696 220.383 61.2933 219.626 61.7589C219.335 61.5843 219.044 61.4097 218.753 61.2351C218.23 61.0605 217.822 60.7114 217.298 60.595C215.494 60.1876 214.04 61.2933 213.399 62.9228C212.294 65.7161 214.272 68.0439 214.854 70.6627C215.611 74.2707 212.876 73.8634 210.49 74.2707C209.442 74.4453 208.569 74.9691 207.871 75.7256C204.205 79.9738 208.453 84.6876 211.945 87.1317C212.817 87.7719 213.69 86.2588 212.759 85.6187Z" fill="#E8E8E8"/>
<path d="M224.224 83.9894C222.303 81.778 220.848 78.7519 224.573 77.588C225.504 77.297 226.551 77.4134 227.424 76.8315C229.345 75.493 228.53 73.689 228.181 71.8267C228.006 70.7792 227.599 69.3826 228.239 68.3351C228.705 67.5785 230.392 67.2876 231.265 67.113C232.487 66.822 233.768 66.6474 234.815 65.9491C236.386 64.8434 236.968 62.8648 235.921 61.1771C235.339 60.246 233.826 61.1189 234.408 62.05C236.154 64.8434 228.006 65.5999 226.61 67.6367C224.98 70.0227 228.414 74.2127 225.562 75.7258C224.456 76.3077 223.06 75.9004 222.012 76.6569C221.256 77.1806 220.732 77.9954 220.499 78.8683C219.859 81.3707 221.547 83.5239 223.06 85.2697C223.758 86.0844 224.98 84.8623 224.224 83.9894Z" fill="#E8E8E8"/>
<path d="M155.496 70.1969C153.983 69.1494 153.808 67.2872 154.274 65.6578C154.565 64.5521 155.962 61.5259 157.3 61.4096C159.511 61.1768 160.617 63.9701 161.199 65.5996C161.723 67.1708 161.897 68.7421 161.956 70.3715C161.956 71.4772 163.701 71.4772 163.701 70.3715C163.643 67.1126 161.49 57.1032 156.136 60.0129C154.099 61.1186 152.586 64.3193 152.353 66.5307C152.121 68.6257 152.935 70.4879 154.623 71.71C155.496 72.3501 156.369 70.8371 155.496 70.1969Z" fill="#E8E8E8"/>
<path d="M154.798 71.1281C152.703 71.6518 150.608 72.1756 148.455 72.6993C147.232 72.9903 145.137 73.1067 144.148 74.0378C142.46 75.6091 142.926 80.4392 142.926 82.476C142.926 83.058 143.508 83.4653 144.032 83.2907C144.323 83.2326 144.614 83.1162 144.963 83.058C146.476 82.2432 147.232 82.767 147.291 84.5128C148.455 85.6767 148.455 86.3751 147.291 86.4915C146.592 86.7824 145.894 86.8988 145.137 86.8988C144.672 86.957 144.265 87.248 144.265 87.7717C144.381 91.4962 144.672 95.1625 145.079 98.8869C145.196 99.9926 146.941 99.9926 146.825 98.8869C146.418 95.1625 146.127 91.4962 146.01 87.7717C145.719 88.0627 145.428 88.3537 145.137 88.6447C147.582 88.3537 151.481 87.3644 150.957 84.0473C150.375 80.4974 146.069 80.9048 143.624 81.6031C143.974 81.8941 144.381 82.1851 144.73 82.4178C144.73 81.0794 144.73 79.7991 144.846 78.4606C145.021 76.3656 144.905 75.6091 146.825 74.8525C149.444 73.805 152.528 73.4559 155.263 72.7575C156.369 72.5829 155.903 70.8953 154.798 71.1281Z" fill="#E8E8E8"/>
<path d="M163.178 71.6521C165.622 71.5358 168.124 71.5357 170.569 71.8267C172.896 72.1177 172.78 72.4669 173.129 74.5037C173.362 75.784 173.42 77.1224 173.537 78.4027C174.002 83.4075 174.351 88.4122 174.642 93.4169C174.7 94.5226 176.446 94.5226 176.388 93.4169C176.039 86.6082 175.806 79.6248 174.7 72.8742C174.409 71.1866 174.118 70.6628 172.373 70.3719C169.347 69.7899 166.204 69.7899 163.178 69.9645C162.072 69.9645 162.072 71.7103 163.178 71.6521Z" fill="#E8E8E8"/>
<path d="M146.36 100.109C149.793 99.5273 153.226 98.9453 156.602 98.3634C160.501 97.7232 164.225 98.0142 168.124 97.7232C169.928 97.5487 178.483 96.6757 175.34 93.1259C174.584 92.3111 173.362 93.5332 174.118 94.3479C174.584 94.8717 166.669 96.0356 166.495 96.0356C164.051 96.0938 161.606 95.9774 159.162 96.2684C154.74 96.7921 150.317 97.7232 145.894 98.4798C144.788 98.5962 145.254 100.284 146.36 100.109Z" fill="#E8E8E8"/>
<path d="M455.49 435.252C455.315 441.362 455.14 447.473 454.966 453.641C462.706 454.165 470.387 454.631 478.127 455.155C478.127 448.869 478.127 442.584 478.127 436.299C470.562 435.95 463.055 435.601 455.49 435.252Z" fill="white" stroke="#161616" stroke-width="1.16389"/>
<path d="M465.557 503.165C466.605 509.916 467.07 515.503 467.303 519.518C468.06 532.845 467.478 535.929 466.314 538.373C463.462 544.367 458.283 546.869 458.749 547.684C459.098 548.208 461.658 547.626 473.064 541.632C472.366 528.364 471.726 515.153 471.028 501.885C469.224 502.351 467.42 502.758 465.557 503.165Z" fill="white" stroke="#161616" stroke-width="1.16389"/>
<path d="M450.485 460.392C460.378 460.451 470.271 460.567 480.164 460.625C479.058 473.893 478.011 487.104 476.905 500.372C468.292 499.674 459.621 499.034 451.009 498.335C450.776 485.707 450.601 473.079 450.485 460.392Z" fill="white" stroke="#161616" stroke-width="1.16389"/>
<path d="M454.5 502.699C457.643 510.323 458.69 516.899 459.039 521.322C459.563 527.839 459.912 532.844 456.77 536.161C455.606 537.442 453.686 538.664 449.961 541.166C446.644 543.377 445.073 544.192 445.189 544.425C445.364 544.774 448.564 544.076 462.531 539.129C463.462 534.415 464.219 528.363 464.044 521.264C463.811 513.698 462.589 507.239 461.251 502.408C459.039 502.525 456.77 502.583 454.5 502.699Z" fill="white" stroke="#161616" stroke-width="1.16389"/>
<path d="M459.563 548.208C461.309 546.753 462.938 545.182 464.51 543.494C466.314 541.515 468.991 538.489 471.784 541.108C471.842 540.642 471.9 540.177 471.959 539.711C467.827 541.748 463.753 543.785 459.621 545.764C458.807 546.171 459.214 547.393 460.087 547.393C463.986 547.451 466.43 540.642 470.445 541.923C471.493 542.272 471.959 540.584 470.911 540.235C469.165 539.711 467.827 540.177 466.372 541.224C464.684 542.446 462.298 545.647 460.145 545.647C460.32 546.171 460.436 546.753 460.611 547.277C464.742 545.24 468.816 543.203 472.948 541.224C473.472 540.992 473.53 540.235 473.122 539.828C471.551 538.373 468.758 537.849 466.779 538.78C465.324 539.42 464.393 541.108 463.346 542.214C461.774 543.901 460.145 545.414 458.399 546.927C457.468 547.684 458.69 548.964 459.563 548.208Z" fill="#161616"/>
<path d="M466.721 539.129C468.467 539.187 470.155 539.537 471.784 540.235C472.774 540.7 473.705 539.187 472.657 538.722C470.737 537.849 468.816 537.383 466.721 537.325C465.616 537.383 465.616 539.129 466.721 539.129Z" fill="#161616"/>
<path d="M457.177 537.092C458.516 537.441 459.679 538.14 460.611 539.187C461.367 540.002 462.589 538.78 461.833 537.965C460.669 536.743 459.214 535.87 457.584 535.463C456.595 535.114 456.13 536.801 457.177 537.092Z" fill="#161616"/>
<path d="M447.75 544.134C449.554 542.795 451.416 541.573 453.337 540.409C454.209 539.886 455.141 539.187 456.072 538.896C457.527 538.373 458.399 538.722 459.738 539.304C459.738 538.78 459.738 538.314 459.738 537.791C457.876 538.605 455.781 538.547 453.86 539.362C451.998 540.118 450.252 541.981 448.332 542.33C448.565 542.854 448.797 543.377 449.03 543.901C452.464 542.213 456.304 541.922 459.738 540.235C460.727 539.711 459.854 538.256 458.865 538.722C455.432 540.409 451.591 540.7 448.157 542.388C447.226 542.854 447.924 544.134 448.856 543.959C450.951 543.61 452.638 541.69 454.617 540.933C456.595 540.177 458.749 540.118 460.669 539.304C461.251 539.071 461.251 538.023 460.669 537.791C458.458 536.801 457.468 536.219 455.257 537.383C452.347 538.896 449.612 540.7 446.993 542.621C445.946 543.261 446.819 544.774 447.75 544.134Z" fill="#161616"/>
<path d="M457.701 511.604C459.156 511.08 460.611 511.138 461.949 511.836C462.939 512.36 463.811 510.847 462.822 510.323C461.076 509.392 459.098 509.218 457.235 509.916C456.188 510.323 456.654 512.011 457.701 511.604Z" fill="#161616"/>
<path d="M459.156 517.423C460.378 517.306 461.542 517.597 462.473 518.412C463.346 519.11 464.568 517.888 463.695 517.19C462.415 516.142 460.844 515.56 459.156 515.677C458.05 515.735 458.05 517.481 459.156 517.423Z" fill="#161616"/>
<path d="M459.796 524.697C460.902 524.58 461.949 524.988 462.589 525.919C463.171 526.85 464.684 525.977 464.102 525.046C463.229 523.591 461.542 522.718 459.854 522.951C459.389 523.009 458.981 523.3 458.981 523.824C458.923 524.231 459.33 524.755 459.796 524.697Z" fill="#161616"/>
<path d="M467.303 511.196C468.351 510.614 469.689 510.672 470.679 511.487C471.551 512.185 472.774 510.963 471.901 510.265C470.329 508.984 468.234 508.693 466.43 509.683C465.441 510.265 466.314 511.778 467.303 511.196Z" fill="#161616"/>
<path d="M468.292 522.195C469.223 521.787 470.271 521.962 471.027 522.66C471.842 523.417 473.122 522.195 472.249 521.438C470.911 520.216 469.049 519.925 467.361 520.74C466.372 521.147 467.303 522.66 468.292 522.195Z" fill="#161616"/>
<path d="M468.525 531.506C469.456 530.924 470.62 530.924 471.493 531.622C472.366 532.321 473.588 531.099 472.715 530.4C471.26 529.178 469.223 529.004 467.652 530.051C466.721 530.633 467.594 532.146 468.525 531.506Z" fill="#161616"/>
<path d="M481.561 460.567C480.397 473.951 479.233 487.336 478.069 500.721" stroke="#161616" stroke-width="3.49168"/>
<path d="M450.834 498.858C460.552 499.557 470.271 500.197 479.989 500.895" stroke="#161616" stroke-width="3.49168"/>
<path d="M480.048 435.775C479.815 442.41 479.524 448.986 479.291 455.62" stroke="#161616" stroke-width="3.49168"/>
<path d="M481.27 468.423C486.682 467.433 492.443 471.682 492.851 477.268C493.432 484.252 485.46 485.474 480.222 484.717C479.117 484.543 478.651 486.23 479.757 486.405C486.158 487.336 495.178 485.532 494.596 477.268C494.131 470.46 487.322 465.513 480.804 466.735C479.699 466.91 480.164 468.597 481.27 468.423Z" fill="#161616"/>
<path d="M479.989 487.802C482.259 488.267 484.063 489.897 484.703 492.108C484.994 493.214 486.682 492.748 486.391 491.642C485.634 488.849 483.365 486.638 480.513 486.114C479.349 485.939 478.884 487.569 479.989 487.802Z" fill="#161616"/>
<path d="M479.116 487.22C480.513 489.257 481.153 491.526 480.92 494.029C480.862 495.134 482.608 495.134 482.666 494.029C482.841 491.294 482.142 488.617 480.571 486.347C479.989 485.416 478.476 486.289 479.116 487.22Z" fill="#161616"/>
<path d="M450.427 467.608C446.586 465.164 439.544 472.205 438.671 475.639C436.925 482.622 445.887 481.807 449.612 484.135C450.543 484.717 451.416 483.204 450.485 482.622C447.808 480.935 443.851 481.575 441.523 479.48C438.671 476.919 441.29 473.835 443.269 472.031C444.316 471.1 447.866 468.015 449.554 469.063C450.485 469.761 451.416 468.248 450.427 467.608Z" fill="#161616"/>
<path d="M449.495 483.321C447.982 483.903 446.586 484.776 445.422 485.998C444.549 486.929 443.443 488.384 444.316 489.664C444.956 490.595 446.469 489.722 445.829 488.791C445.422 488.209 446.935 486.929 447.342 486.58C448.099 485.881 448.972 485.358 449.961 485.008C451.008 484.601 450.601 482.913 449.495 483.321Z" fill="#161616"/>
<path d="M448.797 484.543C447.691 486.288 447.342 488.267 447.749 490.246C447.982 491.351 449.67 490.886 449.437 489.78C449.088 488.209 449.437 486.754 450.31 485.416C450.95 484.484 449.437 483.611 448.797 484.543Z" fill="#161616"/>
<path d="M454.326 466.503C454.035 470.751 454.093 475.057 454.384 479.305C454.5 480.411 456.246 480.411 456.13 479.305C455.78 475.057 455.78 470.751 456.071 466.503C456.188 465.397 454.442 465.397 454.326 466.503Z" fill="#161616"/>
<path d="M455.606 466.968C461.775 467.317 467.885 467.55 474.054 467.666C473.763 467.375 473.472 467.084 473.181 466.793C473.006 471.158 472.832 475.581 472.599 479.945C472.541 481.051 474.287 481.051 474.345 479.945C474.519 475.581 474.694 471.158 474.927 466.793C474.927 466.328 474.519 465.92 474.054 465.92C467.885 465.804 461.775 465.571 455.606 465.222C454.5 465.164 454.5 466.91 455.606 466.968Z" fill="#161616"/>
<path d="M454.908 480.062C457.468 480.76 460.32 480.586 462.88 480.76C466.023 480.935 469.223 481.167 472.366 481.342C473.472 481.4 473.472 479.654 472.366 479.596C469.573 479.422 466.779 479.247 463.986 479.072C461.193 478.898 458.05 479.072 455.315 478.374C454.326 478.083 453.86 479.771 454.908 480.062Z" fill="#161616"/>
<path d="M456.886 489.082C457.934 491.352 460.203 489.373 461.949 490.188C462.764 490.537 462.589 491.061 463.695 491.119C464.975 491.177 468.118 488.617 468.758 491.003C468.933 491.643 469.747 491.817 470.213 491.41C470.795 491.235 471.435 491.061 472.017 490.944C472.715 491.817 473.996 490.537 473.239 489.722C471.901 488.151 470.213 489.024 468.933 490.188C469.398 490.304 469.922 490.421 470.388 490.595C469.864 488.558 467.711 487.22 465.674 488.151C464.684 488.617 464.568 489.49 463.055 488.908C462.764 488.791 462.648 488.326 462.357 488.209C461.717 487.976 458.341 488.326 458.341 488.267C457.934 487.162 456.421 488.035 456.886 489.082Z" fill="#161616"/>
<path d="M459.971 443.283C460.087 442.643 460.844 442.468 461.367 442.701C462.124 442.992 462.531 443.865 462.88 444.505C463.346 445.494 464.859 444.621 464.393 443.632C463.753 442.352 462.764 441.013 461.193 440.839C459.912 440.722 458.574 441.479 458.341 442.759C458.05 443.923 459.738 444.389 459.971 443.283Z" fill="#161616"/>
<path d="M470.678 444.097C470.795 443.515 471.318 443.166 471.9 443.399C472.599 443.632 472.89 444.505 473.006 445.145C473.181 446.25 474.868 445.785 474.694 444.679C474.461 443.283 473.53 441.828 472.017 441.595C470.678 441.42 469.223 442.235 468.991 443.632C468.816 444.737 470.504 445.203 470.678 444.097Z" fill="#161616"/>
<path d="M460.843 446.949C462.822 450.441 467.536 450.964 470.096 447.822C470.795 446.949 469.573 445.727 468.874 446.6C467.012 448.869 463.811 448.695 462.357 446.076C461.833 445.087 460.32 445.96 460.843 446.949Z" fill="#161616"/>
<path d="M399.797 130.72C392.464 127.752 388.042 120.652 385.365 113.552C382.513 106.161 381.291 98.1306 381.698 90.2161C382.397 75.6093 388.624 60.8279 400.146 51.5167C411.029 42.6711 427.148 40.1688 439.253 48.1996C451.881 56.5796 454.151 73.8635 454.267 87.772C454.383 103.252 450.775 119.488 439.311 130.603C438.496 131.36 439.718 132.64 440.533 131.825C451.416 121.234 455.547 106.103 455.955 91.3218C456.362 76.8314 454.616 58.5001 442.686 48.5488C431.513 39.2377 414.928 39.7032 402.998 47.2685C389.787 55.6485 381.989 70.8373 380.302 86.1425C379.254 95.6282 380.418 105.463 383.91 114.425C386.878 121.99 391.592 129.207 399.39 132.349C400.379 132.815 400.786 131.127 399.797 130.72Z" fill="#161616"/>
<path d="M398.982 131.825C397.004 134.619 397.411 138.751 400.321 140.846C402.532 142.417 405.791 142.65 408.41 142.999C411.552 143.464 414.753 143.639 417.954 143.639C423.657 143.581 430.175 143.173 435.47 140.962C439.311 139.333 442.221 135.492 440.184 131.36C439.718 130.371 438.205 131.243 438.671 132.233C443.036 141.137 422.376 141.893 417.895 141.893C413.764 141.893 409.632 141.544 405.616 140.787C403.696 140.438 401.543 140.089 400.321 138.401C399.099 136.656 399.331 134.386 400.495 132.757C401.135 131.767 399.622 130.894 398.982 131.825Z" fill="#161616"/>
<path d="M400.845 141.253C400.845 144.163 400.903 147.13 401.252 150.04C401.427 151.379 401.718 152.543 402.823 153.357C404.395 154.521 407.013 154.463 408.876 154.638C412.018 154.87 415.219 154.87 418.361 154.754C421.329 154.638 424.297 154.405 427.265 154.114C429.011 153.939 430.99 153.997 432.328 152.659C435.296 149.749 435.354 144.221 434.598 140.554C434.365 139.449 432.677 139.914 432.91 141.02C433.317 142.999 433.434 144.977 433.026 147.014C432.444 149.866 431.63 151.728 428.429 152.31C424.705 153.008 420.515 153.008 416.732 153.066C413.007 153.125 408.817 153.299 405.151 152.426C401.776 151.611 402.649 144.046 402.649 141.253C402.591 140.147 400.845 140.147 400.845 141.253Z" fill="#161616"/>
<path d="M401.426 78.577C408.41 82.9416 413.705 89.343 416.673 97.0247C417.081 98.0722 418.768 97.6067 418.361 96.5592C415.218 88.4119 409.69 81.6613 402.357 77.064C401.368 76.4238 400.495 77.9369 401.426 78.577Z" fill="#161616"/>
<path d="M418.07 97.025C421.504 89.8088 426.508 83.6402 432.91 78.8683C433.783 78.2281 432.91 76.6569 432.037 77.3552C425.403 82.3017 420.165 88.7031 416.557 96.1521C416.092 97.1414 417.605 98.0143 418.07 97.025Z" fill="#161616"/>
<path d="M416.674 94.9884C417.546 106.976 417.954 118.965 417.779 130.953C417.779 132.058 419.525 132.058 419.525 130.953C419.7 118.965 419.292 106.918 418.419 94.9884C418.303 93.8245 416.557 93.8245 416.674 94.9884Z" fill="#161616"/>
<path d="M348.527 124.318C356.267 121.699 363.949 119.08 371.689 116.462C372.736 116.113 372.271 114.425 371.223 114.774C363.483 117.393 355.802 120.012 348.062 122.63C346.956 122.98 347.422 124.667 348.527 124.318Z" fill="#161616"/>
<path d="M357.373 112.679C360.05 111.923 362.727 111.108 365.404 110.351C366.451 110.06 366.044 108.373 364.938 108.664C362.261 109.42 359.584 110.235 356.907 110.992C355.86 111.341 356.267 113.028 357.373 112.679Z" fill="#161616"/>
<path d="M337.994 93.3005C348.237 93.1841 358.421 93.4751 368.605 94.1152C369.71 94.1734 369.71 92.4276 368.605 92.3694C358.421 91.7292 348.178 91.4964 337.994 91.5546C336.889 91.5546 336.889 93.3005 337.994 93.3005Z" fill="#161616"/>
<path d="M359.642 85.3861C362.087 86.0263 364.589 86.3173 367.091 86.3754C368.197 86.3754 368.197 84.6296 367.091 84.6296C364.705 84.5714 362.378 84.2804 360.108 83.6985C359.002 83.4075 358.537 85.0952 359.642 85.3861Z" fill="#161616"/>
<path d="M355.86 31.2067C364.997 39.063 373.318 47.6758 380.826 57.1033C381.524 57.9762 382.746 56.7542 382.048 55.8812C374.541 46.4537 366.219 37.7827 357.082 29.9846C356.267 29.2281 354.987 30.4502 355.86 31.2067Z" fill="#161616"/>
<path d="M381.407 47.7343C382.979 49.3637 384.492 50.9932 386.063 52.6808C386.82 53.4956 388.042 52.2735 387.285 51.4588C385.714 49.8293 384.201 48.1999 382.63 46.5122C381.873 45.6975 380.651 46.9196 381.407 47.7343Z" fill="#161616"/>
<path d="M345.967 50.9932C348.818 52.6808 351.728 54.2521 354.696 55.707C355.685 56.2307 356.558 54.7176 355.569 54.1939C352.601 52.6808 349.691 51.1096 346.84 49.4801C345.851 48.8982 344.978 50.4112 345.967 50.9932Z" fill="#161616"/>
<path d="M447.226 37.7246C455.838 29.1118 464.451 20.499 473.064 11.8862C473.879 11.0714 472.598 9.84934 471.842 10.6641C463.229 19.2769 454.616 27.8897 446.004 36.5025C445.189 37.3172 446.411 38.5393 447.226 37.7246Z" fill="#161616"/>
<path d="M455.896 41.7402C458.108 40.1107 460.319 38.5395 462.531 36.91C463.404 36.2699 462.589 34.7568 461.658 35.397C459.446 37.0264 457.235 38.5977 455.024 40.2271C454.092 40.8673 454.965 42.3803 455.896 41.7402Z" fill="#161616"/>
<path d="M420.34 26.3185C422.085 17.8803 423.424 9.38388 424.239 0.829273C424.355 -0.276424 422.609 -0.276424 422.493 0.829273C421.678 9.2093 420.398 17.5893 418.652 25.853C418.419 26.9587 420.107 27.4242 420.34 26.3185Z" fill="#161616"/>
<path d="M469.281 79.8575C485.11 78.4026 500.881 76.9477 516.71 75.4929C517.816 75.3765 517.816 73.6306 516.71 73.747C500.881 75.2019 485.11 76.6568 469.281 78.1116C468.176 78.1698 468.118 79.9157 469.281 79.8575Z" fill="#161616"/>
<path d="M402.765 133.921C412.6 136.074 422.609 136.016 432.386 133.804C433.492 133.571 433.026 131.884 431.921 132.117C422.435 134.27 412.716 134.328 403.231 132.233C402.125 132 401.659 133.688 402.765 133.921Z" fill="#161616"/>
<path d="M404.22 148.702C411.727 149.691 419.234 149.924 426.799 149.4C427.905 149.342 427.905 147.596 426.799 147.654C419.234 148.178 411.727 147.945 404.22 146.956C403.114 146.84 403.114 148.585 404.22 148.702Z" fill="#161616"/>
<path d="M458.282 128.043C470.096 136.365 482.142 144.396 494.363 152.135C495.294 152.717 496.167 151.204 495.236 150.622C483.015 142.882 470.969 134.852 459.155 126.53C458.224 125.89 457.351 127.403 458.282 128.043Z" fill="#161616"/>
<path d="M309.596 537.384C298.539 550.943 287.54 564.444 276.483 578.004C289.46 623.628 296.793 635.616 301.157 634.976C304.3 634.511 305.813 627.702 307.501 620.078C311.691 601.049 309.188 584.696 306.628 574.512C313.611 566.714 320.536 558.858 327.52 551.06C321.526 546.52 315.59 541.981 309.596 537.384Z" fill="#2B7A78" stroke="#242323" stroke-width="1.16389"/>
<path d="M268.801 467.55C275.726 472.904 282.36 470.984 296.094 473.312C307.791 475.29 320.943 479.655 334.91 488.384C320.012 505.842 305.114 524.29 290.333 543.727C286.783 548.441 283.233 553.155 279.8 557.868C285.503 559.207 292.37 561.302 299.819 564.677C307.093 567.936 313.029 571.602 317.743 574.919C339.915 555.599 359.701 536.918 377.334 519.285C385.481 511.138 397.004 498.684 398.808 481.052C398.924 480.062 398.924 479.189 398.924 478.316C398.517 449.044 361.68 427.862 339.275 420.064C314.775 411.567 272.642 406.97 260.887 427.28C253.961 439.268 258.035 459.229 268.801 467.55Z" fill="#17252A"/>
<path opacity="0.26" d="M311.807 438.278C311.4 443.807 310.41 450.383 308.373 457.657C306.919 462.836 305.173 467.434 303.427 471.333C301.506 472.089 299.644 472.846 297.724 473.602C310.236 478.549 322.806 483.495 335.318 488.442C326.006 499.091 316.637 510.265 307.21 521.904C297.491 533.892 288.238 545.647 279.451 557.228C285.678 559.265 291.846 561.301 298.073 563.28C320.361 538.722 342.65 514.106 364.939 489.548C367.266 482.855 367.15 477.618 366.452 473.951C363.251 456.027 341.312 441.421 311.807 438.278Z" fill="#6D6C6C"/>
<path opacity="0.23" d="M335.201 488.326C337.238 491.41 339.216 494.553 341.253 497.637C323.911 518.529 306.569 539.362 289.227 560.254C286.143 559.439 283 558.567 279.916 557.752C291.031 542.505 303.019 526.851 315.997 511.08C322.456 503.224 328.858 495.658 335.201 488.326Z" fill="#6D6C6C"/>
<path d="M277.297 515.27C294.465 518.413 311.69 521.497 328.858 524.64C348.702 567.936 350.913 581.903 347.189 584.289C344.512 585.977 338.925 581.787 332.698 577.073C317.102 565.259 308.431 551.176 303.718 541.691C293.359 540.294 283 538.839 272.642 537.442C274.155 530.052 275.726 522.661 277.297 515.27Z" fill="#2B7A78" stroke="#17252A" stroke-width="1.16389"/>
<path d="M241.915 418.841C210.606 428.036 191.518 447.124 179.239 459.694C162.654 476.745 142.286 497.637 148.163 513.058C151.19 520.915 160.384 525.745 203.216 533.194C235.572 538.839 263.622 541.865 285.503 543.552C288.238 533.543 290.973 523.592 293.65 513.582C271.652 506.482 249.713 499.441 227.715 492.341C241.217 489.489 255.416 486.114 270.198 481.982C281.429 478.84 292.137 475.581 302.321 472.147C311.748 453.118 313.785 432.575 303.95 420.936C290.216 404.642 259.432 413.662 241.915 418.841Z" fill="#17252A"/>
<path opacity="0.29" d="M311.574 438.977C311.283 444.738 310.294 452.129 307.617 460.276C305.987 465.223 304.125 469.529 302.263 473.079C300.692 473.195 299.12 473.37 297.549 473.486C284.281 477.851 270.139 481.983 255.183 485.823C245.523 488.326 236.096 490.479 226.959 492.458C249.015 499.383 271.071 506.25 293.126 513.175C292.661 515.561 292.079 518.063 291.38 520.682C290.566 523.708 289.635 526.502 288.762 529.062C258.326 521.555 227.89 514.048 197.454 506.541C196.058 504.853 191.46 498.743 192.159 490.654C192.915 481.866 201.295 475.639 212.003 469.936C242.963 453.525 294.872 442.41 311.574 438.977Z" fill="#6D6C6C"/>
<path opacity="0.24" d="M211.305 493.68C216.833 493.272 222.42 492.865 227.948 492.399C249.655 499.616 271.362 506.89 293.068 514.106C292.137 517.539 291.206 521.031 290.275 524.465C263.971 514.164 237.609 503.922 211.305 493.68Z" fill="#6D6C6C"/>
<path d="M233.709 286.972C242.322 281.909 257.278 274.693 277.181 272.598C307.675 269.397 331.069 280.338 340.322 285.285C338.634 308.155 336.016 326.428 333.921 338.998C331.418 354.012 329.381 362.334 328.45 376.126C327.286 393.41 328.741 407.61 330.08 416.921C319.954 420.063 304.649 423.497 285.794 423.089C267.637 422.682 252.972 418.725 243.137 415.291C245.756 394.458 244.883 377.93 243.603 366.699C242.148 354.187 240.169 348.077 237.783 332.946C234.699 313.393 233.884 297.389 233.709 286.972Z" fill="white" stroke="#161616" stroke-width="1.16389"/>
<path opacity="0.14" d="M296.676 279.523C297.898 283.946 299.295 290.057 300.226 297.389C300.866 302.336 303.485 324.741 295.338 354.304C290.333 372.518 285.037 391.781 267.695 407.61C262.109 412.731 256.696 416.164 252.739 418.318C261.527 420.587 272.991 422.74 286.55 422.857C304.3 423.031 318.965 419.831 329.149 416.688C328.567 412.324 327.81 405.748 327.519 397.833C327.287 390.908 327.287 379.851 332.059 348.717C335.841 324.217 338.518 313.684 339.857 291.512C340.031 288.951 340.089 286.798 340.206 285.343C335.958 282.841 330.429 280.105 323.62 277.894C317.335 275.857 311.69 274.81 307.035 274.344C303.66 276.032 300.168 277.778 296.676 279.523Z" fill="#6D6C6C"/>
<path opacity="0.17" d="M338.518 294.828C335.259 313.276 330.953 328.174 327.578 338.532C317.684 368.794 310.759 389.162 292.079 404.06C280.498 413.312 268.452 417.212 260.712 419.074C268.568 421.285 279.683 423.438 293.126 423.147C308.606 422.798 321.118 419.307 329.323 416.339C328.218 409.239 326.937 398.589 327.287 385.612C327.694 368.794 330.429 358.668 333.455 340.22C335.143 329.396 337.296 313.916 338.518 294.828Z" fill="#6D6C6C"/>
<path d="M233.36 286.681C225.795 291.919 216.076 300.182 207.58 312.461C188.434 340.278 188.958 369.783 189.714 380.665C193.206 390.035 199.2 402.314 209.675 414.36C215.786 421.402 224.747 431.528 240.053 438.045C245.174 440.257 249.655 441.479 252.914 442.177C255.707 439.675 258.442 437.172 261.236 434.67C252.274 424.195 243.253 413.196 234.233 401.848C227.308 393.177 220.674 384.564 214.272 376.068C214.505 368.91 216.018 355.933 223.816 342.373C228.239 334.692 233.418 329.105 237.55 325.322C236.154 312.461 234.757 299.6 233.36 286.681Z" fill="white" stroke="#161616" stroke-width="1.16389"/>
<path opacity="0.13" d="M234.466 299.658C217.706 318.572 209.733 336.496 205.776 347.785C198.851 367.339 200.306 377.581 201.353 382.469C202.226 386.31 204.147 392.886 211.188 402.896C217.299 411.567 230.16 427.105 254.66 439.907C256.813 437.812 258.966 435.776 261.119 433.681C254.194 425.883 247.211 417.677 240.169 409.123C230.916 397.891 222.303 386.834 214.331 376.01C214.563 370.132 215.553 361.927 218.986 352.732C224.166 338.94 232.313 329.861 237.376 325.031C236.328 316.593 235.397 308.155 234.466 299.658Z" fill="#6D6C6C"/>
<path opacity="0.16" d="M214.272 376.766C215.32 383.575 217.473 392.246 222.012 401.615C232.022 421.984 247.676 433.215 255.649 438.103C257.22 436.707 258.733 435.368 260.304 433.972C244.941 414.884 229.636 395.796 214.272 376.766Z" fill="#6D6C6C"/>
<path d="M341.195 285.634C349.691 290.813 360.632 298.902 370.118 310.949C391.65 338.242 391.01 367.223 390.195 377.931C386.238 387.125 379.545 399.172 367.79 411.043C360.923 417.91 350.855 427.862 333.688 434.321C327.927 436.474 322.864 437.697 319.197 438.395C316.113 435.951 312.971 433.507 309.886 431.062C319.896 420.762 330.08 409.996 340.206 398.823C347.946 390.268 355.394 381.83 362.611 373.508C362.32 366.525 360.69 353.78 351.903 340.395C346.898 332.83 341.137 327.36 336.481 323.635C338.111 310.949 339.682 298.32 341.195 285.634Z" fill="white" stroke="#161616" stroke-width="1.16389"/>
<path opacity="0.16" d="M340.787 299.775C348.178 307.515 358.246 319.91 366.102 337.194C369.827 345.4 375.879 358.726 375.995 371.296C376.403 409.53 322.282 435.834 319.139 437.347C316.055 435.369 313.029 433.448 309.944 431.47C327.461 412.265 344.919 393.061 362.436 373.857C362.087 367.572 360.632 355.875 353.648 343.421C347.887 333.179 340.729 326.545 336.016 322.878C337.645 315.197 339.216 307.515 340.787 299.775Z" fill="#6D6C6C"/>
<path opacity="0.12" d="M363.018 374.032C362.145 379.095 360.69 384.623 358.421 390.326C348.178 416.165 327.461 430.306 316.986 436.358C314.484 434.729 312.039 433.099 309.537 431.47C327.345 412.324 345.152 393.178 363.018 374.032Z" fill="#6D6C6C"/>
<rect x="211.479" y="378.338" width="143.101" height="90.609" fill="white" stroke="#161616" stroke-width="1.16389"/>
<path d="M280.963 432.284C273.398 433.215 269.732 424.02 271.71 417.91C273.631 411.858 280.789 409.006 286.608 411.101C292.369 413.196 295.163 420.238 293.126 425.883C290.856 432.168 282.942 434.728 277.122 431.935C276.133 431.469 275.202 432.982 276.249 433.448C281.429 435.95 287.772 435.019 291.904 430.946C295.919 426.93 296.501 420.587 293.999 415.64C288.296 404.351 270.663 407.959 269.441 420.354C268.801 426.988 273.572 434.961 280.963 434.088C282.069 433.914 282.069 432.168 280.963 432.284Z" fill="#161616"/>
<path opacity="0.14" d="M265.193 378.105C284.572 384.856 297.782 402.14 298.189 420.704C298.713 443.982 279.159 465.863 252.506 468.074C286.434 468.365 320.361 468.656 354.347 468.947C354.231 438.57 354.172 408.192 354.056 377.873C324.435 377.873 294.814 377.989 265.193 378.105Z" fill="#6D6C6C"/>
<path opacity="0.26" d="M354.347 377.814C353.823 396.32 350.157 410.752 347.073 420.238C342.533 434.03 339.274 444.098 329.905 453.001C317.161 465.222 301.273 467.492 294.29 468.074C314.134 468.248 333.979 468.423 353.823 468.656C353.881 451.372 353.998 434.088 354.114 416.746C354.114 403.769 354.23 390.791 354.347 377.814Z" fill="#6D6C6C"/>
<path d="M278.811 240.009C275.61 243.908 278.694 248.68 278.112 261.425C277.821 267.768 276.774 272.889 275.959 276.323C278.694 277.603 283.524 279.407 289.751 279.582C297.433 279.756 303.252 277.37 306.104 275.974C304.824 273.413 303.136 269.456 302.088 264.335C299.47 251.299 304.125 245.189 300.284 240.358C295.803 234.772 283.117 234.714 278.811 240.009Z" fill="white" stroke="#161616" stroke-width="1.16389"/>
<path d="M258.5 184.026C254.834 193.454 256.231 201.95 257.046 205.617C256.696 205.675 249.888 207.13 248.025 212.367C246.163 217.663 250.004 225.17 258.035 227.614C260.945 234.714 267.986 248.448 282.826 255.955C285.328 257.177 287.714 258.166 290.1 258.865C292.253 258.05 295.163 256.77 298.48 254.849C308.839 248.855 314.6 241.406 315.938 239.602C318.383 236.343 321.7 231.106 324.028 223.89C325.308 224.122 327.577 224.239 329.789 223.133C334.794 220.573 337.296 212.6 333.804 207.421C330.894 203.114 325.25 202.94 324.551 202.94C325.308 199.913 327.636 189.031 321.758 178.265C315.007 165.87 300.517 159.352 286.899 161.214C266.764 163.833 258.85 183.095 258.5 184.026Z" fill="white" stroke="#161616" stroke-width="1.16389"/>
<path d="M278.054 255.431C281.604 257.526 285.503 260.785 289.867 260.435C293.476 260.144 297.491 258.049 300.226 255.838C301.099 255.14 299.877 253.918 299.004 254.616C296.443 256.653 292.312 258.806 288.936 258.748C285.387 258.69 281.778 255.722 278.869 253.918C277.996 253.336 277.123 254.849 278.054 255.431Z" fill="#161616"/>
<path d="M277.821 256.187C281.139 259.039 284.921 262.24 289.577 262.007C294.116 261.774 298.364 258.748 301.332 255.489C302.089 254.674 300.866 253.452 300.11 254.267C297.549 257.06 293.941 259.795 289.984 260.203C285.619 260.61 282.128 257.642 279.044 254.965C278.229 254.209 277.007 255.431 277.821 256.187Z" fill="#161616"/>
<path d="M280.033 256.537C280.033 256.478 280.033 256.478 280.033 256.537C279.683 256.013 279.043 255.896 278.636 256.304C278.636 256.304 278.636 256.304 278.578 256.362C278.229 256.653 278.229 257.293 278.578 257.584C284.979 263.695 296.735 265.673 301.332 256.304C301.797 255.315 300.343 254.383 299.819 255.431C295.745 263.811 285.445 261.774 279.858 256.362C279.858 256.769 279.858 257.177 279.858 257.584C279.858 257.584 279.858 257.584 279.916 257.526C279.451 257.468 278.985 257.41 278.52 257.351V257.41C279.102 258.341 280.615 257.468 280.033 256.537Z" fill="#161616"/>
<path d="M287.016 202.707C286.259 212.134 286.667 221.503 288.18 230.815C288.238 231.28 288.82 231.571 289.227 231.396C291.497 230.64 293.126 229.301 294.348 227.265C294.93 226.275 293.417 225.402 292.835 226.392C291.846 228.079 290.624 229.069 288.762 229.709C289.111 229.883 289.46 230.116 289.809 230.291C288.296 221.154 287.947 211.901 288.703 202.648C288.878 201.543 287.132 201.543 287.016 202.707Z" fill="#161616"/>
<path d="M276.658 211.959C276.774 212.483 277.647 215.742 276.658 216.266C275.668 216.79 272.875 214.695 272.002 211.959C271.304 209.632 271.886 206.722 272.991 206.489C274.155 206.198 275.959 209.399 276.658 211.959Z" fill="#161616" stroke="#161616" stroke-width="0.581946"/>
<path d="M306.686 211.959C306.802 212.483 307.675 215.742 306.686 216.266C305.697 216.79 302.903 214.695 302.03 211.959C301.332 209.632 301.914 206.722 303.02 206.489C304.184 206.198 305.988 209.399 306.686 211.959Z" fill="#161616" stroke="#161616" stroke-width="0.581946"/>
<path d="M284.921 238.496C292.021 241.523 298.481 237.274 303.718 232.677C304.591 231.92 303.311 230.698 302.496 231.455C297.957 235.412 292.137 239.66 285.852 236.983C284.747 236.576 283.874 238.089 284.921 238.496Z" fill="#161616"/>
<path d="M305.405 221.212C306.511 221.212 306.511 219.467 305.405 219.467C304.3 219.467 304.3 221.212 305.405 221.212Z" fill="#161616"/>
<path d="M311.865 217.954C311.923 217.895 311.981 217.837 312.039 217.779C312.389 217.43 312.389 216.906 312.039 216.557C311.69 216.208 311.166 216.208 310.817 216.557C310.759 216.615 310.701 216.673 310.643 216.732C310.294 217.081 310.294 217.604 310.643 217.954C310.992 218.303 311.516 218.303 311.865 217.954Z" fill="#161616"/>
<path d="M309.945 222.202C310.003 222.202 310.061 222.202 310.119 222.202C310.585 222.202 310.992 221.794 310.992 221.329C310.992 220.863 310.585 220.456 310.119 220.456C310.061 220.456 310.003 220.456 309.945 220.456C309.479 220.456 309.072 220.863 309.072 221.329C309.072 221.794 309.421 222.202 309.945 222.202Z" fill="#161616"/>
<path d="M269.79 201.543C272.002 199.681 275.261 199.623 277.472 201.427C278.345 202.125 279.567 200.903 278.694 200.204C275.668 197.76 271.478 197.76 268.51 200.321C267.695 201.019 268.976 202.241 269.79 201.543Z" fill="#161616"/>
<path d="M298.189 200.903C300.692 198.691 304.242 198.284 307.21 199.855C308.199 200.379 309.072 198.866 308.082 198.342C304.416 196.363 300.052 196.887 296.967 199.681C296.094 200.437 297.316 201.659 298.189 200.903Z" fill="#161616"/>
<path d="M270.256 221.038C271.362 221.038 271.362 219.292 270.256 219.292C269.15 219.292 269.15 221.038 270.256 221.038Z" fill="#161616"/>
<path d="M276.424 220.223C277.53 220.223 277.53 218.477 276.424 218.477C275.319 218.477 275.319 220.223 276.424 220.223Z" fill="#161616"/>
<path d="M273.34 221.562C273.282 221.62 273.224 221.678 273.166 221.737C272.817 222.086 272.817 222.609 273.166 222.959C273.515 223.308 274.039 223.308 274.388 222.959C274.446 222.9 274.504 222.842 274.562 222.784C274.912 222.435 274.912 221.911 274.562 221.562C274.213 221.213 273.689 221.213 273.34 221.562Z" fill="#161616"/>
<path d="M267.986 165.113C264.495 167.266 256.871 171.98 251.692 181.64C246.513 191.242 246.571 200.321 246.803 204.22C238.307 219.525 234.466 233.026 232.604 242.221C229.578 256.828 231.207 262.182 233.302 265.731C238.423 274.461 248.724 276.614 251.226 277.138C264.087 279.873 274.33 273.297 276.657 271.784C277.297 269.863 277.938 267.477 278.287 264.8C278.927 260.203 278.578 256.246 278.054 253.394C275.144 251.008 271.769 247.808 268.51 243.618C263.564 237.216 260.77 230.931 259.199 226.392C254.078 225.868 250.237 222.377 249.888 218.477C249.539 214.811 252.099 210.097 255.474 210.097C257.977 210.097 259.781 212.658 260.13 213.124C262.05 212.018 264.727 210.097 267.113 207.071C270.547 202.707 271.129 198.808 272.7 194.734C274.213 190.777 277.123 185.307 283.408 179.603C289.46 181.757 294.29 183.852 297.607 185.423C308.257 190.369 314.309 193.279 319.023 199.622C321.642 203.114 322.98 206.548 323.679 208.701C329.091 204.569 331.302 205.675 331.768 205.907C335.201 207.828 335.085 218.361 329.731 221.271C327.694 222.377 325.366 222.086 323.911 221.736C322.224 227.614 318.499 237.216 309.945 245.713C307.093 248.564 304.183 250.775 301.565 252.463C301.332 254.616 301.215 257.584 301.797 261.076C302.321 264.277 303.252 266.895 304.125 268.758C318.266 278.069 335.841 276.381 345.385 266.372C353.882 257.41 353.882 243.85 350.681 234.597C347.771 226.159 342.126 221.096 339.333 218.885C340.089 215.626 344.279 196.305 332.117 178.556C328.974 173.959 320.187 162.843 304.358 159.003C287.598 154.929 273.806 161.563 267.986 165.113Z" fill="#3AAFA9"/>
<path opacity="0.17" d="M304.882 189.031C311.458 197.295 313.204 204.918 313.786 208.875C316.172 225.519 306.511 239.02 301.623 245.945C297.608 251.59 293.476 255.606 290.508 258.224C293.068 265.091 295.571 271.9 298.131 278.767C300.75 277.894 303.369 277.021 305.988 276.148C304.765 273.995 303.485 271.318 302.496 268.059C300.692 262.24 300.575 257.119 300.75 253.627C303.951 251.357 307.675 248.273 311.283 244.199C318.499 236.052 322.107 227.672 323.97 222.027C325.134 222.26 327.636 222.551 330.022 221.213C335.027 218.361 334.212 211.261 334.154 210.796C333.979 209.283 333.63 206.838 331.884 205.849C329.847 204.743 326.472 205.791 323.795 208.933C322.98 206.082 320.653 199.506 314.368 194.268C310.876 191.359 307.326 189.846 304.882 189.031Z" fill="#6D6C6C"/>
<path opacity="0.19" d="M287.831 203.23C287.481 203.172 286.317 208.235 282.768 230.582C284.804 230.582 286.841 230.582 288.878 230.582C288.471 227.614 288.005 223.307 287.772 218.07C287.481 209.108 288.18 203.289 287.831 203.23Z" fill="#6D6C6C"/>
<path opacity="0.54" d="M338.984 219.467C337.994 220.049 341.719 225.053 341.195 232.502C341.02 234.83 340.671 240.126 336.481 243.676C336.19 243.909 329.963 249.03 323.795 245.771C320.129 243.85 317.917 239.777 318.034 235.354C316.288 238.613 313.436 242.919 308.955 247.109C306.162 249.728 303.427 251.648 301.041 253.103C300.866 255.664 300.866 259.156 301.797 263.113C302.321 265.266 302.961 267.128 303.601 268.641C305.405 269.805 308.082 271.376 311.574 272.598C313.785 273.355 325.948 277.603 337.82 271.726C339.915 270.678 344.57 268.292 347.946 263.171C348.353 262.531 349.866 260.261 350.972 256.42C354.929 243.268 349.109 231.397 348.586 230.407C345.385 223.948 340.206 218.768 338.984 219.467Z" fill="#3AAFA9"/>
<path opacity="0.35" d="M259.141 226.625C258.617 226.683 259.781 231.455 258.501 236.168C257.569 239.66 254.601 245.363 249.539 246.527C244.243 247.691 237.667 243.792 234.641 236.518C233.244 239.718 231.382 244.839 231.091 251.357C230.916 255.605 230.684 260.145 232.779 264.626C237.492 274.635 251.343 278.534 261.643 277.603C268.51 276.963 273.689 274.286 276.483 272.482C277.181 270.503 277.879 268.117 278.345 265.382C279.101 260.668 278.927 256.537 278.519 253.51C273.922 250.193 270.78 246.76 268.801 244.258C266.008 240.708 262.225 235.936 260.305 229.301C260.014 228.545 259.49 226.566 259.141 226.625Z" fill="#3AAFA9"/>
</svg>
