<svg width="51" height="50" viewBox="0 0 51 50" fill="none" xmlns="http://www.w3.org/2000/svg">
<circle cx="25.3994" cy="25" r="25" fill="#DEF2F1"/>
<path d="M24.8343 19.2581C23.1697 19.2581 21.5731 19.9183 20.396 21.0936C19.2189 22.2689 18.5576 23.8629 18.5576 25.525C18.5576 27.1871 19.2189 28.7812 20.396 29.9564C21.5731 31.1317 23.1697 31.792 24.8343 31.792C26.499 31.792 28.0955 31.1317 29.2727 29.9564C30.4498 28.7812 31.1111 27.1871 31.1111 25.525C31.1111 23.8629 30.4498 22.2689 29.2727 21.0936C28.0955 19.9183 26.499 19.2581 24.8343 19.2581ZM24.8343 29.595C23.7529 29.595 22.7157 29.1661 21.951 28.4026C21.1863 27.639 20.7566 26.6035 20.7566 25.5237C20.7566 24.4439 21.1863 23.4083 21.951 22.6448C22.7157 21.8813 23.7529 21.4523 24.8343 21.4523C25.9158 21.4523 26.953 21.8813 27.7177 22.6448C28.4824 23.4083 28.912 24.4439 28.912 25.5237C28.912 26.6035 28.4824 27.639 27.7177 28.4026C26.953 29.1661 25.9158 29.595 24.8343 29.595Z" fill="#3AAFA9"/>
<path d="M31.3593 20.4895C32.1675 20.4895 32.8226 19.8353 32.8226 19.0284C32.8226 18.2215 32.1675 17.5674 31.3593 17.5674C30.5511 17.5674 29.896 18.2215 29.896 19.0284C29.896 19.8353 30.5511 20.4895 31.3593 20.4895Z" fill="#3AAFA9"/>
<path d="M36.4185 17.5431C36.1043 16.7329 35.6241 15.9971 35.0086 15.3828C34.3932 14.7686 33.6561 14.2894 32.8444 13.9759C31.8947 13.62 30.8914 13.4275 29.8771 13.4067C28.5699 13.3498 28.1559 13.3335 24.8411 13.3335C21.5263 13.3335 21.1014 13.3335 19.8051 13.4067C18.7916 13.4264 17.789 13.6189 16.8404 13.9759C16.0286 14.289 15.2913 14.7681 14.6758 15.3824C14.0603 15.9967 13.5802 16.7327 13.2664 17.5431C12.9098 18.4913 12.7174 19.4932 12.6976 20.5058C12.6392 21.8096 12.6216 22.223 12.6216 25.534C12.6216 28.8437 12.6216 29.2652 12.6976 30.5623C12.718 31.576 12.9094 32.5762 13.2664 33.5263C13.5811 34.3365 14.0617 35.0722 14.6773 35.6864C15.293 36.3006 16.0302 36.7799 16.8418 37.0935C17.7885 37.4638 18.7916 37.67 19.8078 37.7034C21.115 37.7603 21.529 37.7779 24.8438 37.7779C28.1586 37.7779 28.5835 37.7779 29.8798 37.7034C30.894 37.6828 31.8973 37.4908 32.8472 37.1355C33.6586 36.8213 34.3955 36.3417 35.0109 35.7273C35.6262 35.1129 36.1066 34.3771 36.4212 33.567C36.7783 32.6183 36.9696 31.618 36.99 30.6043C37.0484 29.3005 37.066 28.8871 37.066 25.576C37.066 22.265 37.066 21.8449 36.99 20.5478C36.9742 19.5209 36.7809 18.5044 36.4185 17.5431ZM34.7652 30.462C34.7564 31.243 34.6137 32.0168 34.343 32.7497C34.1392 33.2768 33.8271 33.7554 33.4269 34.1548C33.0266 34.5541 32.5471 34.8654 32.0191 35.0687C31.2932 35.3376 30.5265 35.4802 29.7522 35.4902C28.4627 35.5498 28.0989 35.5647 24.7922 35.5647C21.4828 35.5647 21.1448 35.5647 19.8308 35.4902C19.057 35.4807 18.2906 35.3381 17.5653 35.0687C17.0355 34.8667 16.554 34.5559 16.1521 34.1565C15.7501 33.757 15.4367 33.2778 15.2319 32.7497C14.9651 32.0247 14.8224 31.26 14.8097 30.4877C14.7514 29.2002 14.7378 28.8369 14.7378 25.5354C14.7378 22.2325 14.7378 21.895 14.8097 20.5817C14.8185 19.8011 14.9613 19.0277 15.2319 18.2953C15.6459 17.226 16.4943 16.3843 17.5653 15.975C18.291 15.7068 19.0572 15.5643 19.8308 15.5535C21.1218 15.4952 21.4842 15.479 24.7922 15.479C28.1003 15.479 28.4396 15.479 29.7522 15.5535C30.5265 15.5628 31.2934 15.7054 32.0191 15.975C32.5471 16.1787 33.0265 16.4903 33.4267 16.8899C33.8269 17.2895 34.1391 17.7682 34.343 18.2953C34.6098 19.0203 34.7526 19.785 34.7652 20.5573C34.8236 21.8462 34.8385 22.2081 34.8385 25.511C34.8385 28.8125 34.8385 29.1676 34.7801 30.4633H34.7652V30.462Z" fill="#3AAFA9"/>
</svg>
