<svg width="51" height="50" viewBox="0 0 51 50" fill="none" xmlns="http://www.w3.org/2000/svg">
<circle cx="25.3994" cy="25" r="25" fill="#DEF2F1"/>
<path d="M15.3373 18.8858C16.9599 18.8858 18.2752 17.5682 18.2752 15.9429C18.2752 14.3176 16.9599 13 15.3373 13C13.7148 13 12.3994 14.3176 12.3994 15.9429C12.3994 17.5682 13.7148 18.8858 15.3373 18.8858Z" fill="#3AAFA9"/>
<path d="M21.0494 21.1164V37.4436H26.1102V29.3694C26.1102 27.2389 26.5103 25.1757 29.1474 25.1757C31.7483 25.1757 31.7806 27.6115 31.7806 29.5039V37.445H36.844V28.4911C36.844 24.0929 35.8987 20.7129 30.7668 20.7129C28.3029 20.7129 26.6513 22.0673 25.9759 23.3491H25.9074V21.1164H21.0494ZM12.8022 21.1164H17.8711V37.4436H12.8022V21.1164Z" fill="#3AAFA9"/>
</svg>
