<svg width="26" height="27" viewBox="0 0 26 27" fill="none" xmlns="http://www.w3.org/2000/svg">
<g clip-path="url(#clip0_12_714)">
<path d="M18.9387 17.5893C22.1086 15.8488 24.5116 14.5225 24.7188 14.4194C25.3813 14.0671 26.0656 13.1344 24.7188 12.41C24.2839 12.1822 21.9426 10.8972 18.9387 9.24011L14.7744 13.4457L18.9387 17.5892V17.5893Z" fill="#FFD900"/>
<path d="M14.7746 13.4457L1.51514 26.8093C1.82637 26.8505 2.17773 26.7679 2.59199 26.5402C3.46172 26.0641 12.6816 21.0291 18.9389 17.5903L14.7746 13.4457Z" fill="#F43249"/>
<path d="M14.7747 13.4457L18.939 9.26083C18.939 9.26083 3.52471 0.84862 2.59209 0.352038C2.24072 0.143933 1.84697 0.0821161 1.49463 0.143933L14.7747 13.4457V13.4457Z" fill="#00EE76"/>
<path d="M14.7745 13.4457L1.49443 0.143921C0.955469 0.26853 0.5 0.744702 0.5 1.71853V25.2346C0.5 26.126 0.852441 26.7679 1.51504 26.8299L14.7745 13.4457Z" fill="#00D3FF"/>
</g>
<defs>
<clipPath id="clip0_12_714">
<rect width="25" height="26.7578" fill="white" transform="translate(0.5 0.121094)"/>
</clipPath>
</defs>
</svg>
