<svg width="114" height="78" viewBox="0 0 114 78" fill="none" xmlns="http://www.w3.org/2000/svg">
<path d="M21.5647 38.4771L16.1521 46.6952C12.4576 43.8741 9.46349 40.2389 7.40268 36.0722C5.34188 31.9055 4.26987 27.3196 4.27002 22.6711H14.0779C14.0777 25.6957 14.7493 28.6825 16.044 31.416C17.3388 34.1494 19.2244 36.5612 21.5647 38.4771Z" fill="#FEFFFF"/>
<path d="M42.872 14.6855C42.8412 14.6451 42.8068 14.6075 42.7692 14.5733C42.6814 14.4892 42.5826 14.4175 42.4755 14.3601C42.3459 14.2912 42.2065 14.2426 42.0622 14.2161H42.0192C41.9419 14.2035 41.8636 14.1985 41.7854 14.2011C41.565 14.2075 41.3495 14.2668 41.1568 14.3738C40.9641 14.4809 40.8 14.6327 40.6782 14.8164L39.6981 16.2978L23.9165 40.1516L18.5038 48.3342L14.1853 54.8634L10.7813 60.0105L10.0239 61.1533L8.63796 63.2517L7.88983 64.3945L0.15051 76.0951C0.0528032 76.2427 0.000480176 76.4156 3.2891e-06 76.5925C-0.000473598 76.7695 0.0509171 76.9427 0.147828 77.0908C0.244738 77.2388 0.382915 77.3552 0.545273 77.4256C0.707632 77.4959 0.88705 77.5172 1.06135 77.4866C1.18508 77.465 1.30298 77.4179 1.4076 77.3483C1.51222 77.2788 1.60129 77.1884 1.6692 77.0827L9.52448 64.7761C9.5999 64.6605 9.70311 64.5657 9.82467 64.5003C9.94622 64.435 10.0822 64.4012 10.2202 64.402C10.3653 64.4018 10.5079 64.4399 10.6336 64.5125C10.7592 64.5852 10.8634 64.6898 10.9355 64.8157C11.0077 64.9416 11.0453 65.0844 11.0445 65.2295C11.0437 65.3746 11.0045 65.5169 10.931 65.642L9.76388 67.6432L8.52761 69.7268L7.85991 70.8714L5.55569 74.8233C5.44877 75.008 5.39669 75.2192 5.40557 75.4324C5.41444 75.6456 5.4839 75.8518 5.60581 76.0269C5.72771 76.202 5.897 76.3387 6.09383 76.421C6.29067 76.5034 6.50689 76.5278 6.71716 76.4916C6.88159 76.4625 7.03744 76.397 7.17333 76.2999C7.30923 76.2028 7.42175 76.0766 7.50268 75.9305L10.0276 71.4138C10.1206 71.2476 10.2564 71.1094 10.4208 71.0134C10.5852 70.9173 10.7723 70.867 10.9627 70.8676C11.1459 70.8677 11.326 70.9149 11.4856 71.0047C11.6453 71.0945 11.7791 71.2239 11.8744 71.3803C11.9696 71.5368 12.023 71.7151 12.0294 71.8982C12.0358 72.0812 11.995 72.2628 11.911 72.4256L11.1367 73.9218C11.0422 74.1042 11.0006 74.3094 11.0166 74.5141C11.0325 74.7189 11.1054 74.9151 11.227 75.0806C11.3486 75.2461 11.514 75.3744 11.7046 75.4509C11.8952 75.5274 12.1034 75.549 12.3056 75.5135C12.4763 75.483 12.6374 75.4131 12.7761 75.3091C12.9147 75.2052 13.0271 75.0702 13.1042 74.915L15.0924 70.8695L15.6535 69.7249L16.684 67.6283L17.2806 66.4144C17.3549 66.2641 17.4698 66.1374 17.6122 66.0488C17.7546 65.9603 17.919 65.9133 18.0867 65.9132H18.2083C18.3584 65.9133 18.506 65.951 18.6378 66.0229C18.7695 66.0947 18.8811 66.1985 18.9624 66.3246C19.0437 66.4507 19.0921 66.5952 19.1031 66.7449C19.1142 66.8945 19.0875 67.0445 19.0256 67.1812L16.2969 73.1868C16.2195 73.3566 16.19 73.5443 16.2115 73.7296C16.2329 73.915 16.3046 74.091 16.4187 74.2386C16.5329 74.3862 16.6851 74.4999 16.8591 74.5673C17.0331 74.6348 17.2221 74.6534 17.4059 74.6213C17.5737 74.5919 17.7316 74.5213 17.8654 74.4158C17.9992 74.3104 18.1048 74.1735 18.1728 74.0172L21.659 65.9132L22.1509 64.7686L23.0543 62.672L27.5898 52.129L31.5548 42.9084L43.0852 16.1089C43.1594 15.9384 43.1969 15.7542 43.1956 15.5683C43.195 15.2451 43.0804 14.9325 42.872 14.6855ZM16.1641 54.8578C16.2687 54.8578 16.3715 54.8853 16.462 54.9376C16.5526 54.99 16.6278 55.0653 16.6799 55.156C16.7321 55.2467 16.7594 55.3495 16.7592 55.4541C16.7589 55.5587 16.731 55.6614 16.6784 55.7518L14.4808 59.5224C14.3946 59.669 14.2716 59.7907 14.124 59.8753C13.9764 59.9599 13.8093 60.0046 13.6392 60.0049C13.5325 60.0045 13.4279 59.9755 13.3363 59.9209C13.2446 59.8663 13.1693 59.7882 13.1181 59.6946C13.0669 59.601 13.0418 59.4954 13.0453 59.3888C13.0487 59.2822 13.0807 59.1785 13.1379 59.0884L15.6628 55.1328C15.7164 55.0484 15.7905 54.979 15.8781 54.9309C15.9658 54.8828 16.0641 54.8577 16.1641 54.8578ZM11.2321 62.0753L11.6061 61.4937C11.6737 61.3877 11.7668 61.3004 11.877 61.24C11.9871 61.1795 12.1108 61.1477 12.2364 61.1476C12.3675 61.1481 12.4962 61.183 12.6096 61.2489C12.7229 61.3147 12.817 61.4092 12.8823 61.5228C12.9477 61.6365 12.982 61.7654 12.9819 61.8965C12.9818 62.0275 12.9472 62.1563 12.8817 62.2698L12.5338 62.8684C12.4661 62.9826 12.3698 63.0772 12.2543 63.1428C12.1388 63.2084 12.0083 63.2427 11.8755 63.2424C11.7394 63.2423 11.6058 63.2057 11.4887 63.1365C11.3716 63.0672 11.2751 62.9678 11.2094 62.8487C11.1437 62.7295 11.1112 62.5949 11.1152 62.4589C11.1192 62.3229 11.1595 62.1904 11.2321 62.0753ZM12.7171 69.7268C12.542 69.7277 12.3698 69.6817 12.2184 69.5937C12.067 69.5057 11.9419 69.3789 11.8561 69.2263C11.7702 69.0736 11.7267 68.9008 11.7301 68.7257C11.7336 68.5506 11.7837 68.3797 11.8755 68.2305L12.7171 66.839C12.8006 66.7005 12.9185 66.5859 13.0595 66.5066C13.2005 66.4273 13.3596 66.3858 13.5213 66.3864C13.6841 66.3851 13.8444 66.4264 13.9863 66.506C14.1282 66.5857 14.2469 66.7011 14.3306 66.8407C14.4143 66.9803 14.46 67.1393 14.4634 67.3021C14.4668 67.4648 14.4277 67.6256 14.3499 67.7685L13.5849 69.2012C13.5018 69.3595 13.3771 69.4921 13.2241 69.5847C13.0712 69.6774 12.8959 69.7265 12.7171 69.7268ZM19.5418 64.7704H19.5306C19.378 64.7706 19.2279 64.7317 19.0944 64.6577C18.961 64.5837 18.8486 64.4768 18.7679 64.3473C18.6872 64.2178 18.6409 64.0698 18.6333 63.9174C18.6257 63.765 18.6571 63.6131 18.7245 63.4762L18.8723 63.1751C18.9465 63.0247 19.0614 62.898 19.2038 62.8095C19.3463 62.7209 19.5106 62.6739 19.6784 62.6738C19.8284 62.6739 19.9761 62.7116 20.1078 62.7835C20.2396 62.8553 20.3512 62.9591 20.4325 63.0852C20.5138 63.2113 20.5621 63.3558 20.5732 63.5055C20.5842 63.6551 20.5576 63.8052 20.4957 63.9419L20.3592 64.243C20.288 64.4002 20.1731 64.5335 20.0281 64.627C19.8832 64.7206 19.7143 64.7703 19.5418 64.7704Z" fill="#FEFFFF"/>
<path d="M49.6962 0.908432C49.8782 3.03469 49.604 5.17529 48.892 7.18704C48.7116 7.70592 48.6473 8.25806 48.7035 8.80451C48.7598 9.35097 48.9352 9.87847 49.2174 10.3498C50.2054 12.0261 50.5385 14.0086 50.1526 15.9158C50.1348 15.9994 50.0928 16.076 50.0318 16.136C49.9709 16.1959 49.8936 16.2366 49.8096 16.253C49.7257 16.2693 49.6388 16.2606 49.5597 16.2279C49.4807 16.1952 49.4131 16.14 49.3652 16.0691C48.3695 14.6582 47.1368 13.4306 45.7218 12.4407C45.1622 12.0481 44.5774 11.6926 43.9712 11.3765C43.3022 11.0299 42.6082 10.7336 41.8952 10.49C40.3302 9.95307 38.6869 9.67939 37.0324 9.68017C36.9466 9.68115 36.8624 9.6571 36.7901 9.61099C36.7177 9.56488 36.6604 9.49871 36.6251 9.42054C36.5898 9.34236 36.578 9.25557 36.5912 9.17081C36.6044 9.08605 36.642 9.007 36.6995 8.94328C37.9902 7.57378 39.7284 6.71133 41.5997 6.51188C42.1306 6.46054 42.6443 6.29545 43.1058 6.02791C43.5673 5.76037 43.9658 5.39664 44.2742 4.96139C45.5185 3.16641 47.1406 1.66558 49.0267 0.564302C49.0912 0.525039 49.1647 0.502995 49.2402 0.500284C49.3157 0.497573 49.3907 0.51429 49.4578 0.548823C49.525 0.583355 49.5822 0.634555 49.624 0.69752C49.6657 0.760486 49.6906 0.833099 49.6962 0.908432Z" fill="#FEFFFF"/>
<path d="M40.0157 51.6161C41.5826 51.6095 43.1343 51.9233 44.5755 52.5381C45.9728 53.1156 47.2424 53.9631 48.3114 55.0322C49.3805 56.1013 50.2281 57.3708 50.8055 58.7681C51.7869 61.0872 51.9952 63.6607 51.3996 66.1074C50.804 68.5541 49.4361 70.7439 47.4986 72.3523C45.5611 73.9608 43.1571 74.9025 40.6426 75.0378C38.128 75.1731 35.6368 74.4949 33.5379 73.1036C31.439 71.7123 29.844 69.682 28.9892 67.3134C28.1345 64.9447 28.0654 62.3637 28.7923 59.9528C29.5191 57.5418 31.0032 55.4291 33.0247 53.9275C35.0462 52.426 37.4976 51.6154 40.0157 51.6161ZM36.3911 66.9526C37.2324 67.8006 38.3419 68.3304 39.5303 68.4515C40.7187 68.5726 41.9123 68.2774 42.9073 67.6164C43.9024 66.9555 44.6371 65.9696 44.9862 64.8272C45.3353 63.6848 45.2771 62.4566 44.8215 61.3524C44.3659 60.2481 43.5412 59.3362 42.4881 58.7723C41.435 58.2084 40.2188 58.0275 39.0472 58.2605C37.8756 58.4934 36.8211 59.1258 36.0638 60.0496C35.3065 60.9734 34.8934 62.1315 34.8948 63.3261C34.883 64.0014 35.01 64.6719 35.268 65.296C35.5261 65.9202 35.9096 66.4846 36.3948 66.9544L36.3911 66.9526Z" fill="#FEFFFF"/>
<path d="M71.3304 52.3848C73.2643 53.3673 74.6047 54.7482 75.3515 56.5275C76.0984 58.3068 76.4725 60.5736 76.4737 63.3279V74.0298C76.4681 74.2205 76.3898 74.4018 76.2549 74.5367C76.12 74.6716 75.9387 74.7498 75.748 74.7555H70.6215C70.5247 74.7578 70.4285 74.7393 70.3395 74.7012C70.2504 74.6631 70.1706 74.6064 70.1053 74.5348C70.0386 74.4687 69.9858 74.3901 69.9498 74.3034C69.9138 74.2167 69.8955 74.1237 69.8959 74.0298V63.3279C69.8959 62.1422 69.6833 61.1496 69.2581 60.3504C68.9091 59.6354 68.3693 59.0309 67.6982 58.6036C67.1855 58.3393 66.6161 58.2038 66.0393 58.2089C65.2228 58.2216 64.4137 58.3662 63.6434 58.6372C62.5934 58.9837 61.5813 59.4362 60.6229 59.9876C60.496 60.0355 60.3885 60.124 60.3172 60.2394C60.2458 60.3547 60.2145 60.4904 60.2282 60.6253V74.0298C60.2281 74.2193 60.1528 74.4009 60.0188 74.5348C59.9533 74.6061 59.8734 74.6626 59.7844 74.7007C59.6954 74.7387 59.5993 74.7574 59.5026 74.7555H54.5631C54.4683 74.7555 54.3744 74.7359 54.2875 74.6979C54.2006 74.6599 54.1225 74.6044 54.0581 74.5348C53.9889 74.4701 53.9336 74.3919 53.8956 74.3051C53.8577 74.2182 53.8379 74.1246 53.8374 74.0298V52.6522C53.8369 52.56 53.8551 52.4686 53.8912 52.3837C53.9272 52.2988 53.9802 52.2222 54.0469 52.1585C54.1139 52.0899 54.1943 52.0359 54.2831 51.9998C54.3719 51.9638 54.4673 51.9465 54.5631 51.949H59.5082C59.604 51.9468 59.6992 51.9642 59.788 52.0003C59.8768 52.0363 59.9572 52.0902 60.0244 52.1585C60.0911 52.2222 60.1441 52.2988 60.1801 52.3837C60.2161 52.4686 60.2344 52.56 60.2339 52.6522C60.231 52.7699 60.2601 52.8861 60.3181 52.9885C60.376 53.091 60.4607 53.1758 60.563 53.2339C60.6657 53.3025 60.7843 53.3436 60.9073 53.3534C61.0304 53.3632 61.154 53.3414 61.2663 53.29C63.346 52.3386 65.1771 51.7775 66.7593 51.6067C68.3258 51.4351 69.909 51.7046 71.3304 52.3848Z" fill="#FEFFFF"/>
<path d="M109.364 75.135C111.482 75.135 113.199 73.4185 113.199 71.3009C113.199 69.1834 111.482 67.4668 109.364 67.4668C107.247 67.4668 105.53 69.1834 105.53 71.3009C105.53 73.4185 107.247 75.135 109.364 75.135Z" fill="#FEFFFF"/>
<path d="M99.1827 70.2818C99.1347 70.2405 99.0757 70.214 99.013 70.2057C98.9502 70.1974 98.8863 70.2076 98.8292 70.2351C96.8235 71.1495 94.5598 71.3285 92.4353 70.7406C90.3108 70.1527 88.4612 68.8355 87.2109 67.02C87.1809 66.9819 87.1535 66.9419 87.1286 66.9003C87.0644 66.7868 87.0286 66.6595 87.0243 66.5292C87.0201 66.3989 87.0475 66.2695 87.1043 66.1522C87.1629 65.9936 87.2708 65.8581 87.4123 65.7655C87.5537 65.6729 87.7211 65.6281 87.8898 65.6378H101.53C101.728 65.6392 101.92 65.5732 102.076 65.4508C102.231 65.3359 102.339 65.1693 102.381 64.9814C102.707 62.5739 102.26 60.125 101.104 57.9883C99.9731 55.8081 98.161 54.0571 95.9434 53.0021C95.4153 52.746 94.8689 52.5296 94.3087 52.3549C92.4008 51.7579 90.371 51.6642 88.4162 52.083C86.4614 52.5018 84.6481 53.4189 83.1523 54.7452C82.0125 55.7516 81.0854 56.9757 80.4254 58.3455C79.4221 60.3447 79.0416 62.599 79.3332 64.8168C79.6114 67.125 80.5513 69.3035 82.0395 71.0898C82.0562 71.0915 82.0716 71.0995 82.0825 71.1122C82.0882 71.1187 82.095 71.1241 82.1027 71.1279C82.1104 71.1318 82.1188 71.1341 82.1274 71.1347C83.27 72.3875 84.6595 73.3905 86.2084 74.0804C87.6656 74.7265 89.2416 75.0609 90.8355 75.0623C92.4029 75.0608 93.9539 74.7427 95.3954 74.1272C96.8426 73.5266 98.1504 72.634 99.237 71.505C99.3227 71.4124 99.3861 71.3014 99.4221 71.1804C99.4581 71.0594 99.4658 70.9318 99.4446 70.8074C99.4386 70.7066 99.4124 70.6082 99.3674 70.5178C99.3224 70.4275 99.2596 70.3472 99.1827 70.2818ZM94.3199 60.3972C94.2643 60.5642 94.1552 60.7082 94.0095 60.807C93.8637 60.9057 93.6895 60.9536 93.5138 60.9434H88.2022C88.0284 60.9553 87.8558 60.9077 87.7126 60.8085C87.5695 60.7092 87.4645 60.5642 87.4148 60.3972C87.345 60.2379 87.3331 60.0592 87.3808 59.8919C87.4286 59.7247 87.5332 59.5793 87.6766 59.4808C88.1229 59.1085 88.633 58.8201 89.1822 58.6298C89.7323 58.4484 90.3069 58.3526 90.886 58.3455C91.648 58.3535 92.3994 58.525 93.0893 58.8486C93.4577 59.031 93.8026 59.2578 94.1161 59.5238C94.2523 59.6181 94.3492 59.7592 94.3881 59.9202C94.4271 60.0813 94.4055 60.2511 94.3274 60.3972H94.3199Z" fill="#FEFFFF"/>
</svg>
