<svg width="167" height="113" viewBox="0 0 167 113" fill="none" xmlns="http://www.w3.org/2000/svg">
<path d="M31.6824 55.7433L23.7367 67.8073C18.3132 63.6659 13.918 58.3295 10.8928 52.2129C7.86759 46.0963 6.29392 39.3643 6.29413 32.5405H20.6919C20.6916 36.9805 21.6775 41.3651 23.5781 45.3777C25.4788 49.3903 28.2468 52.9307 31.6824 55.7433V55.7433ZM63.4321 22.1156C63.4341 22.3885 63.3789 22.6588 63.2701 22.9091L46.3437 62.2502L40.5231 75.7859L33.8651 91.2627L32.539 94.3405L31.8169 96.0207L26.6992 107.917C26.5995 108.147 26.4445 108.348 26.248 108.502C26.0516 108.657 25.8198 108.761 25.5735 108.804V108.804C25.3037 108.851 25.0261 108.824 24.7707 108.725C24.5153 108.626 24.2918 108.459 24.1243 108.242C23.9567 108.026 23.8515 107.767 23.82 107.495C23.7885 107.223 23.8318 106.948 23.9454 106.698L27.9512 97.8822C28.042 97.6815 28.0811 97.4613 28.0649 97.2416C28.0487 97.0219 27.9777 96.8098 27.8584 96.6246C27.739 96.4395 27.5752 96.2872 27.3818 96.1817C27.1884 96.0762 26.9716 96.0208 26.7513 96.0207H26.5729C26.3267 96.0208 26.0854 96.0898 25.8763 96.2199C25.6672 96.3499 25.4986 96.5358 25.3895 96.7566L24.5137 98.5384L23.0009 101.616L22.1772 103.296L19.256 109.224C19.1428 109.452 18.9778 109.65 18.7742 109.803C18.5706 109.955 18.3341 110.058 18.0836 110.103V110.103C17.7867 110.155 17.481 110.123 17.2013 110.011C16.9215 109.899 16.6786 109.71 16.5002 109.467C16.3217 109.224 16.2147 108.936 16.1913 108.636C16.1679 108.335 16.229 108.034 16.3676 107.766L17.5043 105.57C17.6277 105.331 17.6875 105.064 17.6781 104.796C17.6687 104.527 17.5903 104.265 17.4505 104.035C17.3107 103.806 17.1142 103.616 16.8798 103.484C16.6455 103.352 16.3812 103.283 16.1123 103.283V103.283C15.8328 103.282 15.5581 103.356 15.3167 103.497C15.0754 103.638 14.8761 103.841 14.7395 104.084L11.033 110.715C10.9142 110.929 10.749 111.115 10.5495 111.257C10.35 111.4 10.1212 111.496 9.87984 111.539V111.539C9.57118 111.592 9.25377 111.556 8.96482 111.435C8.67587 111.314 8.42735 111.113 8.2484 110.856C8.06945 110.599 7.96749 110.297 7.95446 109.984C7.94143 109.671 8.01789 109.361 8.17485 109.09L11.5574 103.288L12.5375 101.608L14.3332 98.5302L16.0464 95.5924C16.1544 95.4088 16.2118 95.1999 16.213 94.9868C16.2142 94.7738 16.159 94.5643 16.0531 94.3795C15.9472 94.1946 15.7942 94.0411 15.6098 93.9344C15.4254 93.8278 15.2161 93.7718 15.0031 93.7721V93.7721C14.8005 93.7709 14.6008 93.8205 14.4224 93.9164C14.2439 94.0124 14.0924 94.1515 13.9817 94.3212L2.45034 112.387C2.35065 112.542 2.2199 112.675 2.06632 112.777C1.91274 112.879 1.73967 112.948 1.55803 112.98C1.30216 113.025 1.03879 112.994 0.800449 112.89C0.56211 112.787 0.359278 112.616 0.217016 112.399C0.0747536 112.182 -0.000695232 111.927 4.8278e-06 111.668C0.000704888 111.408 0.0775055 111.154 0.220937 110.937L11.5821 93.7611L12.694 92.0836L14.7285 89.0031L15.8267 87.3255L20.8237 79.7697L27.1632 70.185L35.1089 58.1731L58.2759 23.1561L59.7146 20.9817C59.8934 20.712 60.1344 20.4891 60.4172 20.332C60.7001 20.1748 61.0165 20.0878 61.34 20.0784C61.4548 20.0746 61.5698 20.0819 61.6832 20.1003H61.7463C61.9582 20.1393 62.1629 20.2106 62.3531 20.3117C62.5103 20.396 62.6553 20.5014 62.7842 20.6247C62.8394 20.6749 62.89 20.73 62.9352 20.7894C63.2558 21.1568 63.4323 21.628 63.4321 22.1156ZM23.0174 80.1925L19.3109 85.9994C19.2269 86.1316 19.18 86.2838 19.1749 86.4403C19.1698 86.5968 19.2067 86.7518 19.2818 86.8892C19.3569 87.0266 19.4675 87.1413 19.602 87.2214C19.7366 87.3015 19.8901 87.3441 20.0467 87.3448V87.3448C20.2964 87.3443 20.5418 87.2787 20.7584 87.1545C20.9751 87.0303 21.1556 86.8517 21.2822 86.6364L24.5082 81.1013C24.5855 80.9686 24.6264 80.8179 24.6268 80.6643C24.6272 80.5107 24.5871 80.3598 24.5105 80.2267C24.4339 80.0935 24.3236 79.983 24.1906 79.9061C24.0576 79.8293 23.9068 79.7889 23.7532 79.789V79.789C23.6065 79.7887 23.4621 79.8256 23.3334 79.8962C23.2048 79.9668 23.0961 80.0687 23.0174 80.1925V80.1925ZM17.4521 92.1028C17.6471 92.1033 17.8388 92.0529 18.0083 91.9566C18.1777 91.8603 18.3192 91.7214 18.4186 91.5537L18.9292 90.6751C19.0255 90.5084 19.0762 90.3194 19.0764 90.127C19.0765 89.9345 19.0261 89.7454 18.9302 89.5785C18.8343 89.4117 18.6962 89.273 18.5298 89.1764C18.3634 89.0797 18.1745 89.0284 17.982 89.0278C17.7975 89.0279 17.6161 89.0745 17.4544 89.1633C17.2927 89.2521 17.1559 89.3802 17.0568 89.5357L16.5076 90.3895C16.4011 90.5585 16.3419 90.753 16.336 90.9527C16.3302 91.1523 16.378 91.3499 16.4744 91.5248C16.5708 91.6998 16.7124 91.8456 16.8844 91.9473C17.0563 92.0489 17.2524 92.1026 17.4521 92.1028V92.1028ZM19.967 100.853L21.09 98.7498C21.2042 98.54 21.2617 98.3039 21.2567 98.065C21.2517 97.8261 21.1845 97.5927 21.0617 97.3878C20.9388 97.1829 20.7646 97.0135 20.5562 96.8965C20.3479 96.7796 20.1126 96.719 19.8737 96.7208V96.7208C19.6363 96.72 19.4027 96.7808 19.1957 96.8973C18.9888 97.0137 18.8156 97.1818 18.6931 97.3852L17.4576 99.428C17.323 99.647 17.2493 99.8979 17.2443 100.155C17.2393 100.412 17.3031 100.666 17.4291 100.89C17.5552 101.114 17.7388 101.3 17.9611 101.429C18.1833 101.558 18.4361 101.626 18.6931 101.624V101.624C18.9537 101.622 19.2088 101.549 19.4312 101.413C19.6536 101.277 19.835 101.084 19.9561 100.853H19.967ZM29.9115 93.5662L30.1119 93.1242C30.2028 92.9235 30.2419 92.7032 30.2257 92.4835C30.2095 92.2638 30.1385 92.0517 30.0191 91.8666C29.8998 91.6814 29.7359 91.5291 29.5425 91.4236C29.3491 91.3181 29.1324 91.2628 28.9121 91.2627V91.2627C28.6659 91.2628 28.4246 91.3317 28.2155 91.4618C28.0064 91.5918 27.8378 91.7777 27.7288 91.9985L27.5119 92.4405C27.4129 92.6415 27.3668 92.8644 27.378 93.0882C27.3891 93.3119 27.4571 93.5291 27.5756 93.7193C27.694 93.9094 27.859 94.0663 28.0549 94.175C28.2508 94.2836 28.4712 94.3406 28.6952 94.3405H28.7117C28.964 94.341 29.2112 94.2692 29.4239 94.1334C29.6366 93.9976 29.8058 93.8036 29.9115 93.5744V93.5662ZM72.0038 0.0878939C69.2353 1.70375 66.8541 3.90597 65.0273 6.53997C64.5746 7.17891 63.9896 7.71293 63.3121 8.10567C62.6346 8.49841 61.8806 8.74068 61.1011 8.81606C58.3541 9.10885 55.8025 10.3749 53.9077 12.3853C53.8234 12.4788 53.7682 12.5949 53.7488 12.7193C53.7294 12.8437 53.7467 12.9711 53.7985 13.0859C53.8504 13.2007 53.9345 13.2978 54.0407 13.3655C54.1469 13.4332 54.2705 13.4685 54.3965 13.467C56.8253 13.4659 59.2375 13.8676 61.5349 14.6559C62.5817 15.0135 63.6003 15.4485 64.5825 15.9573C65.4724 16.4213 66.3308 16.9431 67.1524 17.5195C69.2263 18.9761 71.0321 20.7809 72.4898 22.8541C72.56 22.9581 72.6593 23.0393 72.7754 23.0872C72.8914 23.1352 73.0189 23.148 73.1422 23.124C73.2654 23.1 73.3789 23.0403 73.4684 22.9522C73.5579 22.8642 73.6195 22.7518 73.6456 22.629C74.2121 19.8293 73.7231 16.9191 72.2728 14.4582C71.8585 13.7664 71.601 12.992 71.5185 12.1898C71.4359 11.3877 71.5303 10.5771 71.7951 9.81542C72.8404 6.86222 73.2429 3.71987 72.9757 0.598565C72.9673 0.489148 72.9313 0.383659 72.871 0.291968C72.8108 0.200277 72.7282 0.125395 72.631 0.0743537C72.5339 0.0233122 72.4254 -0.002218 72.3157 0.000151059C72.2059 0.00252012 72.0986 0.0327065 72.0038 0.0878939V0.0878939ZM50.1875 77.3207C47.5934 78.8169 45.4442 80.9765 43.9606 83.5778C42.4396 86.2038 41.6489 89.189 41.6708 92.2236C41.6481 95.2375 42.4392 98.2017 43.9606 100.804C45.4511 103.391 47.5994 105.538 50.1875 107.028C52.7896 108.548 55.7536 109.34 58.7674 109.318C61.8021 109.34 64.7874 108.549 67.4132 107.028C70.0151 105.545 72.175 103.396 73.6703 100.801C75.1935 98.1995 75.9855 95.2351 75.9629 92.2209C75.9712 89.9206 75.5097 87.6428 74.6066 85.5272C73.7522 83.4779 72.5094 81.6133 70.9467 80.036C69.3694 78.4728 67.5049 77.2292 65.4556 76.3735C63.3399 75.4709 61.0621 75.0103 58.7619 75.0199C55.7489 75.0022 52.7869 75.797 50.1875 77.3207V77.3207ZM51.2528 92.2236C51.2366 91.2314 51.423 90.2462 51.8007 89.3285C52.1784 88.4107 52.7393 87.5797 53.4492 86.8862C54.1377 86.1743 54.9655 85.6119 55.881 85.234C56.7964 84.8561 57.7799 84.6708 58.7701 84.6897C59.7631 84.6719 60.7491 84.8576 61.6675 85.2354C62.5859 85.6131 63.4173 86.1749 64.1103 86.8862C64.8234 87.5779 65.3875 88.4083 65.7676 89.3262C66.1477 90.2442 66.3358 91.2302 66.3205 92.2236C66.3369 93.2151 66.1492 94.1994 65.7689 95.1153C65.3887 96.0311 64.8241 96.8589 64.1103 97.5473C63.4163 98.2572 62.5848 98.8182 61.6666 99.1959C60.7484 99.5735 59.7628 99.7599 58.7701 99.7437C57.7802 99.761 56.7971 99.5751 55.8819 99.1973C54.9667 98.8195 54.1387 98.2579 53.4492 97.5473C52.7392 96.8569 52.1782 96.0284 51.8009 95.1127C51.4235 94.1971 51.238 93.2138 51.2555 92.2236H51.2528ZM98.0263 75.0144C95.7035 75.2615 93.0156 76.0851 89.9625 77.4854C89.7977 77.5609 89.6163 77.5929 89.4357 77.5785C89.255 77.5641 89.081 77.5037 88.9302 77.4031C88.78 77.3177 88.6557 77.1932 88.5706 77.0428C88.4855 76.8925 88.4428 76.7219 88.447 76.5492C88.4478 76.4138 88.4209 76.2797 88.3681 76.155C88.3152 76.0304 88.2374 75.9179 88.1395 75.8244C88.0409 75.7241 87.9228 75.645 87.7924 75.5921C87.6621 75.5392 87.5223 75.5136 87.3817 75.5168H80.1224C79.9817 75.5131 79.8418 75.5385 79.7114 75.5914C79.581 75.6444 79.463 75.7237 79.3646 75.8244C79.2667 75.9179 79.1889 76.0304 79.1361 76.155C79.0832 76.2797 79.0563 76.4138 79.0571 76.5492V107.934C79.0578 108.073 79.0869 108.21 79.1426 108.338C79.1983 108.465 79.2795 108.58 79.3811 108.675C79.4757 108.777 79.5904 108.859 79.7179 108.914C79.8455 108.97 79.9832 108.999 80.1224 108.999H87.3817C87.5238 109.002 87.6648 108.974 87.7954 108.919C87.9261 108.863 88.0434 108.78 88.1395 108.675C88.3362 108.478 88.4468 108.212 88.447 107.934V88.2562C88.4269 88.0581 88.4727 87.859 88.5775 87.6897C88.6823 87.5204 88.8401 87.3904 89.0263 87.32C90.4333 86.5106 91.919 85.8464 93.4604 85.3377C94.5912 84.9399 95.7789 84.7276 96.9775 84.709C97.8242 84.7016 98.6601 84.9004 99.4128 85.2883C100.398 85.9157 101.19 86.8031 101.703 87.8526C102.325 89.0241 102.637 90.4811 102.639 92.2236V107.934C102.638 108.072 102.665 108.208 102.718 108.335C102.771 108.463 102.848 108.578 102.946 108.675C103.042 108.78 103.159 108.863 103.29 108.919C103.421 108.975 103.562 109.002 103.704 108.999H111.219C111.358 108.999 111.496 108.97 111.624 108.914C111.752 108.858 111.867 108.777 111.963 108.675C112.064 108.58 112.145 108.465 112.2 108.338C112.255 108.21 112.284 108.073 112.284 107.934V92.2236C112.284 88.1822 111.735 84.8545 110.637 82.2407C109.538 79.6269 107.571 77.5998 104.734 76.1593C102.648 75.1604 100.325 74.7638 98.0263 75.0144V75.0144ZM166.201 103.928C166.201 103.188 166.056 102.456 165.773 101.773C165.49 101.09 165.075 100.469 164.552 99.9461C164.029 99.4232 163.408 99.0084 162.725 98.7254C162.042 98.4425 161.31 98.2968 160.57 98.2968C159.831 98.2968 159.099 98.4425 158.416 98.7255C157.733 99.0085 157.112 99.4233 156.589 99.9463C156.067 100.469 155.652 101.09 155.37 101.773C155.087 102.456 154.941 103.189 154.942 103.928C154.942 105.421 155.535 106.852 156.59 107.908C157.646 108.963 159.078 109.556 160.57 109.556C161.31 109.557 162.042 109.411 162.725 109.129C163.408 108.846 164.029 108.432 164.552 107.909C165.075 107.386 165.49 106.766 165.773 106.083C166.056 105.399 166.201 104.667 166.201 103.928V103.928ZM146.011 103.203C146.042 103.386 146.03 103.573 145.978 103.751C145.925 103.928 145.832 104.091 145.706 104.227C144.112 105.888 142.192 107.203 140.066 108.088C137.95 108.991 135.674 109.458 133.373 109.46C131.033 109.458 128.719 108.967 126.58 108.019C124.306 107.006 122.267 105.534 120.589 103.695C120.577 103.694 120.564 103.69 120.553 103.685C120.542 103.679 120.532 103.671 120.523 103.662C120.507 103.643 120.485 103.631 120.46 103.629C118.272 101 116.892 97.7942 116.487 94.3981C116.059 91.1424 116.618 87.8332 118.091 84.8984C119.06 82.8917 120.42 81.0986 122.091 79.6242C123.772 78.1339 125.732 76.9908 127.857 76.2609C129.974 75.5369 132.213 75.2374 134.446 75.3796C135.812 75.4614 137.164 75.7075 138.471 76.1126C139.294 76.3691 140.096 76.6867 140.871 77.0626C144.127 78.6109 146.788 81.1813 148.449 84.3823C150.146 87.5189 150.803 91.1138 150.324 94.6479C150.262 94.9238 150.103 95.1683 149.876 95.3371C149.648 95.5168 149.365 95.6136 149.075 95.6116H129.051C128.803 95.5974 128.558 95.6631 128.35 95.799C128.143 95.935 127.984 96.1339 127.898 96.3666C127.815 96.5389 127.774 96.7289 127.781 96.9202C127.787 97.1115 127.839 97.2983 127.934 97.4649C127.97 97.526 128.011 97.5847 128.055 97.6406C129.318 99.4812 131.01 100.986 132.986 102.025C134.962 103.063 137.161 103.604 139.394 103.601C141.366 103.605 143.316 103.182 145.11 102.36C145.194 102.32 145.287 102.305 145.38 102.317C145.472 102.329 145.558 102.368 145.629 102.429C145.741 102.525 145.833 102.644 145.899 102.777C145.965 102.91 146.003 103.055 146.011 103.203V103.203ZM138.177 86.6391C137.717 86.2486 137.211 85.9157 136.67 85.6479C135.657 85.1729 134.554 84.9211 133.436 84.9094C132.586 84.9198 131.742 85.0605 130.935 85.3267C130.128 85.6062 129.38 86.0294 128.724 86.576C128.514 86.7206 128.36 86.934 128.29 87.1795C128.22 87.4251 128.238 87.6873 128.34 87.9213C128.413 88.1663 128.567 88.3792 128.777 88.525C128.987 88.6707 129.241 88.7405 129.496 88.723H137.313C137.571 88.7381 137.826 88.6677 138.04 88.5227C138.254 88.3778 138.414 88.1664 138.496 87.9213C138.61 87.7058 138.64 87.4559 138.581 87.2194C138.523 86.9829 138.379 86.7763 138.177 86.6391V86.6391Z" fill="url(#paint0_linear_9_289)"/>
<defs>
<linearGradient id="paint0_linear_9_289" x1="83.1041" y1="113.021" x2="83.1041" y2="-0.00270144" gradientUnits="userSpaceOnUse">
<stop stop-color="#3AAFA9"/>
<stop offset="1" stop-color="#2B7A78"/>
</linearGradient>
</defs>
</svg>
