<svg width="46" height="46" viewBox="0 0 46 46" fill="none" xmlns="http://www.w3.org/2000/svg">
<circle cx="23" cy="22.7844" r="22.5" fill="#FFFBEF"/>
<path fill-rule="evenodd" clip-rule="evenodd" d="M23.0206 13.5618C20.668 13.5618 18.5242 14.3389 17.256 14.9737C17.1414 15.031 17.0346 15.0873 16.9352 15.1415C16.7383 15.2487 16.5706 15.3487 16.4372 15.4368L17.8799 17.5607L18.5591 17.831C21.2133 19.1701 24.7727 19.1701 27.4273 17.831L28.1982 17.431L29.5628 15.4368C29.2801 15.2524 28.9861 15.0859 28.6826 14.9383C27.4211 14.3102 25.3289 13.5618 23.0206 13.5618ZM19.6648 15.9659C19.154 15.8703 18.6494 15.7437 18.1539 15.5868C19.3419 15.0592 21.1128 14.4993 23.0201 14.4993C24.3414 14.4993 25.5909 14.768 26.6242 15.1086C25.4133 15.279 24.1211 15.568 22.8898 15.9237C21.9211 16.204 20.7888 16.1737 19.6648 15.9659V15.9659ZM27.9773 18.6034L27.8497 18.668C24.9294 20.1409 21.0565 20.1409 18.1362 18.668L18.0154 18.6066C13.6289 23.4196 10.2799 32.3102 23.0206 32.3102C35.7602 32.3102 32.3294 23.2534 27.9773 18.6034ZM22.4789 22.9368C22.2026 22.9368 21.9377 23.0465 21.7423 23.2419C21.547 23.4372 21.4372 23.7022 21.4372 23.9784C21.4372 24.2547 21.547 24.5197 21.7423 24.715C21.9377 24.9104 22.2026 25.0201 22.4789 25.0201V22.9368ZM23.5206 21.8951V21.3743H22.4789V21.8951C21.9264 21.8951 21.3965 22.1146 21.0058 22.5053C20.6151 22.896 20.3956 23.4259 20.3956 23.9784C20.3956 24.531 20.6151 25.0609 21.0058 25.4516C21.3965 25.8423 21.9264 26.0618 22.4789 26.0618V28.1451C22.2635 28.1452 22.0533 28.0784 21.8774 27.9541C21.7015 27.8297 21.5685 27.6539 21.4966 27.4508C21.4506 27.3206 21.3548 27.2139 21.2301 27.1543C21.1055 27.0948 20.9623 27.0871 20.832 27.1331C20.7018 27.1791 20.5951 27.275 20.5355 27.3996C20.476 27.5242 20.4683 27.6674 20.5143 27.7977C20.658 28.2039 20.9241 28.5557 21.2759 28.8044C21.6277 29.0532 22.048 29.1868 22.4789 29.1868V29.7076H23.5206V29.1868C24.0731 29.1868 24.603 28.9673 24.9937 28.5766C25.3844 28.1859 25.6039 27.656 25.6039 27.1034C25.6039 26.5509 25.3844 26.021 24.9937 25.6303C24.603 25.2396 24.0731 25.0201 23.5206 25.0201V22.9368C23.9737 22.9368 24.3596 23.2258 24.5034 23.631C24.5247 23.6973 24.5591 23.7587 24.6046 23.8114C24.65 23.8642 24.7056 23.9073 24.768 23.9382C24.8304 23.9691 24.8984 23.9872 24.9679 23.9914C25.0374 23.9956 25.107 23.9858 25.1727 23.9626C25.2384 23.9394 25.2987 23.9033 25.3502 23.8564C25.4016 23.8094 25.4431 23.7527 25.4723 23.6894C25.5014 23.6261 25.5175 23.5577 25.5198 23.4881C25.522 23.4185 25.5102 23.3491 25.4852 23.2842C25.3415 22.8779 25.0754 22.5262 24.7236 22.2775C24.3718 22.0287 23.9515 21.8951 23.5206 21.8951ZM23.5206 26.0618V28.1451C23.7968 28.1451 24.0618 28.0354 24.2571 27.84C24.4525 27.6447 24.5622 27.3797 24.5622 27.1034C24.5622 26.8272 24.4525 26.5622 24.2571 26.3669C24.0618 26.1715 23.7968 26.0618 23.5206 26.0618Z" fill="#E1B000"/>
</svg>
