<svg width="51" height="50" viewBox="0 0 51 50" fill="none" xmlns="http://www.w3.org/2000/svg">
<circle cx="25.3994" cy="25" r="25" fill="#DEF2F1"/>
<path d="M34.5547 19.4255C34.5708 19.6935 34.5708 19.9599 34.5708 20.2264C34.5708 28.3812 29.5294 37.7779 20.3161 37.7779C17.4776 37.7779 14.8406 36.7657 12.6216 35.0076C13.0246 35.0643 13.4127 35.0842 13.8319 35.0842C16.087 35.0909 18.2782 34.1625 20.0524 32.4486C19.0069 32.4253 17.9933 32.0006 17.1533 31.2338C16.3133 30.467 15.6887 29.3963 15.3668 28.1714C15.6765 28.228 15.9875 28.2663 16.3134 28.2663C16.7624 28.2663 17.2139 28.1898 17.6331 28.0565C16.4984 27.7745 15.4781 27.0172 14.7456 25.9136C14.0132 24.81 13.6138 23.428 13.6154 22.0028V21.9263C14.2834 22.3842 15.0583 22.6705 15.8793 22.7088C15.1915 22.1462 14.6276 21.3826 14.2378 20.4864C13.848 19.5902 13.6444 18.5891 13.6453 17.5725C13.6453 16.427 13.8928 15.3764 14.3269 14.4606C15.5859 16.3673 17.1561 17.9271 18.9359 19.039C20.7156 20.151 22.6652 20.7903 24.6585 20.9155C24.5813 20.4561 24.5341 19.9798 24.5341 19.502C24.5338 18.6919 24.6631 17.8895 24.9148 17.141C25.1665 16.3924 25.5355 15.7122 26.0008 15.1393C26.4661 14.5664 27.0186 14.1121 27.6266 13.8022C28.2347 13.4924 28.8863 13.3331 29.5444 13.3335C30.9873 13.3335 32.2896 14.0778 33.2051 15.2815C34.3267 15.0144 35.4024 14.5103 36.3844 13.7914C36.0105 15.2169 35.2273 16.4256 34.1815 17.1911C35.1763 17.0514 36.1486 16.7293 37.066 16.2355C36.3808 17.4654 35.5317 18.5439 34.5547 19.4255Z" fill="#3AAFA9"/>
</svg>
