<svg width="46" height="46" viewBox="0 0 46 46" fill="none" xmlns="http://www.w3.org/2000/svg">
<circle cx="23" cy="22.7844" r="22.5" fill="#F2F8FF"/>
<g clip-path="url(#clip0_74_959)">
<path d="M31.5 22.136C31.6602 21.718 31.75 21.261 31.75 20.7844C31.75 18.7141 30.0703 17.0344 28 17.0344C27.2305 17.0344 26.5117 17.2688 25.918 17.6672C24.8359 15.7922 22.8164 14.5344 20.5 14.5344C17.0469 14.5344 14.25 17.3313 14.25 20.7844C14.25 20.8899 14.2539 20.9954 14.2578 21.1008C12.0703 21.8704 10.5 23.9563 10.5 26.4094C10.5 29.5149 13.0195 32.0344 16.125 32.0344H30.5C33.2617 32.0344 35.5 29.7961 35.5 27.0344C35.5 24.6165 33.7812 22.5969 31.5 22.136ZM25.8672 24.5344H23.3125V28.9094C23.3125 29.2532 23.0312 29.5344 22.6875 29.5344H20.8125C20.4688 29.5344 20.1875 29.2532 20.1875 28.9094V24.5344H17.6328C17.0742 24.5344 16.7969 23.8625 17.1914 23.468L21.3086 19.3508C21.5508 19.1086 21.9492 19.1086 22.1914 19.3508L26.3086 23.468C26.7031 23.8625 26.4219 24.5344 25.8672 24.5344Z" fill="#1DA1F3"/>
</g>
<defs>
<clipPath id="clip0_74_959">
<rect width="25" height="20" fill="white" transform="translate(10.5 13.2844)"/>
</clipPath>
</defs>
</svg>
