<svg width="176" height="202" viewBox="0 0 176 202" fill="none" xmlns="http://www.w3.org/2000/svg">
<path opacity="0.15" d="M168.061 5.12713C170.377 32.4014 166.846 59.8558 157.704 85.6564C155.402 92.3141 154.583 99.3945 155.305 106.402C156.026 113.409 158.271 120.174 161.881 126.223C174.519 147.733 178.761 173.155 173.792 197.603C173.556 198.67 173.013 199.645 172.231 200.407C171.448 201.17 170.46 201.687 169.388 201.896C168.315 202.105 167.205 201.997 166.194 201.584C165.182 201.171 164.313 200.471 163.694 199.571C145.838 174.246 122.156 153.584 94.644 139.325C86.0746 134.859 77.1757 131.056 68.0254 127.949C47.982 121.069 26.934 117.569 5.74253 117.592C4.63809 117.608 3.55317 117.3 2.62141 116.707C1.68965 116.113 0.951779 115.261 0.498586 114.254C0.0453933 113.246 -0.103342 112.128 0.0708186 111.038C0.244979 109.947 0.734427 108.931 1.47876 108.115C18.0465 90.5931 40.3328 79.5724 64.3139 77.0424C71.1235 76.3924 77.7123 74.279 83.6293 70.8467C89.5464 67.4144 94.6521 62.7444 98.5971 57.1561C114.566 34.1428 135.368 14.8954 159.551 0.759734C160.375 0.285205 161.305 0.0245976 162.256 0.00165775C163.206 -0.0212821 164.148 0.194173 164.994 0.628401C165.84 1.06263 166.564 1.70181 167.1 2.48761C167.636 3.27341 167.966 4.18083 168.061 5.12713V5.12713Z" fill="#DFDFDF"/>
</svg>
