<svg width="162" height="185" viewBox="0 0 162 185" fill="none" xmlns="http://www.w3.org/2000/svg">
<path opacity="0.15" d="M154.51 4.69564C156.63 29.6745 153.396 54.8184 145.024 78.4477C142.916 84.5451 142.166 91.0296 142.827 97.4473C143.488 103.865 145.543 110.061 148.85 115.6C160.424 135.3 164.309 158.583 159.758 180.973C159.542 181.95 159.045 182.843 158.328 183.541C157.612 184.24 156.707 184.714 155.725 184.905C154.743 185.097 153.726 184.997 152.799 184.619C151.873 184.24 151.077 183.6 150.51 182.776C134.156 159.582 112.468 140.658 87.2712 127.6C79.423 123.51 71.273 120.027 62.8928 117.181C44.5362 110.88 25.2596 107.674 5.85154 107.696C4.84004 107.71 3.84643 107.428 2.99308 106.885C2.13973 106.342 1.46396 105.561 1.04891 104.638C0.633858 103.716 0.497641 102.692 0.657144 101.693C0.816647 100.694 1.2649 99.7634 1.9466 99.016C17.12 82.969 37.5307 72.8758 59.4937 70.5587C65.7301 69.9633 71.7644 68.0278 77.1835 64.8843C82.6026 61.7409 87.2786 57.4639 90.8916 52.346C105.516 31.2694 124.568 13.6418 146.715 0.695796C147.47 0.261202 148.322 0.0225275 149.193 0.00151824C150.064 -0.019491 150.926 0.177832 151.701 0.575516C152.476 0.973199 153.139 1.55859 153.629 2.27826C154.12 2.99793 154.423 3.82898 154.51 4.69564V4.69564Z" fill="#DFDFDF"/>
</svg>
