<svg width="79" height="18" viewBox="0 0 79 18" fill="none" xmlns="http://www.w3.org/2000/svg">
<path fill-rule="evenodd" clip-rule="evenodd" d="M42.2042 0.454058C45.1403 0.228195 48.1067 0 51.079 0C51.1271 0 51.1896 0.00183431 51.2531 0.0120576C51.2842 0.0170685 51.3355 0.027103 51.3932 0.0496057C51.4396 0.0677131 51.5623 0.120704 51.6586 0.252163C51.784 0.423435 51.797 0.631561 51.734 0.799901C51.6853 0.930071 51.6032 1.0081 51.5707 1.03721C51.4994 1.10096 51.4238 1.13836 51.3928 1.15335C51.2536 1.22073 51.0305 1.28802 50.8272 1.34341C50.3983 1.46032 49.8001 1.59137 49.4657 1.62646C41.731 2.43797 27.2805 3.5046 16.4808 4.28004C15.8393 4.36673 15.2011 4.45474 14.5669 4.54404C14.1634 4.60086 11.6478 4.9665 8.93775 5.43825C7.58247 5.67416 6.18314 5.93581 4.9769 6.19793C4.25621 6.35453 3.61852 6.5084 3.105 6.6537C3.55386 6.8043 4.04217 6.91706 4.30892 6.93663C5.89945 7.05331 8.89995 7.09151 11.7606 7.09609C30.9575 5.51484 50.2193 3.95601 69.4964 3.43734C70.1009 3.42108 70.7187 3.36312 71.3548 3.29526C71.4972 3.28006 71.641 3.26431 71.7858 3.24846C72.2805 3.19427 72.7864 3.13886 73.2875 3.10008C74.585 2.99968 75.934 3.00204 77.2359 3.43604C77.3819 3.48468 77.5174 3.53759 77.6286 3.59793C77.6841 3.62802 77.7508 3.66911 77.8136 3.72451C77.8711 3.77523 77.9676 3.87458 78.0164 4.02984C78.0746 4.21525 78.0411 4.40443 77.9461 4.55263C77.8667 4.67649 77.7622 4.74545 77.7017 4.77977C77.58 4.84884 77.4419 4.8846 77.3404 4.90635C76.9225 4.99589 76.1675 5.03189 75.3492 5.05163C74.7273 5.06663 74.0465 5.07262 73.3788 5.07849C72.2096 5.08877 71.0808 5.09869 70.3797 5.15606C59.9873 6.00634 49.6079 6.83095 39.2069 7.41465C39.1568 7.5306 39.096 7.61541 39.0527 7.64077C39.017 7.65514 38.9633 7.67173 38.946 7.67586C38.9361 7.67798 38.9198 7.68109 38.9133 7.68219C38.9011 7.68417 38.8914 7.68534 38.8877 7.68578C38.8745 7.68734 38.8622 7.68832 38.8586 7.68861C38.8471 7.68952 38.8314 7.69062 38.8142 7.69174C38.7787 7.69408 38.725 7.69738 38.6532 7.70157C38.5374 7.70833 38.3724 7.71753 38.1573 7.72889C38.0909 7.73308 38.0198 7.73761 37.944 7.74251C37.3574 7.78039 36.4924 7.83961 35.3658 7.92431L35.1163 7.94307C28.0034 8.4776 20.3122 9.05561 13.6797 11.4804C13.3039 11.6178 13.0054 11.7407 12.7857 11.8512C12.9347 11.9062 13.1308 11.9674 13.3838 12.0331C14.4629 12.3134 16.1072 12.5005 17.7597 12.6282C19.1768 12.7377 20.5664 12.8014 21.5569 12.8467C21.7141 12.8539 21.8612 12.8607 21.9968 12.8671C28.9309 13.1938 35.8787 13.201 42.836 13.201C43.2115 13.201 43.4672 13.2041 43.603 13.2117C43.6358 13.2135 43.6779 13.2164 43.7178 13.2222C43.7328 13.2243 43.7777 13.2309 43.8295 13.2478C43.8506 13.2547 43.9163 13.2766 43.9873 13.3271C44.0437 13.3673 44.2558 13.5388 44.2259 13.8494C44.2002 14.1163 44.0099 14.2464 43.9784 14.2679C43.921 14.3072 43.8691 14.3272 43.8495 14.3344C43.8045 14.3511 43.7652 14.3593 43.7499 14.3625C43.7122 14.3702 43.6724 14.3755 43.6412 14.3793C43.3985 14.4086 42.7336 14.4502 41.8254 14.5046C41.6296 14.5163 41.4212 14.5287 41.2016 14.5418C39.353 14.6516 36.7076 14.8089 34.0528 15.0191C31.074 15.2551 28.1162 15.5554 26.2634 15.9244C25.8019 16.0163 25.4224 16.1099 25.1347 16.2036C26.4977 16.7021 28.3456 16.7898 30.2872 16.7353C31.177 16.7104 32.0675 16.6567 32.9221 16.6052C33.0012 16.6004 33.08 16.5957 33.1585 16.5909C34.0784 16.5357 34.9577 16.4861 35.7184 16.4861H63.398C63.7136 16.4861 63.9694 16.7419 63.9694 17.0575C63.9694 17.3731 63.7136 17.629 63.398 17.629H35.7184C34.9976 17.629 34.1526 17.6763 33.227 17.7318C33.1481 17.7365 33.0687 17.7413 32.9887 17.7461C32.137 17.7975 31.2284 17.8523 30.3193 17.8778C28.3482 17.9331 26.2829 17.8556 24.6893 17.258C24.4938 17.1847 24.3196 17.1067 24.1728 17.0217C24.0315 16.9399 23.8835 16.8334 23.772 16.6904C23.6518 16.5363 23.5595 16.3168 23.6042 16.0602C23.6454 15.824 23.7859 15.6587 23.9021 15.5563C24.1244 15.3604 24.4537 15.2234 24.7808 15.1168C25.1286 15.0036 25.5567 14.8997 26.0402 14.8035C27.0584 14.6007 28.3817 14.4201 29.8422 14.2602C27.2089 14.2109 24.5753 14.1327 21.943 14.0087C21.8092 14.0024 21.6633 13.9957 21.507 13.9886C20.5175 13.9433 19.1083 13.8787 17.6716 13.7677C16.0186 13.64 14.2836 13.4477 13.0965 13.1393C12.5798 13.0051 12.1626 12.8596 11.8773 12.6836C11.7348 12.5956 11.576 12.4707 11.4713 12.2899C11.3512 12.0825 11.3265 11.8414 11.4093 11.6126C11.4812 11.4138 11.6177 11.2691 11.7339 11.1701C11.8557 11.0664 12.0005 10.9751 12.1509 10.8935C12.4517 10.7302 12.8436 10.5692 13.2873 10.407C14.7186 9.88371 16.1963 9.44469 17.7034 9.07267C13.1364 9.40828 8.55691 9.68452 3.96743 9.72051C2.68599 9.73056 1.80393 9.71754 1.24759 9.68559C0.975468 9.66997 0.75411 9.64851 0.596616 9.61599C0.532132 9.60267 0.409172 9.57486 0.296762 9.50633C0.242775 9.47343 0.113406 9.38516 0.0432591 9.21103C-0.0441898 8.99394 0.0144222 8.78956 0.0997972 8.66036C0.169805 8.55442 0.25705 8.49476 0.297984 8.46893C0.346923 8.43805 0.394559 8.41596 0.431299 8.40062C0.505085 8.36981 0.586811 8.34495 0.663928 8.32438C0.821199 8.28242 1.0249 8.24126 1.25569 8.20095C1.72085 8.11969 2.34692 8.03322 3.04528 7.9471C3.13955 7.93547 3.23529 7.92383 3.3323 7.9122C2.9861 7.8228 2.62562 7.70622 2.32357 7.5828C2.04722 7.46989 1.71686 7.31178 1.51558 7.10532C1.42314 7.01049 1.21526 6.7572 1.3024 6.40785C1.3848 6.07751 1.6674 5.93639 1.80137 5.88202C2.44816 5.61956 3.51915 5.34511 4.73421 5.08108C4.99841 5.02367 5.27134 4.96636 5.55057 4.9094C5.43192 4.81353 5.35171 4.67067 5.33971 4.50653C5.31669 4.19177 5.55319 3.91793 5.86795 3.89491C7.37135 3.78495 9.32453 3.64558 11.5832 3.48442C13.0596 3.37908 14.6665 3.26442 16.3636 3.14257C24.6656 2.02147 33.5273 1.11987 41.7581 0.488348C41.9067 0.476944 42.0555 0.465504 42.2042 0.454058ZM11.8066 8.23907C11.2917 8.28148 10.7769 8.32391 10.2621 8.36634L10.0933 8.38025L10.0922 8.38034L9.8932 8.39774C9.81538 8.40461 9.7167 8.41338 9.59976 8.42386C10.7657 8.37203 11.9318 8.30937 13.0982 8.23886C12.6749 8.2396 12.2426 8.23973 11.8066 8.23907ZM57.7048 5.01996C49.0888 5.6789 40.4795 6.25978 31.8534 6.6402C40.4664 5.99403 49.0841 5.42356 57.7048 5.01996ZM2.21942 6.94652C2.21942 6.94652 2.22235 6.94465 2.23011 6.94147C2.22361 6.94502 2.21942 6.94652 2.21942 6.94652Z" fill="#3AAFA9"/>
</svg>
