<svg width="191" height="199" viewBox="0 0 191 199" fill="none" xmlns="http://www.w3.org/2000/svg">
<path d="M190.744 59.6302C192.6 36.581 176.051 10.2832 154.089 2.5486C131.817 -5.34072 109.855 5.95186 97.7914 24.515C92.3782 19.8742 85.8823 17.3991 78.9224 16.935C77.3758 16.1616 75.8292 15.5428 74.1279 14.924C66.0854 10.1285 56.6509 7.80819 47.0618 9.35511C23.2436 13.3771 6.07587 37.1998 10.4065 61.0224C10.8704 63.9616 11.7984 66.9007 12.7264 69.5305C12.4171 71.5415 12.2624 73.5525 12.2624 75.5635C5.6119 76.337 -1.03866 77.5745 -7.37987 80.0496C-27.0222 87.7842 -41.2512 105.883 -44.6538 126.612C-50.3763 161.882 -19.9076 205.505 19.2223 197.771C37.318 194.213 50.155 180.29 56.8056 163.584C58.9708 158.015 60.9815 151.208 62.2188 145.02C64.0747 145.33 66.2401 145.639 66.7041 145.794C81.8611 148.578 97.0182 152.136 111.557 144.866C128.106 136.512 132.436 120.888 129.652 105.574C131.663 104.336 133.519 102.944 135.375 101.397C136.612 101.552 138.004 101.707 139.396 101.861C164.916 103.253 188.424 86.2373 190.744 59.6302Z" fill="#7DBBB9"/>
</svg>
