<svg width="300" height="641" viewBox="0 0 300 641" fill="none" xmlns="http://www.w3.org/2000/svg">
<g opacity="0.5">
<path d="M204.715 629.031C206.586 626.31 209.394 626.31 211.266 629.031C213.137 631.753 213.137 635.835 211.266 638.557C209.394 641.279 206.586 641.279 204.715 638.557C203.077 636.176 203.077 631.753 204.715 629.031Z" fill="#DFDFDF"/>
<path d="M153.946 555.208C155.817 552.487 158.625 552.487 160.497 555.208C162.368 557.93 162.368 562.012 160.497 564.734C158.625 567.456 155.817 567.456 153.946 564.734C152.074 562.012 152.074 557.93 153.946 555.208Z" fill="#DFDFDF"/>
<path d="M103.176 481.385C105.048 478.664 107.855 478.664 109.727 481.385C111.599 484.107 111.599 488.189 109.727 490.911C107.855 493.632 105.048 493.632 103.176 490.911C101.305 488.189 101.305 483.767 103.176 481.385Z" fill="#DFDFDF"/>
<path d="M55.4487 418.789C58.033 418.789 60.1279 415.743 60.1279 411.985C60.1279 408.227 58.033 405.181 55.4487 405.181C52.8645 405.181 50.7695 408.227 50.7695 411.985C50.7695 415.743 52.8645 418.789 55.4487 418.789Z" fill="#DFDFDF"/>
<path d="M1.40376 333.399C3.27544 330.678 6.08296 330.678 7.95464 333.399C9.82632 336.121 9.82632 340.203 7.95464 342.925C6.08296 345.646 3.27544 345.646 1.40376 342.925C-0.46792 340.203 -0.46792 335.78 1.40376 333.399Z" fill="#DFDFDF"/>
<path d="M250.337 563.033C252.209 560.311 255.017 560.311 256.888 563.033C258.76 565.755 258.76 569.837 256.888 572.558C255.017 575.28 252.209 575.28 250.337 572.558C248.466 569.837 248.466 565.755 250.337 563.033Z" fill="#DFDFDF"/>
<path d="M199.334 489.21C201.205 486.488 204.013 486.488 205.885 489.21C207.756 491.931 207.756 496.014 205.885 498.735C204.013 501.457 201.205 501.457 199.334 498.735C197.696 496.014 197.696 491.591 199.334 489.21Z" fill="#DFDFDF"/>
<path d="M148.564 415.047C150.436 412.325 153.244 412.325 155.115 415.047C156.987 417.768 156.987 421.851 155.115 424.572C153.244 427.294 150.436 427.294 148.564 424.572C146.693 421.851 146.693 417.768 148.564 415.047Z" fill="#DFDFDF"/>
<path d="M100.837 352.79C103.421 352.79 105.516 349.744 105.516 345.986C105.516 342.229 103.421 339.182 100.837 339.182C98.2527 339.182 96.1577 342.229 96.1577 345.986C96.1577 349.744 98.2527 352.79 100.837 352.79Z" fill="#DFDFDF"/>
<path d="M50.0674 278.627C52.6516 278.627 54.7466 275.581 54.7466 271.823C54.7466 268.065 52.6516 265.019 50.0674 265.019C47.4831 265.019 45.3882 268.065 45.3882 271.823C45.3882 275.581 47.4831 278.627 50.0674 278.627Z" fill="#DFDFDF"/>
<path d="M299.001 508.601C301.586 508.601 303.681 505.555 303.681 501.797C303.681 498.039 301.586 494.993 299.001 494.993C296.417 494.993 294.322 498.039 294.322 501.797C294.322 505.555 296.417 508.601 299.001 508.601Z" fill="#DFDFDF"/>
<path d="M247.998 434.438C250.582 434.438 252.677 431.392 252.677 427.634C252.677 423.876 250.582 420.83 247.998 420.83C245.413 420.83 243.318 423.876 243.318 427.634C243.318 431.392 245.413 434.438 247.998 434.438Z" fill="#DFDFDF"/>
<path d="M193.953 349.048C195.824 346.327 198.632 346.327 200.503 349.048C202.375 351.77 202.375 355.852 200.503 358.574C198.632 361.295 195.824 361.295 193.953 358.574C192.081 355.852 192.081 351.77 193.953 349.048Z" fill="#DFDFDF"/>
<path d="M143.184 275.225C145.055 272.503 147.863 272.503 149.734 275.225C151.606 277.947 151.606 282.029 149.734 284.751C147.863 287.472 145.055 287.472 143.184 284.751C141.312 282.029 141.312 277.606 143.184 275.225Z" fill="#DFDFDF"/>
<path d="M92.1804 201.062C94.0521 198.34 96.8596 198.34 98.7313 201.062C100.603 203.783 100.603 207.866 98.7313 210.587C96.8596 213.309 94.0521 213.309 92.1804 210.587C90.5427 207.866 90.5427 203.783 92.1804 201.062Z" fill="#DFDFDF"/>
<path d="M290.345 356.873C292.217 354.151 295.024 354.151 296.896 356.873C298.768 359.594 298.768 363.677 296.896 366.398C295.024 369.12 292.217 369.12 290.345 366.398C288.473 363.677 288.473 359.594 290.345 356.873Z" fill="#DFDFDF"/>
<path d="M239.342 283.05C241.213 280.328 244.021 280.328 245.892 283.05C247.764 285.771 247.764 289.854 245.892 292.575C244.021 295.297 241.213 295.297 239.342 292.575C237.704 289.854 237.704 285.431 239.342 283.05Z" fill="#DFDFDF"/>
<path d="M191.847 220.453C194.431 220.453 196.526 217.407 196.526 213.649C196.526 209.892 194.431 206.845 191.847 206.845C189.263 206.845 187.168 209.892 187.168 213.649C187.168 217.407 189.263 220.453 191.847 220.453Z" fill="#DFDFDF"/>
<path d="M137.803 135.063C139.674 132.342 142.482 132.342 144.354 135.063C146.225 137.785 146.225 141.867 144.354 144.589C142.482 147.311 139.674 147.311 137.803 144.589C135.931 141.867 135.931 137.785 137.803 135.063Z" fill="#DFDFDF"/>
<path d="M284.963 217.051C286.835 214.33 289.643 214.33 291.514 217.051C293.386 219.773 293.386 223.855 291.514 226.577C289.643 229.298 286.835 229.298 284.963 226.577C283.092 223.855 283.092 219.433 284.963 217.051Z" fill="#DFDFDF"/>
<path d="M237.236 154.455C239.82 154.455 241.915 151.409 241.915 147.651C241.915 143.893 239.82 140.847 237.236 140.847C234.652 140.847 232.557 143.893 232.557 147.651C232.557 151.409 234.652 154.455 237.236 154.455Z" fill="#DFDFDF"/>
<path d="M186.466 80.6318C189.051 80.6318 191.146 77.5855 191.146 73.8278C191.146 70.0701 189.051 67.0238 186.466 67.0238C183.882 67.0238 181.787 70.0701 181.787 73.8278C181.787 77.5855 183.882 80.6318 186.466 80.6318Z" fill="#DFDFDF"/>
<path d="M279.581 76.8895C281.453 74.1679 284.261 74.1679 286.132 76.8895C288.004 79.6111 288.004 83.6935 286.132 86.4151C284.261 89.1367 281.453 89.1367 279.581 86.4151C277.71 83.6935 277.71 79.2709 279.581 76.8895Z" fill="#DFDFDF"/>
<path d="M228.579 2.72637C230.45 0.00478415 233.258 0.00478415 235.129 2.72637C237.001 5.44796 237.001 9.53035 235.129 12.2519C233.258 14.9735 230.45 14.9735 228.579 12.2519C226.707 9.87054 226.707 5.44796 228.579 2.72637Z" fill="#DFDFDF"/>
</g>
</svg>
